<svg width="275" height="101" viewBox="0 0 275 101" fill="none" xmlns="http://www.w3.org/2000/svg">
<path d="M46.0279 26.6368L40.3448 54.8014L48.6999 50.9066L53.3842 55.8179L56.4604 46.7209L53.198 45.9073L58.7364 28.6179L46.0279 26.6368Z" fill="white"/>
<path d="M49.2876 32.0907L42.9161 53.6013L45.9464 52.228L48.7011 50.909L46.7881 67.7023L57.2796 45.0897L53.3078 45.8506L58.7408 28.6221L49.2876 32.0907Z" fill="#C1FCF5"/>
<path d="M46.7857 67.6755L46.0382 74.1209L65.4136 41.5132L53.4527 45.8373L57.2362 45.1574L46.7857 67.6755Z" fill="#94E3DA"/>
<path d="M66.1736 2.89141C67.0577 4.05703 66.0929 5.98371 64.6299 5.98371V5.98371C63.6507 5.98371 57.4926 4.2465 51.1158 4.2465C44.8789 4.2465 39.3923 5.70803 37.9942 5.98371V5.98371C36.3698 6.30402 35.3117 3.86831 36.5182 2.73443C36.6113 2.64692 36.7116 2.5706 36.8188 2.5093C39.2292 1.13143 45.0543 0 51.3122 0C57.3483 0 64.1595 1.15814 65.8047 2.5093C65.9505 2.6291 66.0722 2.75782 66.1736 2.89141Z" fill="url(#paint0_linear_163_1542)"/>
<path d="M66.1258 98.1086C67.0099 96.943 66.0451 95.0163 64.5821 95.0163V95.0163C63.6029 95.0163 57.4448 96.7535 51.068 96.7535C44.8311 96.7535 39.3445 95.292 37.9464 95.0163V95.0163C36.322 94.696 35.2639 97.1317 36.4703 98.2656C36.5635 98.3531 36.6638 98.4294 36.771 98.4907C39.1813 99.8686 45.0065 101 51.2644 101C57.3004 101 64.1117 99.8419 65.7568 98.4907C65.9027 98.3709 66.0244 98.2422 66.1258 98.1086Z" fill="url(#paint1_linear_163_1542)"/>
<path d="M27.8179 6.64574C29.2664 6.88268 29.9359 8.90509 28.8863 9.91679V9.91679C28.1863 10.5916 22.5513 13.5934 17.9925 17.9878C13.5337 22.2859 10.6481 27.1117 9.84419 28.2722V28.2722C8.90719 29.6249 6.44297 28.624 6.48315 26.9864C6.48643 26.8527 6.50407 26.7222 6.53899 26.5983C7.2846 23.9523 10.6464 19.1291 15.1202 14.8166C19.4355 10.657 25.1265 6.79109 27.2612 6.62334C27.4588 6.60782 27.6444 6.61737 27.8179 6.64574Z" fill="url(#paint2_linear_163_1542)"/>
<path d="M27.4439 94.6133C28.896 94.4008 29.6009 92.3909 28.5692 91.3612V91.3612C27.8812 90.6745 22.3002 87.5764 17.8198 83.1043C13.4376 78.7304 10.6378 73.8557 9.85454 72.6815V72.6815C8.94149 71.3128 6.46068 72.2709 6.47126 73.9087C6.47213 74.0427 6.48746 74.1737 6.52024 74.2984C7.21895 76.9569 10.4949 81.837 14.8919 86.2258C19.1329 90.4588 24.7547 94.4219 26.8862 94.6263C27.0837 94.6452 27.2697 94.6388 27.4439 94.6133Z" fill="url(#paint3_linear_163_1542)"/>
<path d="M76.2197 94.6133C74.7675 94.4008 74.0627 92.3909 75.0943 91.3612V91.3612C75.7823 90.6745 81.3634 87.5764 85.8438 83.1043C90.2259 78.7304 93.0257 73.8557 93.809 72.6815V72.6815C94.7221 71.3128 97.2029 72.2709 97.1923 73.9087C97.1914 74.0427 97.1761 74.1737 97.1433 74.2984C96.4446 76.9569 93.1686 81.837 88.7717 86.2258C84.5307 90.4588 78.9088 94.4219 76.7774 94.6263C76.5799 94.6452 76.3939 94.6388 76.2197 94.6133Z" fill="url(#paint4_linear_163_1542)"/>
<path d="M76.2196 6.61563C74.7674 6.82811 74.0626 8.83801 75.0942 9.86771V9.86771C75.7823 10.5545 81.3633 13.6526 85.8437 18.1246C90.2259 22.4986 92.9653 27.4146 93.8089 28.5474C93.9034 28.6743 94.0165 28.7748 94.1434 28.8544C95.5039 29.708 97.5476 28.4692 97.1432 26.9305V26.9305C96.4445 24.2721 93.1685 19.3919 88.7716 15.0032C84.5306 10.7701 78.9087 6.80707 76.7773 6.60268C76.5798 6.58374 76.3938 6.59014 76.2196 6.61563Z" fill="url(#paint5_linear_163_1542)"/>
<path d="M3.10833 65.2116C4.29844 66.0441 6.20912 65.1024 6.20243 63.6502V63.6502C6.19799 62.6851 4.40746 56.6238 4.37855 50.3391C4.35027 44.1922 5.80829 38.7782 6.08167 37.399V37.399C6.40137 35.7861 3.97032 34.7678 2.80695 35.9296C2.70647 36.03 2.61943 36.139 2.55111 36.2564C1.16401 38.6381 0.0424478 44.3843 0.0708213 50.5519C0.0981887 56.5008 1.30415 63.2085 2.68253 64.8237C2.81562 64.9797 2.95932 65.1074 3.10833 65.2116Z" fill="url(#paint6_linear_163_1542)"/>
<path d="M99.9021 65.2116C98.712 66.0441 96.8013 65.1024 96.808 63.6502V63.6502C96.8124 62.6851 98.6029 56.6238 98.6319 50.3391C98.6601 44.1922 97.2021 38.7782 96.9287 37.399V37.399C96.609 35.7861 99.0401 34.7678 100.203 35.9296C100.304 36.03 100.391 36.139 100.459 36.2564C101.846 38.6381 102.968 44.3843 102.94 50.5519C102.912 56.5008 101.706 63.2085 100.328 64.8237C100.195 64.9797 100.051 65.1074 99.9021 65.2116Z" fill="url(#paint7_linear_163_1542)"/>
<path d="M28.8711 6.56274L38.058 22.0052C38.6142 22.9402 38.3015 24.1394 37.3596 24.6837V24.6837C36.4177 25.228 35.2032 24.9113 34.647 23.9764L25.4601 8.53389L28.8711 6.56274Z" fill="url(#paint8_linear_163_1542)"/>
<ellipse cx="27.4187" cy="8.49303" rx="3.91696" ry="3.86046" fill="url(#paint9_linear_163_1542)"/>
<path d="M4.30869 63.3185L21.218 56.6892C22.2219 56.2956 23.3629 56.7871 23.7665 57.7871V57.7871C24.1701 58.787 23.6834 59.9167 22.6795 60.3103L5.77021 66.9396L4.30869 63.3185Z" fill="url(#paint10_linear_163_1542)"/>
<ellipse cx="5.09207" cy="64.4691" rx="3.91696" ry="3.86046" fill="url(#paint11_linear_163_1542)"/>
<path d="M77.8256 92.6525L67.8515 77.6888C67.2485 76.7841 66.0199 76.5298 65.1073 77.1206V77.1206C64.1947 77.7115 63.9437 78.9238 64.5467 79.8285L74.5207 94.7922L77.8256 92.6525Z" fill="url(#paint12_linear_163_1542)"/>
<ellipse cx="75.2057" cy="92.651" rx="3.91697" ry="3.86046" fill="url(#paint13_linear_163_1542)"/>
<ellipse cx="75.2057" cy="92.651" rx="3.91697" ry="3.86046" fill="url(#paint14_linear_163_1542)"/>
<ellipse cx="75.2057" cy="92.651" rx="3.91697" ry="3.86046" fill="url(#paint15_linear_163_1542)"/>
<path d="M25.8519 92.6525L35.8259 77.6888C36.4289 76.7841 37.6575 76.5298 38.5701 77.1206V77.1206C39.4827 77.7115 39.7337 78.9238 39.1307 79.8285L29.1567 94.7922L25.8519 92.6525Z" fill="url(#paint16_linear_163_1542)"/>
<ellipse cx="28.2021" cy="92.651" rx="3.91696" ry="3.86046" fill="url(#paint17_linear_163_1542)"/>
<ellipse cx="28.2021" cy="92.651" rx="3.91696" ry="3.86046" fill="url(#paint18_linear_163_1542)"/>
<ellipse cx="28.2021" cy="92.651" rx="3.91696" ry="3.86046" fill="url(#paint19_linear_163_1542)"/>
<path d="M4.30869 38.7505L21.218 45.3798C22.2219 45.7734 23.3629 45.2818 23.7665 44.2819V44.2819C24.1701 43.2819 23.6834 42.1523 22.6795 41.7587L5.77021 35.1294L4.30869 38.7505Z" fill="url(#paint20_linear_163_1542)"/>
<ellipse cx="5.09207" cy="37.06" rx="3.91696" ry="3.86046" fill="url(#paint21_linear_163_1542)"/>
<path d="M100.095 38.7505L83.1854 45.3798C82.1815 45.7734 81.0405 45.2818 80.6369 44.2819V44.2819C80.2333 43.2819 80.72 42.1523 81.7239 41.7587L98.6332 35.1294L100.095 38.7505Z" fill="url(#paint22_linear_163_1542)"/>
<ellipse cx="98.7077" cy="37.06" rx="3.91696" ry="3.86046" fill="url(#paint23_linear_163_1542)"/>
<path d="M74.8236 6.56274L65.6367 22.0052C65.0805 22.9402 65.3932 24.1394 66.3351 24.6837V24.6837C67.2771 25.228 68.4916 24.9113 69.0478 23.9764L78.2347 8.53389L74.8236 6.56274Z" fill="url(#paint24_linear_163_1542)"/>
<ellipse cx="75.9891" cy="8.49303" rx="3.91697" ry="3.86046" fill="url(#paint25_linear_163_1542)"/>
<path d="M100.095 62.9324L83.1854 56.3031C82.1815 55.9095 81.0405 56.401 80.6369 57.401V57.401C80.2333 58.4009 80.72 59.5306 81.7239 59.9242L98.6332 66.5535L100.095 62.9324Z" fill="url(#paint26_linear_163_1542)"/>
<ellipse cx="98.7077" cy="64.4691" rx="3.91696" ry="3.86046" fill="url(#paint27_linear_163_1542)"/>
<path d="M36.9589 66.8999C36.9589 66.4793 36.8728 66.0629 36.7055 65.6744C36.5381 65.2859 36.2929 64.9329 35.9837 64.6355C35.6746 64.3382 35.3075 64.1023 34.9036 63.9414C34.4996 63.7805 34.0667 63.6976 33.6295 63.6976C33.1922 63.6976 32.7593 63.7805 32.3554 63.9414C31.9514 64.1023 31.5844 64.3382 31.2752 64.6355C30.966 64.9329 30.7208 65.2859 30.5535 65.6744C30.3862 66.0629 30.3 66.4793 30.3 66.8999C30.3 66.8999 35.9837 68.3809 33.6295 66.8999C31.2752 65.4188 36.9589 66.8999 36.9589 66.8999Z" fill="url(#paint28_linear_163_1542)"/>
<path d="M30.2991 67.172C30.2815 67.5869 30.483 68.1029 30.6298 68.4927C30.7765 68.8826 31.0006 69.2405 31.2893 69.546C31.578 69.8516 31.9257 70.0987 32.3125 70.2733C32.6993 70.448 33.1176 70.5467 33.5435 70.5639C33.9695 70.5811 34.3948 70.5163 34.795 70.3735C35.1953 70.2306 35.5628 70.0123 35.8765 69.7311C36.1901 69.4498 36.4439 69.1112 36.6232 68.7345C36.8025 68.3578 36.9038 67.9503 36.9215 67.5354C36.9215 67.5354 31.8721 65.5983 34.5024 67.117C37.1326 68.6357 31.3776 67.5679 30.2991 67.172Z" fill="url(#paint29_linear_163_1542)"/>
<ellipse cx="66.1967" cy="67.558" rx="3.13357" ry="3.08837" fill="url(#paint30_linear_163_1542)"/>
<path d="M67.1969 67.542L66.2129 66.5723C66.1544 66.6126 66.0733 66.6332 65.9704 66.6332C65.7378 66.6332 65.4861 66.5285 65.4837 66.5274C65.4728 66.5229 65.4614 66.5206 65.4499 66.5206C65.4357 66.5206 65.4216 66.5241 65.4088 66.531C65.3858 66.5435 65.3697 66.5656 65.3654 66.5912L65.0227 68.6179C65.0206 68.6299 65.0217 68.642 65.0248 68.6534L65.9997 67.6925C65.9773 67.6591 65.9641 67.6192 65.9641 67.5762C65.9641 67.4598 66.0602 67.3651 66.1783 67.3651C66.2964 67.3651 66.3925 67.4598 66.3925 67.5762C66.3925 67.6926 66.2964 67.7873 66.1783 67.7873C66.1347 67.7873 66.0942 67.7743 66.0603 67.7522L65.0853 68.7131C65.0925 68.715 65.0997 68.7163 65.1072 68.7163C65.1119 68.7163 65.1166 68.7159 65.1213 68.7151L67.1778 68.3773C67.2037 68.3731 67.2262 68.3573 67.2389 68.3346C67.2515 68.3118 67.2528 68.2846 67.2424 68.2608C67.181 68.1196 67.0621 67.7323 67.1969 67.542Z" fill="white"/>
<path d="M66.2763 66.5151L67.2544 67.479L67.3223 67.412L66.3443 66.4482L66.2763 66.5151Z" fill="white"/>
<path d="M66.1783 67.7029C66.2493 67.7029 66.3069 67.6462 66.3069 67.5763C66.3069 67.5063 66.2493 67.4496 66.1783 67.4496C66.1074 67.4496 66.0498 67.5063 66.0498 67.5763C66.0498 67.6462 66.1074 67.7029 66.1783 67.7029Z" fill="white"/>
<path d="M67.7385 66.8831L66.8816 66.0387C66.8649 66.0221 66.843 66.0139 66.821 66.0139C66.7991 66.0139 66.7772 66.0221 66.7605 66.0387L66.4052 66.3888L67.3832 67.3527L67.7385 67.0025C67.7719 66.9696 67.7719 66.9161 67.7385 66.8831Z" fill="white"/>
<ellipse cx="71.4847" cy="52.6955" rx="2.15433" ry="2.12325" fill="url(#paint31_linear_163_1542)"/>
<ellipse cx="71.4847" cy="52.6956" rx="0.783394" ry="0.772091" fill="white"/>
<ellipse cx="32.1191" cy="34.7438" rx="3.13357" ry="3.08837" fill="url(#paint32_linear_163_1542)"/>
<ellipse cx="30.9049" cy="33.73" rx="0.352527" ry="0.337791" fill="white"/>
<ellipse cx="30.9049" cy="34.7434" rx="0.352527" ry="0.337791" fill="white"/>
<ellipse cx="30.9049" cy="35.7567" rx="0.352527" ry="0.337791" fill="white"/>
<path d="M31.6099 33.7301C31.6099 33.6368 31.6855 33.5612 31.7788 33.5612H33.9087C34.0019 33.5612 34.0776 33.6368 34.0776 33.7301V33.7301C34.0776 33.8233 34.0019 33.8989 33.9087 33.8989H31.7788C31.6855 33.8989 31.6099 33.8233 31.6099 33.7301V33.7301Z" fill="white"/>
<path d="M31.6099 34.7434C31.6099 34.6501 31.6855 34.5745 31.7788 34.5745H33.9087C34.0019 34.5745 34.0776 34.6501 34.0776 34.7434V34.7434C34.0776 34.8366 34.0019 34.9123 33.9087 34.9123H31.7788C31.6855 34.9123 31.6099 34.8366 31.6099 34.7434V34.7434Z" fill="white"/>
<path d="M31.6099 35.7568C31.6099 35.6635 31.6855 35.5879 31.7788 35.5879H33.9087C34.0019 35.5879 34.0776 35.6635 34.0776 35.7568V35.7568C34.0776 35.8501 34.0019 35.9257 33.9087 35.9257H31.7788C31.6855 35.9257 31.6099 35.8501 31.6099 35.7568V35.7568Z" fill="white"/>
<ellipse cx="68.1552" cy="34.7438" rx="3.13357" ry="3.08837" fill="url(#paint33_linear_163_1542)"/>
<path d="M66.7353 34.9464H67.0453C67.0349 34.8793 67.0295 34.8116 67.029 34.7437C67.0295 34.6759 67.0349 34.6082 67.0453 34.5411H66.7353C66.6963 34.5411 66.659 34.5268 66.6314 34.5015C66.6039 34.4762 66.5884 34.4418 66.5884 34.4059C66.5884 34.3701 66.6039 34.3357 66.6314 34.3104C66.659 34.2851 66.6963 34.2708 66.7353 34.2708H67.1128C67.1894 34.0252 67.3482 33.8081 67.5667 33.6504C67.7851 33.4927 68.0521 33.4025 68.3296 33.3926C68.5127 33.3925 68.6933 33.432 68.8568 33.508C68.8916 33.524 68.9181 33.5521 68.9305 33.5861C68.9428 33.6201 68.94 33.6572 68.9225 33.6893C68.9051 33.7214 68.8746 33.7458 68.8376 33.7571C68.8007 33.7685 68.7603 33.7658 68.7255 33.7498C68.6027 33.6927 68.4671 33.6629 68.3296 33.6628C68.1304 33.6704 67.9381 33.7323 67.7772 33.8405C67.6162 33.9487 67.4938 34.0985 67.4255 34.2708H68.2037C68.2427 34.2708 68.28 34.2851 68.3076 34.3104C68.3351 34.3357 68.3506 34.3701 68.3506 34.4059C68.3506 34.4418 68.3351 34.4762 68.3076 34.5015C68.28 34.5268 68.2427 34.5411 68.2037 34.5411H67.341C67.3165 34.6752 67.3165 34.8122 67.341 34.9464H68.0569C68.0958 34.9464 68.1332 34.9606 68.1607 34.986C68.1883 35.0113 68.2037 35.0457 68.2037 35.0815C68.2037 35.1174 68.1883 35.1517 68.1607 35.1771C68.1332 35.2024 68.0958 35.2166 68.0569 35.2166H67.4255C67.4938 35.389 67.6162 35.5387 67.7772 35.647C67.9381 35.7552 68.1304 35.8171 68.3296 35.8247C68.4673 35.8247 68.6032 35.7949 68.7261 35.7377C68.7609 35.7216 68.8013 35.719 68.8382 35.7304C68.8752 35.7417 68.9057 35.7661 68.9231 35.7982C68.9405 35.8303 68.9434 35.8674 68.9311 35.9014C68.9187 35.9354 68.8922 35.9635 68.8573 35.9795C68.6939 36.0554 68.5133 36.095 68.3302 36.0949C68.0527 36.085 67.7857 35.9947 67.5672 35.837C67.3488 35.6793 67.19 35.4622 67.1134 35.2166H66.7353C66.6963 35.2166 66.659 35.2024 66.6314 35.1771C66.6039 35.1517 66.5884 35.1174 66.5884 35.0815C66.5884 35.0457 66.6039 35.0113 66.6314 34.986C66.659 34.9606 66.6963 34.9464 66.7353 34.9464Z" fill="white"/>
<ellipse cx="30.3565" cy="52.6955" rx="2.15433" ry="2.12325" fill="url(#paint34_linear_163_1542)"/>
<path fill-rule="evenodd" clip-rule="evenodd" d="M30.4544 51.7382C30.4544 51.676 30.4106 51.6256 30.3565 51.6256C30.3024 51.6256 30.2586 51.676 30.2586 51.7382V51.8012C30.144 51.817 30.0386 51.8604 29.9546 51.9271C29.8469 52.0127 29.769 52.1425 29.769 52.3012C29.769 52.4446 29.8171 52.5779 29.9235 52.6719C30.0073 52.7461 30.1203 52.7897 30.2586 52.8033V53.3621C30.1818 53.3479 30.1156 53.3177 30.0659 53.2782C29.9965 53.2231 29.9648 53.1558 29.9648 53.0894C29.9648 53.0272 29.921 52.9768 29.8669 52.9768C29.8128 52.9768 29.769 53.0272 29.769 53.0894C29.769 53.2481 29.8469 53.3779 29.9546 53.4635C30.0386 53.5302 30.144 53.5736 30.2586 53.5894V53.6523C30.2586 53.7145 30.3024 53.7649 30.3565 53.7649C30.4106 53.7649 30.4544 53.7145 30.4544 53.6523V53.5897C30.5682 53.5747 30.6735 53.5333 30.7577 53.4675C30.8669 53.3823 30.944 53.2519 30.944 53.0894C30.944 52.9422 30.8965 52.8081 30.7889 52.7146C30.7048 52.6414 30.5919 52.6 30.4544 52.5871V52.0285C30.5312 52.0426 30.5973 52.0729 30.6471 52.1123C30.7165 52.1675 30.7482 52.2347 30.7482 52.3012C30.7482 52.3634 30.792 52.4138 30.8461 52.4138C30.9002 52.4138 30.944 52.3634 30.944 52.3012C30.944 52.1425 30.8661 52.0127 30.7584 51.9271C30.6744 51.8604 30.569 51.817 30.4544 51.8012V51.7382ZM30.2586 52.0285C30.1818 52.0426 30.1156 52.0729 30.0659 52.1123C29.9965 52.1675 29.9648 52.2347 29.9648 52.3012C29.9648 52.3829 29.9901 52.4468 30.0429 52.4934C30.0865 52.532 30.1554 52.5645 30.2586 52.5771V52.0285ZM30.4544 52.8132V53.3626C30.5319 53.3491 30.5982 53.3199 30.6477 53.2812C30.7157 53.2281 30.7482 53.1614 30.7482 53.0894C30.7482 53.0019 30.7223 52.939 30.6708 52.8942C30.6273 52.8564 30.5584 52.8252 30.4544 52.8132Z" fill="white"/>
<path d="M13.9124 33.3945C14.6835 27.585 20.4727 20.8649 26.0092 18.7966L31.0603 24.4828C25.6807 27.5921 22.5254 29.4668 21.0129 37.126L13.9124 33.3945Z" fill="url(#paint35_linear_163_1542)"/>
<path d="M16.8971 33.4503C18.4097 27.4097 21.1516 24.5145 26.0495 21.4261L27.4594 23.0478C22.7185 26.2516 20.76 27.7958 19.1932 34.3586L16.8971 33.4503Z" fill="#D9D9D9"/>
<path d="M13.9124 69.3917C14.6835 75.2012 20.4727 81.9212 26.0092 83.9895L31.0603 78.3033C25.6807 75.194 22.5254 73.3194 21.0129 65.6601L13.9124 69.3917Z" fill="url(#paint36_linear_163_1542)"/>
<path d="M16.8971 69.3214C18.4097 75.362 21.1516 78.2573 26.0495 81.3456L27.4594 79.7239C22.7184 76.5201 20.76 74.9759 19.1932 68.4131L16.8971 69.3214Z" fill="#D9D9D9"/>
<path d="M89.5 69.3917C88.7288 75.2012 82.9396 81.9212 77.4032 83.9895L72.352 78.3033C77.7316 75.194 80.8869 73.3194 82.3994 65.6601L89.5 69.3917Z" fill="url(#paint37_linear_163_1542)"/>
<path d="M86.5363 69.3214C85.0237 75.362 82.2818 78.2573 77.3839 81.3456L75.974 79.7239C80.7149 76.5201 82.6734 74.9759 84.2402 68.4131L86.5363 69.3214Z" fill="#D9D9D9"/>
<path d="M90.2833 33.3945C89.5122 27.585 83.723 20.8649 78.1865 18.7966L73.1354 24.4828C78.515 27.5921 81.6703 29.4668 83.1828 37.126L90.2833 33.3945Z" fill="url(#paint38_linear_163_1542)"/>
<path d="M87.3197 33.4503C85.807 27.4097 83.0652 24.5145 78.1672 21.4261L76.7573 23.0478C81.4983 26.2516 83.4568 27.7958 85.0236 34.3586L87.3197 33.4503Z" fill="#D9D9D9"/>
<path d="M129.167 44.1126L127.051 44.4315C126.292 44.5378 125.451 44.6707 124.528 44.8302C123.633 44.963 122.765 45.0295 121.924 45.0295C121.11 45.0295 120.377 44.8966 119.726 44.6308C119.102 44.3651 118.668 43.8468 118.424 43.0761C118.234 42.5181 118.166 42.1593 118.22 41.9998C118.302 41.8404 118.492 41.7872 118.79 41.8404C119.116 41.8669 119.536 41.9467 120.052 42.0796C120.567 42.1859 121.178 42.239 121.883 42.239C122.805 42.239 123.863 42.146 125.057 41.96C126.251 41.7739 127.472 41.5746 128.72 41.362C129.995 41.1494 131.243 40.9501 132.464 40.764C133.685 40.578 134.797 40.485 135.801 40.485C137.103 40.485 138.08 40.6312 138.731 40.9235C139.409 41.1893 139.857 41.5347 140.074 41.96C140.318 42.3586 140.386 42.7838 140.277 43.2356C140.169 43.6874 139.992 44.086 139.748 44.4315C139.504 44.7504 139.233 44.9896 138.934 45.1491C138.663 45.2819 138.46 45.2288 138.324 44.9896C138.134 44.6707 137.849 44.4315 137.469 44.2721C137.089 44.086 136.669 43.9531 136.208 43.8734C135.747 43.7671 135.245 43.714 134.702 43.714C134.159 43.6874 133.63 43.6874 133.115 43.714C132.464 45.3882 131.758 47.1954 130.999 49.1354C130.266 51.0755 129.52 53.0554 128.76 55.0751C128.001 57.0683 127.241 59.0615 126.482 61.0547C125.749 63.0479 125.057 64.9348 124.406 66.7153C124.298 66.9811 124.067 67.0874 123.714 67.0343C123.389 66.9811 123.05 66.8349 122.697 66.5958C122.344 66.3566 122.046 66.0377 121.802 65.639C121.557 65.267 121.476 64.8816 121.557 64.483L129.167 44.1126Z" fill="url(#paint39_linear_163_1542)"/>
<path d="M141.743 55.3542C142.476 54.3177 143.208 53.4806 143.941 52.8428C144.673 52.2049 145.352 51.7664 145.976 51.5273C146.627 51.2881 147.21 51.2615 147.726 51.4475C148.268 51.607 148.702 51.9923 149.028 52.6036C149.245 53.0554 149.313 53.6002 149.231 54.238C149.15 54.8758 148.987 55.5535 148.743 56.271C148.526 56.962 148.268 57.6663 147.97 58.3838C147.671 59.1014 147.414 59.7525 147.196 60.3371C147.007 60.9218 146.912 61.4268 146.912 61.852C146.912 62.2506 147.074 62.4898 147.4 62.5695C147.671 62.6492 148.024 62.5429 148.458 62.2506C148.892 61.9583 149.313 61.6128 149.72 61.2141C150.154 60.7889 150.561 60.3637 150.94 59.9385C151.32 59.5133 151.592 59.2077 151.754 59.0216C151.89 58.8888 152.026 58.8356 152.161 58.8622C152.324 58.8622 152.446 58.9153 152.528 59.0216C152.636 59.1014 152.69 59.221 152.69 59.3804C152.718 59.5399 152.663 59.686 152.528 59.8189C152.066 60.2973 151.592 60.8022 151.103 61.3337C150.615 61.8653 150.099 62.3569 149.557 62.8087C149.014 63.2605 148.444 63.6326 147.848 63.9249C147.278 64.1906 146.667 64.2969 146.016 64.2438C145.501 64.1906 145.107 64.0711 144.836 63.885C144.565 63.6724 144.361 63.4465 144.226 63.2073C144.117 62.9416 144.049 62.6492 144.022 62.3303C144.022 62.0114 144.036 61.7058 144.063 61.4135C144.063 61.254 144.144 60.9218 144.307 60.4169C144.47 59.9119 144.66 59.3406 144.877 58.7027C145.121 58.0383 145.365 57.3474 145.609 56.6298C145.854 55.8857 146.071 55.2213 146.26 54.6366C146.45 54.0254 146.572 53.5204 146.627 53.1218C146.708 52.7232 146.695 52.5239 146.586 52.5239C146.26 52.5239 145.84 52.7099 145.324 53.0819C144.836 53.454 144.321 53.9457 143.778 54.5569C143.235 55.1416 142.693 55.8193 142.15 56.59C141.608 57.3341 141.133 58.0782 140.726 58.8223L138.895 63.9249C138.786 64.2438 138.555 64.3634 138.203 64.2837C137.877 64.1774 137.565 63.9647 137.267 63.6458C136.941 63.3004 136.711 62.8884 136.575 62.4101C136.412 61.9051 136.466 61.4135 136.738 60.9351C136.819 60.6428 136.914 60.3371 137.023 60.0182C137.104 59.6993 137.199 59.3671 137.307 59.0216C137.85 57.2411 138.501 55.2612 139.261 53.0819C140.021 50.8762 140.834 48.6571 141.703 46.4247C142.598 44.1658 143.52 41.9865 144.47 39.887C145.447 37.761 146.41 35.8874 147.359 34.2663C148.255 32.7514 149.245 31.7283 150.33 31.1967C151.442 30.6652 152.433 30.5456 153.301 30.838C154.169 31.1037 154.82 31.7416 155.254 32.7514C155.688 33.7347 155.675 35.0104 155.213 36.5784C154.942 37.4819 154.549 38.4254 154.033 39.4087C153.545 40.392 152.975 41.362 152.324 42.3187C151.7 43.2755 151.008 44.2056 150.249 45.1092C149.489 45.9862 148.716 46.7968 147.929 47.5409C147.169 48.2584 146.396 48.883 145.609 49.4145C144.85 49.946 144.131 50.3313 143.453 50.5705C143.018 51.6867 142.652 52.6567 142.354 53.4806C142.082 54.3044 141.879 54.929 141.743 55.3542ZM149.679 36.4588C149.082 37.6015 148.512 38.7576 147.97 39.9269C147.427 41.0697 146.912 42.1991 146.423 43.3153C145.962 44.4049 145.528 45.4547 145.121 46.4646C144.714 47.4479 144.348 48.3382 144.022 49.1354C144.945 48.6305 145.921 47.8997 146.952 46.9429C147.983 45.9862 148.96 44.9232 149.882 43.7538C150.832 42.5845 151.673 41.3753 152.406 40.1262C153.138 38.8506 153.694 37.6414 154.074 36.4986C154.427 35.3559 154.522 34.4789 154.359 33.8676C154.196 33.2564 153.871 32.9375 153.382 32.9109C152.894 32.8843 152.311 33.1634 151.632 33.748C150.954 34.3327 150.303 35.2363 149.679 36.4588Z" fill="url(#paint40_linear_163_1542)"/>
<path d="M159.628 59.8189C159.329 60.2441 158.895 60.8022 158.325 61.4932C157.783 62.1842 157.172 62.8087 156.494 63.3668C155.843 63.8983 155.165 64.2438 154.459 64.4032C153.754 64.5627 153.116 64.3235 152.547 63.6857C152.085 63.2073 151.814 62.5297 151.733 61.6527C151.624 60.7756 151.638 59.8986 151.773 59.0216C151.855 58.3838 151.977 57.7327 152.14 57.0683C152.302 56.4039 152.479 55.7661 152.669 55.1549C152.859 54.517 153.035 53.9191 153.198 53.361C153.388 52.8029 153.537 52.3112 153.645 51.886C153.727 51.5937 153.93 51.4077 154.256 51.3279C154.609 51.2482 154.975 51.2349 155.355 51.2881C155.762 51.3412 156.114 51.4608 156.413 51.6469C156.711 51.8329 156.847 52.0455 156.82 52.2847C156.738 52.6567 156.603 53.1882 156.413 53.8792C156.25 54.5436 156.06 55.2745 155.843 56.0717C155.626 56.8424 155.409 57.6397 155.192 58.4636C155.002 59.2608 154.853 59.9784 154.744 60.6162C154.636 61.254 154.595 61.7722 154.622 62.1709C154.649 62.5429 154.785 62.6891 155.029 62.6094C155.463 62.5031 155.965 62.2107 156.535 61.7324C157.105 61.2274 157.647 60.6693 158.163 60.0581C158.678 59.4203 159.126 58.7825 159.506 58.1446C159.913 57.5068 160.184 57.0019 160.32 56.6298L162.151 51.5671C162.259 51.2482 162.463 51.1286 162.761 51.2084C163.06 51.2881 163.345 51.4874 163.616 51.8063C163.914 52.1252 164.145 52.5371 164.308 53.0421C164.47 53.5204 164.47 54.0121 164.308 54.517C164.226 54.836 164.063 55.3542 163.819 56.0717C163.575 56.7893 163.317 57.5733 163.046 58.4237C162.802 59.2475 162.585 60.0581 162.395 60.8554C162.232 61.6527 162.191 62.2639 162.273 62.6891C162.354 63.0877 162.585 63.2871 162.965 63.2871C163.345 63.2605 163.792 63.0745 164.308 62.729C164.85 62.3835 165.42 61.8918 166.017 61.254C166.641 60.6162 167.224 59.8721 167.767 59.0216C167.875 58.8888 167.997 58.8223 168.133 58.8223C168.296 58.8223 168.418 58.8622 168.499 58.9419C168.608 59.0216 168.676 59.1279 168.703 59.2608C168.73 59.3937 168.689 59.5399 168.581 59.6993C168.255 60.2574 167.807 60.8687 167.238 61.5331C166.695 62.1975 166.098 62.8353 165.447 63.4465C164.796 64.0312 164.104 64.5228 163.372 64.9215C162.639 65.3201 161.92 65.5194 161.215 65.5194C160.401 65.5194 159.831 65.2935 159.506 64.8418C159.18 64.4165 159.004 63.9116 158.977 63.3269C158.949 62.7157 159.017 62.0912 159.18 61.4533C159.343 60.7889 159.492 60.2441 159.628 59.8189Z" fill="url(#paint41_linear_163_1542)"/>
<path d="M179.673 54.7164C179.429 55.8325 179.144 56.9222 178.819 57.9852C178.493 59.0482 178.208 60.005 177.964 60.8554C177.72 61.7058 177.557 62.3968 177.476 62.9283C177.394 63.4598 177.462 63.7521 177.679 63.8053C177.951 63.885 178.371 63.7123 178.941 63.2871C179.511 62.8619 180.08 62.3702 180.65 61.8121C181.247 61.2274 181.803 60.6693 182.319 60.1378C182.834 59.5797 183.173 59.2077 183.336 59.0216C183.472 58.8888 183.607 58.8223 183.743 58.8223C183.906 58.8223 184.028 58.8755 184.109 58.9818C184.218 59.0881 184.286 59.221 184.313 59.3804C184.34 59.5133 184.286 59.6595 184.15 59.8189C183.689 60.2973 183.146 60.8687 182.522 61.5331C181.898 62.1975 181.22 62.8353 180.487 63.4465C179.782 64.0312 179.063 64.5228 178.33 64.9215C177.625 65.3467 176.947 65.5194 176.296 65.4397C175.645 65.36 175.183 65.1075 174.912 64.6823C174.641 64.2837 174.491 63.7654 174.464 63.1276C174.464 62.4898 174.546 61.7855 174.709 61.0148C174.898 60.2441 175.115 59.4601 175.36 58.6629C175.631 57.8656 175.902 57.0949 176.174 56.3508C176.445 55.6066 176.662 54.9555 176.825 54.3975C176.987 53.8394 177.055 53.4141 177.028 53.1218C177.028 52.8029 176.879 52.6833 176.581 52.763C176.119 52.8959 175.604 53.2148 175.034 53.7198C174.491 54.1981 173.949 54.7562 173.406 55.394C172.864 56.0053 172.375 56.6298 171.941 57.2676C171.534 57.8789 171.249 58.3572 171.087 58.7027L168.93 65.2803C168.821 65.5992 168.618 65.7188 168.319 65.639C168.021 65.5593 167.736 65.36 167.465 65.0411C167.166 64.7222 166.936 64.3235 166.773 63.8452C166.61 63.3668 166.61 62.8619 166.773 62.3303C166.909 61.8254 167.058 61.3072 167.221 60.7756C167.383 60.2176 167.56 59.6329 167.75 59.0216C168.211 57.5865 168.618 56.2843 168.97 55.115C169.35 53.9191 169.771 52.763 170.232 51.6469C170.341 51.3811 170.53 51.2748 170.802 51.3279C171.1 51.3811 171.385 51.5405 171.656 51.8063C171.955 52.0455 172.199 52.3644 172.389 52.763C172.579 53.1351 172.633 53.5204 172.552 53.9191L172.145 55.2346C173.257 53.64 174.302 52.577 175.278 52.0455C176.282 51.514 177.137 51.3279 177.842 51.4874C178.547 51.6469 179.063 52.0455 179.389 52.6833C179.741 53.3211 179.836 53.9988 179.673 54.7164Z" fill="url(#paint42_linear_163_1542)"/>
<path d="M192.973 63.3668C193.272 63.4465 193.679 63.3004 194.194 62.9283C194.71 62.5562 195.225 62.1177 195.74 61.6128C196.283 61.0813 196.785 60.563 197.246 60.0581C197.707 59.5532 198.019 59.2077 198.182 59.0216C198.318 58.8888 198.453 58.8356 198.589 58.8622C198.752 58.8622 198.874 58.9153 198.955 59.0216C199.064 59.1014 199.118 59.221 199.118 59.3804C199.145 59.5399 199.091 59.686 198.955 59.8189C198.494 60.2973 198.006 60.8421 197.49 61.4533C196.975 62.0646 196.419 62.6492 195.822 63.2073C195.252 63.7389 194.655 64.1906 194.031 64.5627C193.407 64.9348 192.756 65.1208 192.078 65.1208C191.508 65.1208 191.074 64.9481 190.776 64.6026C190.477 64.2837 190.287 63.8452 190.206 63.2871C190.124 62.729 190.124 62.0912 190.206 61.3736C190.314 60.6561 190.464 59.8986 190.654 59.1014C190.464 59.5 190.192 60.0182 189.84 60.6561C189.487 61.2673 189.08 61.8653 188.619 62.4499C188.185 63.008 187.723 63.4731 187.235 63.8452C186.747 64.2172 186.272 64.3368 185.811 64.2039C184.726 63.9116 183.993 63.2738 183.613 62.2905C183.233 61.3072 183.138 60.2176 183.328 59.0216C183.491 57.8789 183.857 56.7361 184.427 55.5934C185.024 54.424 185.743 53.4806 186.584 52.763C187.452 52.0189 188.402 51.5937 189.433 51.4874C190.464 51.3811 191.508 51.7797 192.566 52.6833C193.217 50.7433 193.909 48.8165 194.642 46.9031C195.401 44.963 196.12 43.1824 196.799 41.5613C197.504 39.9136 198.128 38.4918 198.671 37.2959C199.213 36.1 199.62 35.2761 199.891 34.8243C200.787 33.3095 201.791 32.2598 202.903 31.6751C204.042 31.0639 205.073 30.8645 205.996 31.0772C206.918 31.2632 207.596 31.8346 208.03 32.7913C208.492 33.7215 208.492 34.9705 208.03 36.5385C207.624 37.8939 206.972 39.3157 206.077 40.8039C205.182 42.2922 204.178 43.7007 203.066 45.0295C201.953 46.3317 200.8 47.4877 199.607 48.4976C198.413 49.4809 197.3 50.1586 196.27 50.5307C196.161 50.8496 195.971 51.3811 195.7 52.1252C195.456 52.8693 195.171 53.7065 194.845 54.6366C194.547 55.5668 194.248 56.5368 193.95 57.5467C193.651 58.5566 193.394 59.4867 193.177 60.3371C192.987 61.1876 192.851 61.8918 192.77 62.4499C192.715 63.008 192.783 63.3136 192.973 63.3668ZM202.496 36.4189C201.899 37.5617 201.329 38.7177 200.787 39.887C200.244 41.0298 199.729 42.1593 199.24 43.2755C198.779 44.3651 198.345 45.4015 197.938 46.3848C197.531 47.3681 197.165 48.2584 196.839 49.0557C197.762 48.5508 198.738 47.8332 199.769 46.9031C200.8 45.9463 201.777 44.8833 202.699 43.714C203.649 42.5446 204.49 41.3221 205.223 40.0465C205.955 38.7709 206.511 37.5749 206.891 36.4588C207.271 35.316 207.366 34.439 207.176 33.8278C207.013 33.2165 206.688 32.8976 206.199 32.871C205.711 32.8444 205.128 33.1235 204.449 33.7082C203.771 34.2928 203.12 35.1964 202.496 36.4189ZM186.543 62.2905C186.76 62.2905 187.059 62.1044 187.439 61.7324C187.846 61.3337 188.28 60.8155 188.741 60.1777C189.202 59.5399 189.663 58.8356 190.124 58.0649C190.613 57.2676 191.06 56.4704 191.467 55.6731L192.281 53.6002C191.495 53.1484 190.776 53.0554 190.124 53.3211C189.473 53.5603 188.89 53.9988 188.375 54.6366C187.886 55.2745 187.466 56.0319 187.113 56.9089C186.787 57.7859 186.53 58.623 186.34 59.4203C186.177 60.2176 186.109 60.8952 186.136 61.4533C186.163 62.0114 186.299 62.2905 186.543 62.2905Z" fill="url(#paint43_linear_163_1542)"/>
<path d="M209.993 59.0216C210.129 58.8888 210.265 58.8356 210.4 58.8622C210.563 58.8888 210.699 58.9685 210.807 59.1014C210.916 59.2077 210.97 59.3406 210.97 59.5C210.97 59.6595 210.902 59.7923 210.767 59.8986C209.871 60.6959 209.071 61.3736 208.366 61.9317C207.66 62.4898 206.982 62.9549 206.331 63.3269C205.707 63.6724 205.096 63.9382 204.5 64.1242C203.93 64.2837 203.346 64.3634 202.75 64.3634C201.854 64.3634 201.108 64.2172 200.511 63.9249C199.915 63.6326 199.426 63.2472 199.046 62.7688C198.694 62.2639 198.449 61.6925 198.314 61.0547C198.178 60.4169 198.137 59.7392 198.192 59.0216C198.273 58.1446 198.49 57.2676 198.843 56.3906C199.196 55.4871 199.67 54.6765 200.267 53.9589C200.864 53.2414 201.556 52.6567 202.343 52.2049C203.129 51.7532 203.998 51.5273 204.947 51.5273C205.707 51.5273 206.331 51.7133 206.819 52.0854C207.335 52.4574 207.687 52.9225 207.877 53.4806C208.067 54.0121 208.094 54.5968 207.959 55.2346C207.85 55.8458 207.552 56.3906 207.063 56.869C206.602 57.3474 205.937 57.7061 205.069 57.9453C204.228 58.1845 203.197 58.2111 201.976 58.025C201.678 59.0615 201.542 60.0581 201.569 61.0148C201.624 61.945 201.936 62.5828 202.505 62.9283C203.102 63.2738 203.998 63.1808 205.191 62.6492C206.385 62.1177 207.986 60.9085 209.993 59.0216ZM206.86 55.4339C207.077 54.8758 207.05 54.3974 206.778 53.9988C206.534 53.6002 206.168 53.4009 205.68 53.4009C205.191 53.4009 204.635 53.6799 204.011 54.238C203.387 54.7695 202.817 55.713 202.302 57.0683C202.655 57.1215 203.062 57.1348 203.523 57.1082C203.984 57.0816 204.432 57.0152 204.866 56.9089C205.327 56.776 205.734 56.6032 206.087 56.3906C206.439 56.1515 206.697 55.8325 206.86 55.4339Z" fill="url(#paint44_linear_163_1542)"/>
<path d="M210.931 59.6993C210.741 59.593 210.565 59.4867 210.402 59.3804C210.266 59.2741 210.131 59.1545 209.995 59.0216C209.181 58.2775 208.733 57.467 208.652 56.59C208.571 55.6864 208.706 54.8094 209.059 53.9589C209.412 53.1085 209.914 52.3245 210.565 51.607C211.243 50.8629 211.908 50.2915 212.559 49.8928C213.237 49.4676 213.834 49.255 214.349 49.255C214.865 49.2285 215.163 49.5075 215.245 50.0922C215.353 50.6503 215.163 51.5538 214.675 52.8029C214.187 54.052 213.264 55.7395 211.908 57.8656C212.694 58.4768 213.318 58.9552 213.78 59.3007C214.268 59.6196 214.621 59.8986 214.838 60.1378C215.055 60.377 215.163 60.6029 215.163 60.8155C215.163 61.0281 215.068 61.3205 214.878 61.6925C214.716 62.0646 214.485 62.5695 214.187 63.2073C213.915 63.8186 213.59 64.6291 213.21 65.639C212.884 66.6489 212.83 67.1804 213.047 67.2336C213.264 67.2867 213.617 67.0741 214.105 66.5958C214.621 66.1174 215.218 65.453 215.896 64.6026C216.574 63.7787 217.212 62.9549 217.809 62.131C218.433 61.3072 218.948 60.5896 219.355 59.9784C219.789 59.3671 220.02 59.0482 220.047 59.0216C220.128 58.8622 220.237 58.7692 220.372 58.7426C220.535 58.716 220.671 58.7426 220.779 58.8223C220.915 58.8755 221.01 58.9685 221.064 59.1014C221.118 59.2343 221.105 59.3804 221.023 59.5399C220.671 60.1511 220.155 60.9484 219.477 61.9317C218.799 62.8884 218.066 63.8717 217.279 64.8816C216.818 65.4663 216.357 66.0377 215.896 66.5958C215.435 67.1804 214.96 67.6987 214.472 68.1504C213.983 68.6288 213.495 69.0009 213.006 69.2666C212.545 69.559 212.098 69.7051 211.664 69.7051C211.338 69.7051 211.04 69.5988 210.768 69.3862C210.497 69.1736 210.28 68.8813 210.117 68.5092C209.954 68.1372 209.859 67.6987 209.832 67.1937C209.805 66.6888 209.873 66.144 210.036 65.5593C210.198 64.8949 210.429 64.2837 210.728 63.7256C211.026 63.1675 211.27 62.6492 211.46 62.1709C211.65 61.6659 211.731 61.2142 211.704 60.8155C211.677 60.4169 211.419 60.0448 210.931 59.6993ZM211.216 57.1082C211.569 56.5501 211.881 56.0452 212.152 55.5934C212.45 55.115 212.708 54.6765 212.925 54.2779C213.603 53.0819 214.024 52.2049 214.187 51.6469C214.349 51.0622 214.363 50.7167 214.227 50.6104C214.119 50.5307 213.929 50.5838 213.658 50.7698C213.413 50.9559 213.129 51.2349 212.803 51.607C212.505 51.979 212.193 52.4176 211.867 52.9225C211.569 53.4009 211.324 53.8925 211.134 54.3975C210.945 54.9024 210.836 55.394 210.809 55.8724C210.809 56.3508 210.945 56.7627 211.216 57.1082Z" fill="url(#paint45_linear_163_1542)"/>
<path d="M231.078 43.5545C230.536 43.7671 229.979 44.0063 229.41 44.2721C228.867 44.5112 228.324 44.8036 227.782 45.1491C226.995 45.654 226.262 46.2254 225.584 46.8632C224.933 47.501 224.39 48.2053 223.956 48.976C223.522 49.7201 223.224 50.5307 223.061 51.4077C222.925 52.2581 222.993 53.1351 223.265 54.0387C223.319 54.1981 223.292 54.3443 223.183 54.4772C223.102 54.6101 222.98 54.7031 222.817 54.7562C222.654 54.8094 222.505 54.7961 222.369 54.7164C222.234 54.6366 222.139 54.517 222.084 54.3576C221.786 53.2946 221.705 52.2714 221.84 51.2881C222.003 50.3048 222.329 49.3746 222.817 48.4976C223.305 47.6206 223.929 46.8233 224.689 46.1058C225.449 45.3617 226.262 44.7106 227.131 44.1525C227.89 43.6741 228.731 43.2356 229.654 42.837C230.603 42.4383 231.566 42.1593 232.543 41.9998C233.683 41.8138 234.646 41.8537 235.433 42.1194C236.219 42.3852 236.83 42.7971 237.264 43.3552C237.698 43.9133 237.956 44.5644 238.037 45.3085C238.146 46.0526 238.078 46.8233 237.834 47.6206C237.617 48.4179 237.237 49.1886 236.694 49.9327C236.151 50.6768 235.46 51.3147 234.619 51.8462C235.568 52.2714 236.233 52.8826 236.613 53.6799C237.02 54.4772 237.196 55.3542 237.142 56.3109C237.115 57.2676 236.884 58.2509 236.45 59.2608C236.043 60.2707 235.487 61.2009 234.781 62.0513C234.103 62.9017 233.316 63.6193 232.421 64.2039C231.526 64.7886 230.59 65.1341 229.613 65.2404C229.206 65.2935 228.704 65.3201 228.107 65.3201C227.51 65.3201 226.954 65.2935 226.439 65.2404L225.95 66.9545C225.923 67.0343 225.733 67.0608 225.381 67.0343C225.028 67.0077 224.662 66.9147 224.282 66.7552C223.902 66.5958 223.563 66.3699 223.265 66.0775C222.993 65.8118 222.925 65.453 223.061 65.0012C224.146 61.4135 225.408 57.8124 226.846 54.1981C228.284 50.5572 229.694 47.0094 231.078 43.5545ZM226.968 63.4465C227.728 63.5263 228.487 63.3535 229.247 62.9283C230.006 62.4765 230.685 61.8918 231.282 61.1743C231.878 60.4567 232.367 59.6595 232.747 58.7825C233.126 57.9055 233.343 57.055 233.398 56.2312C233.452 55.4073 233.289 54.6765 232.909 54.0387C232.557 53.3743 231.933 52.9225 231.037 52.6833L226.968 63.4465ZM231.933 50.4509C233.154 50.3446 234.076 49.9593 234.7 49.2949C235.324 48.6039 235.717 47.8598 235.88 47.0625C236.07 46.2387 236.057 45.4813 235.839 44.7903C235.622 44.0993 235.27 43.6874 234.781 43.5545C234.727 43.5545 234.564 43.8867 234.293 44.5511C234.022 45.1889 233.723 45.9198 233.398 46.7436C233.072 47.5675 232.76 48.3514 232.462 49.0956C232.19 49.8397 232.014 50.2915 231.933 50.4509Z" fill="url(#paint46_linear_163_1542)"/>
<path d="M244.603 54.4772C244.386 55.1947 244.088 56.0053 243.708 56.9089C243.355 57.7859 243.03 58.6363 242.731 59.4601C242.46 60.2574 242.284 60.9617 242.202 61.5729C242.121 62.1576 242.257 62.4898 242.609 62.5695C242.881 62.6492 243.233 62.5429 243.667 62.2506C244.101 61.9583 244.522 61.6128 244.929 61.2141C245.363 60.7889 245.77 60.3637 246.15 59.9385C246.53 59.5133 246.801 59.2077 246.964 59.0216C247.099 58.8888 247.235 58.8356 247.371 58.8622C247.533 58.8622 247.655 58.9153 247.737 59.0216C247.845 59.1279 247.9 59.2608 247.9 59.4203C247.927 59.5532 247.873 59.6993 247.737 59.8588C247.276 60.3106 246.801 60.8155 246.313 61.3736C245.824 61.9051 245.309 62.3968 244.766 62.8486C244.223 63.3004 243.654 63.6724 243.057 63.9647C242.487 64.2305 241.877 64.3235 241.226 64.2438C240.629 64.1906 240.181 64.0179 239.883 63.7256C239.611 63.4067 239.435 63.0213 239.354 62.5695C239.272 62.0912 239.286 61.5463 239.394 60.9351C239.476 60.3239 239.611 59.686 239.801 59.0216C240.018 58.2509 240.276 57.4138 240.574 56.5102C240.9 55.6066 241.361 54.4107 241.958 52.9225C242.338 52.763 242.731 52.6567 243.138 52.6036C243.545 52.5239 243.884 52.5371 244.156 52.6434C244.454 52.7232 244.644 52.9092 244.725 53.2015C244.834 53.4939 244.793 53.9191 244.603 54.4772ZM243.83 48.976C244.21 48.7634 244.576 48.7235 244.929 48.8564C245.309 48.9893 245.58 49.2152 245.743 49.5341C245.933 49.853 245.987 50.2118 245.906 50.6104C245.824 51.009 245.526 51.3811 245.01 51.7266C244.658 51.9658 244.278 52.0189 243.871 51.886C243.491 51.7532 243.193 51.5273 242.976 51.2084C242.758 50.8894 242.691 50.5307 242.772 50.132C242.853 49.7068 243.206 49.3215 243.83 48.976Z" fill="url(#paint47_linear_163_1542)"/>
<path d="M249.234 63.606C249.532 63.6857 249.939 63.5262 250.455 63.1276C250.97 62.729 251.486 62.2639 252.001 61.7324C252.544 61.1743 253.046 60.6295 253.507 60.098C253.968 59.5665 254.28 59.2077 254.443 59.0216C254.578 58.8888 254.714 58.8356 254.85 58.8622C255.012 58.8622 255.135 58.9153 255.216 59.0216C255.324 59.1014 255.379 59.221 255.379 59.3804C255.406 59.5399 255.352 59.686 255.216 59.8189C254.755 60.2973 254.266 60.8421 253.751 61.4533C253.235 62.0646 252.679 62.6492 252.082 63.2073C251.513 63.7389 250.916 64.1906 250.292 64.5627C249.668 64.9348 249.017 65.1208 248.338 65.1208C247.769 65.1208 247.335 64.9481 247.036 64.6026C246.738 64.2837 246.561 63.8452 246.507 63.2871C246.426 62.7024 246.439 62.0513 246.548 61.3337C246.629 60.5896 246.765 59.8189 246.955 59.0216C247.28 57.6397 247.714 56.1249 248.257 54.4772C248.8 52.8029 249.383 51.1153 250.007 49.4145C250.631 47.6871 251.268 45.9995 251.92 44.3518C252.598 42.7041 253.235 41.2025 253.832 39.8472C254.429 38.4652 254.958 37.2826 255.419 36.2993C255.881 35.316 256.22 34.625 256.437 34.2264C257.332 32.7116 258.322 31.6884 259.408 31.1569C260.52 30.6254 261.51 30.4925 262.378 30.7582C263.274 31.024 263.925 31.6618 264.332 32.6717C264.766 33.6816 264.752 34.9705 264.291 36.5385C263.884 37.8939 263.233 39.3157 262.338 40.8039C261.442 42.2922 260.439 43.7007 259.326 45.0295C258.214 46.3317 257.061 47.4877 255.867 48.4976C254.673 49.4809 253.561 50.1586 252.53 50.5307C252.422 50.8496 252.232 51.3944 251.96 52.1651C251.716 52.9092 251.431 53.7596 251.106 54.7164C250.807 55.6465 250.509 56.6298 250.21 57.6663C249.912 58.7027 249.654 59.6595 249.437 60.5365C249.247 61.3869 249.112 62.1044 249.03 62.6891C248.976 63.2472 249.044 63.5528 249.234 63.606ZM258.756 36.4189C258.16 37.5617 257.59 38.7177 257.047 39.887C256.505 41.0298 255.989 42.1593 255.501 43.2755C255.04 44.3651 254.606 45.4015 254.199 46.3848C253.792 47.3681 253.425 48.2584 253.1 49.0557C254.022 48.5508 254.999 47.8332 256.03 46.9031C257.061 45.9463 258.037 44.8833 258.96 43.714C259.909 42.5446 260.751 41.3221 261.483 40.0465C262.216 38.7709 262.772 37.5749 263.152 36.4588C263.531 35.316 263.626 34.439 263.436 33.8278C263.274 33.2165 262.948 32.8976 262.46 32.871C261.971 32.8444 261.388 33.1235 260.71 33.7082C260.032 34.2928 259.38 35.1964 258.756 36.4189Z" fill="url(#paint48_linear_163_1542)"/>
<path d="M259.447 63.606C259.746 63.6857 260.153 63.5262 260.668 63.1276C261.184 62.729 261.699 62.2639 262.215 61.7324C262.757 61.1743 263.259 60.6295 263.72 60.098C264.182 59.5665 264.494 59.2077 264.656 59.0216C264.792 58.8888 264.928 58.8356 265.063 58.8622C265.226 58.8622 265.348 58.9153 265.43 59.0216C265.538 59.1014 265.592 59.221 265.592 59.3804C265.619 59.5399 265.565 59.686 265.43 59.8189C264.968 60.2973 264.48 60.8421 263.965 61.4533C263.449 62.0646 262.893 62.6492 262.296 63.2073C261.726 63.7389 261.129 64.1906 260.505 64.5627C259.881 64.9348 259.23 65.1208 258.552 65.1208C257.982 65.1208 257.548 64.9481 257.25 64.6026C256.951 64.2837 256.775 63.8452 256.721 63.2871C256.639 62.7024 256.653 62.0513 256.761 61.3337C256.843 60.5896 256.978 59.8189 257.168 59.0216C257.494 57.6397 257.928 56.1249 258.471 54.4772C259.013 52.8029 259.597 51.1153 260.221 49.4145C260.845 47.6871 261.482 45.9995 262.133 44.3518C262.811 42.7041 263.449 41.2025 264.046 39.8472C264.643 38.4652 265.172 37.2826 265.633 36.2993C266.094 35.316 266.433 34.625 266.65 34.2264C267.546 32.7116 268.536 31.6884 269.621 31.1569C270.734 30.6254 271.724 30.4925 272.592 30.7582C273.487 31.024 274.138 31.6618 274.545 32.6717C274.979 33.6816 274.966 34.9705 274.505 36.5385C274.098 37.8939 273.447 39.3157 272.551 40.8039C271.656 42.2922 270.652 43.7007 269.54 45.0295C268.427 46.3317 267.274 47.4877 266.081 48.4976C264.887 49.4809 263.775 50.1586 262.744 50.5307C262.635 50.8496 262.445 51.3944 262.174 52.1651C261.93 52.9092 261.645 53.7596 261.319 54.7164C261.021 55.6465 260.722 56.6298 260.424 57.6663C260.126 58.7027 259.868 59.6595 259.651 60.5365C259.461 61.3869 259.325 62.1044 259.244 62.6891C259.19 63.2472 259.257 63.5528 259.447 63.606ZM268.97 36.4189C268.373 37.5617 267.803 38.7177 267.261 39.887C266.718 41.0298 266.203 42.1593 265.714 43.2755C265.253 44.3651 264.819 45.4015 264.412 46.3848C264.005 47.3681 263.639 48.2584 263.313 49.0557C264.236 48.5508 265.213 47.8332 266.243 46.9031C267.274 45.9463 268.251 44.8833 269.174 43.714C270.123 42.5446 270.964 41.3221 271.697 40.0465C272.429 38.7709 272.985 37.5749 273.365 36.4588C273.745 35.316 273.84 34.439 273.65 33.8278C273.487 33.2165 273.162 32.8976 272.673 32.871C272.185 32.8444 271.602 33.1235 270.923 33.7082C270.245 34.2928 269.594 35.1964 268.97 36.4189Z" fill="url(#paint49_linear_163_1542)"/>
<path d="M266.064 69.5855C265.332 69.5855 264.83 69.3198 264.558 68.7883C264.287 68.2833 264.219 67.6987 264.355 67.0343C264.463 66.3964 264.762 65.7586 265.25 65.1208C265.766 64.5096 266.43 64.0843 267.244 63.8452C267.109 63.3668 266.919 62.9283 266.675 62.5297C266.458 62.1044 266.227 61.7058 265.983 61.3337C265.739 60.9351 265.494 60.5498 265.25 60.1777C265.006 59.8056 264.803 59.4203 264.64 59.0216C263.989 57.6663 263.65 56.4172 263.622 55.2745C263.595 54.1317 263.758 53.1351 264.111 52.2847C264.463 51.4077 264.938 50.7034 265.535 50.1719C266.159 49.6138 266.77 49.255 267.366 49.0956C267.99 48.9095 268.547 48.9361 269.035 49.1753C269.523 49.4145 269.822 49.8928 269.93 50.6104C270.039 51.3279 269.903 52.2847 269.523 53.4806C269.143 54.6765 268.384 56.1647 267.244 57.9453C267.651 58.6363 268.153 59.4469 268.75 60.377C269.347 61.2806 269.795 62.1842 270.093 63.0877C270.771 62.7954 271.327 62.3702 271.762 61.8121C272.223 61.254 272.616 60.7092 272.942 60.1777C273.267 59.6462 273.566 59.221 273.837 58.9021C274.108 58.5831 274.393 58.5167 274.692 58.7027C275.017 58.8888 275.085 59.1545 274.895 59.5C274.19 60.5896 273.484 61.5729 272.779 62.4499C272.101 63.3269 271.287 63.9382 270.337 64.2837C270.364 64.8418 270.283 65.4264 270.093 66.0377C269.93 66.6755 269.659 67.2469 269.279 67.7518C268.926 68.2833 268.479 68.7218 267.936 69.0673C267.394 69.4128 266.77 69.5855 266.064 69.5855ZM266.593 56.6298C267.109 55.7528 267.516 54.9821 267.814 54.3177C268.14 53.6533 268.384 53.0554 268.547 52.5239C268.845 51.5937 268.94 50.9293 268.831 50.5307C268.723 50.1055 268.519 49.8928 268.221 49.8928C267.923 49.8928 267.583 50.0922 267.204 50.4908C266.824 50.8629 266.525 51.3678 266.308 52.0056C266.091 52.6169 265.983 53.3211 265.983 54.1184C266.01 54.8891 266.213 55.7262 266.593 56.6298ZM265.82 68.1106C266.064 68.1106 266.295 67.991 266.512 67.7518C266.729 67.5126 266.905 67.2336 267.041 66.9147C267.204 66.5958 267.312 66.2636 267.366 65.9181C267.421 65.5992 267.421 65.3334 267.366 65.1208C266.824 65.36 266.417 65.6523 266.146 65.9978C265.901 66.3433 265.739 66.6755 265.657 66.9944C265.576 67.3133 265.562 67.5791 265.616 67.7917C265.671 68.0043 265.739 68.1106 265.82 68.1106Z" fill="url(#paint50_linear_163_1542)"/>
<defs>
<linearGradient id="paint0_linear_163_1542" x1="35.6922" y1="3.01645" x2="66.6507" y2="3.01645" gradientUnits="userSpaceOnUse">
<stop stop-color="#455A64"/>
<stop offset="1" stop-color="#455A64"/>
</linearGradient>
<linearGradient id="paint1_linear_163_1542" x1="35.6444" y1="97.9836" x2="66.6029" y2="97.9836" gradientUnits="userSpaceOnUse">
<stop stop-color="#90D7C9"/>
<stop offset="1" stop-color="#90D7C9"/>
</linearGradient>
<linearGradient id="paint2_linear_163_1542" x1="6.09333" y1="27.7373" x2="27.9113" y2="6.08589" gradientUnits="userSpaceOnUse">
<stop stop-color="#69898E"/>
<stop offset="0.725" stop-color="#496069"/>
<stop offset="0.79" stop-color="#465C65"/>
<stop offset="1" stop-color="#455A64"/>
</linearGradient>
<linearGradient id="paint3_linear_163_1542" x1="6.09479" y1="73.152" x2="27.5268" y2="95.1747" gradientUnits="userSpaceOnUse">
<stop stop-color="#C1FAF4"/>
<stop offset="0.25" stop-color="#ACEBE2"/>
<stop offset="0.5" stop-color="#9ADED3"/>
<stop offset="0.75" stop-color="#99DED2"/>
<stop offset="1" stop-color="#99DED2"/>
</linearGradient>
<linearGradient id="paint4_linear_163_1542" x1="97.5688" y1="73.152" x2="76.1368" y2="95.1747" gradientUnits="userSpaceOnUse">
<stop stop-color="#C1FAF4"/>
<stop offset="0.25" stop-color="#ACEBE2"/>
<stop offset="0.5" stop-color="#9ADED3"/>
<stop offset="0.75" stop-color="#99DED2"/>
<stop offset="1" stop-color="#99DED2"/>
</linearGradient>
<linearGradient id="paint5_linear_163_1542" x1="97.5688" y1="28.0773" x2="76.1368" y2="6.05455" gradientUnits="userSpaceOnUse">
<stop stop-color="#69898E"/>
<stop offset="0.635" stop-color="#496069"/>
<stop offset="0.765" stop-color="#465C65"/>
<stop offset="1" stop-color="#455A64"/>
</linearGradient>
<linearGradient id="paint6_linear_163_1542" x1="3.06057" y1="35.1437" x2="3.19692" y2="65.6553" gradientUnits="userSpaceOnUse">
<stop offset="0.16" stop-color="#86AFB0"/>
<stop offset="0.18" stop-color="#8DB6B7"/>
<stop offset="0.34" stop-color="#8AB3B4"/>
<stop offset="0.825" stop-color="#B3E8E3"/>
<stop offset="1" stop-color="#B9EFEA"/>
</linearGradient>
<linearGradient id="paint7_linear_163_1542" x1="99.9498" y1="35.1437" x2="99.8135" y2="65.6553" gradientUnits="userSpaceOnUse">
<stop offset="0.16" stop-color="#86AFB0"/>
<stop offset="0.18" stop-color="#8DB6B7"/>
<stop offset="0.34" stop-color="#8AB3B4"/>
<stop offset="0.825" stop-color="#B3E8E3"/>
<stop offset="1" stop-color="#B9EFEA"/>
</linearGradient>
<linearGradient id="paint8_linear_163_1542" x1="27.1656" y1="7.54831" x2="37.1407" y2="24.8102" gradientUnits="userSpaceOnUse">
<stop offset="0.295" stop-color="#455A64"/>
<stop offset="0.345" stop-color="#495F68"/>
<stop offset="1" stop-color="#66858A"/>
</linearGradient>
<linearGradient id="paint9_linear_163_1542" x1="27.4187" y1="4.63257" x2="27.4187" y2="12.3535" gradientUnits="userSpaceOnUse">
<stop stop-color="#455A64"/>
<stop offset="0.45" stop-color="#455A64"/>
<stop offset="1" stop-color="#455A64"/>
</linearGradient>
<linearGradient id="paint10_linear_163_1542" x1="5.03945" y1="65.129" x2="23.6914" y2="57.6009" gradientUnits="userSpaceOnUse">
<stop stop-color="#B9EFEA"/>
<stop offset="0.345" stop-color="#B7EEE8"/>
<stop offset="1" stop-color="#B0E4E0"/>
</linearGradient>
<linearGradient id="paint11_linear_163_1542" x1="5.09207" y1="60.6086" x2="5.09207" y2="68.3296" gradientUnits="userSpaceOnUse">
<stop stop-color="#B1E5E1"/>
<stop offset="0.0001" stop-color="#B2E7E2"/>
<stop offset="1" stop-color="#C5FFF8"/>
</linearGradient>
<linearGradient id="paint12_linear_163_1542" x1="76.1732" y1="93.7223" x2="65.3307" y2="76.976" gradientUnits="userSpaceOnUse">
<stop stop-color="#92D9CC"/>
<stop offset="0.345" stop-color="#99DED2"/>
<stop offset="1" stop-color="#B0E4E0"/>
</linearGradient>
<linearGradient id="paint13_linear_163_1542" x1="75.2057" y1="88.7905" x2="75.2057" y2="96.5114" gradientUnits="userSpaceOnUse">
<stop offset="0.515" stop-color="#98DDD1"/>
<stop offset="0.635" stop-color="#8BD3C5"/>
<stop offset="1" stop-color="#98DDD1"/>
</linearGradient>
<linearGradient id="paint14_linear_163_1542" x1="75.2057" y1="88.7905" x2="75.2057" y2="96.5114" gradientUnits="userSpaceOnUse">
<stop offset="0.515" stop-color="#98DDD1"/>
<stop offset="0.635" stop-color="#8BD3C5"/>
<stop offset="1" stop-color="#98DDD1"/>
</linearGradient>
<linearGradient id="paint15_linear_163_1542" x1="75.2057" y1="88.7905" x2="75.2057" y2="96.5114" gradientUnits="userSpaceOnUse">
<stop offset="0.515" stop-color="#98DDD1"/>
<stop offset="0.635" stop-color="#8BD3C5"/>
<stop offset="1" stop-color="#98DDD1"/>
</linearGradient>
<linearGradient id="paint16_linear_163_1542" x1="27.5043" y1="93.7223" x2="38.3468" y2="76.976" gradientUnits="userSpaceOnUse">
<stop stop-color="#92D9CC"/>
<stop offset="0.345" stop-color="#99DED2"/>
<stop offset="1" stop-color="#B0E4E0"/>
</linearGradient>
<linearGradient id="paint17_linear_163_1542" x1="28.2021" y1="88.7905" x2="28.2021" y2="96.5114" gradientUnits="userSpaceOnUse">
<stop offset="0.515" stop-color="#98DDD1"/>
<stop offset="0.635" stop-color="#8BD3C5"/>
<stop offset="1" stop-color="#98DDD1"/>
</linearGradient>
<linearGradient id="paint18_linear_163_1542" x1="28.2021" y1="88.7905" x2="28.2021" y2="96.5114" gradientUnits="userSpaceOnUse">
<stop offset="0.515" stop-color="#98DDD1"/>
<stop offset="0.635" stop-color="#8BD3C5"/>
<stop offset="1" stop-color="#98DDD1"/>
</linearGradient>
<linearGradient id="paint19_linear_163_1542" x1="28.2021" y1="88.7905" x2="28.2021" y2="96.5114" gradientUnits="userSpaceOnUse">
<stop offset="0.515" stop-color="#98DDD1"/>
<stop offset="0.635" stop-color="#8BD3C5"/>
<stop offset="1" stop-color="#98DDD1"/>
</linearGradient>
<linearGradient id="paint20_linear_163_1542" x1="5.03945" y1="36.9399" x2="23.6914" y2="44.4681" gradientUnits="userSpaceOnUse">
<stop offset="0.205" stop-color="#82AAAB"/>
<stop offset="0.345" stop-color="#80A9AA"/>
<stop offset="1" stop-color="#66858A"/>
</linearGradient>
<linearGradient id="paint21_linear_163_1542" x1="5.09207" y1="33.1996" x2="5.09207" y2="40.9205" gradientUnits="userSpaceOnUse">
<stop offset="0.115" stop-color="#66858B"/>
<stop offset="0.325" stop-color="#83AAAC"/>
<stop offset="0.505" stop-color="#85ADAE"/>
<stop offset="0.69" stop-color="#7DA5A6"/>
<stop offset="1" stop-color="#8DB7B8"/>
</linearGradient>
<linearGradient id="paint22_linear_163_1542" x1="99.364" y1="36.9399" x2="80.712" y2="44.4681" gradientUnits="userSpaceOnUse">
<stop offset="0.205" stop-color="#82AAAB"/>
<stop offset="0.345" stop-color="#80A9AA"/>
<stop offset="1" stop-color="#66858A"/>
</linearGradient>
<linearGradient id="paint23_linear_163_1542" x1="98.7077" y1="33.1996" x2="98.7077" y2="40.9205" gradientUnits="userSpaceOnUse">
<stop offset="0.115" stop-color="#66858B"/>
<stop offset="0.325" stop-color="#83AAAC"/>
<stop offset="0.505" stop-color="#85ADAE"/>
<stop offset="0.69" stop-color="#7DA5A6"/>
<stop offset="1" stop-color="#8DB7B8"/>
</linearGradient>
<linearGradient id="paint24_linear_163_1542" x1="76.5291" y1="7.54831" x2="66.554" y2="24.8102" gradientUnits="userSpaceOnUse">
<stop offset="0.295" stop-color="#455A64"/>
<stop offset="0.345" stop-color="#495F68"/>
<stop offset="1" stop-color="#66858A"/>
</linearGradient>
<linearGradient id="paint25_linear_163_1542" x1="75.9891" y1="4.63257" x2="75.9891" y2="12.3535" gradientUnits="userSpaceOnUse">
<stop stop-color="#455A64"/>
<stop offset="0.45" stop-color="#455A64"/>
<stop offset="1" stop-color="#455A64"/>
</linearGradient>
<linearGradient id="paint26_linear_163_1542" x1="99.364" y1="64.7429" x2="80.712" y2="57.2148" gradientUnits="userSpaceOnUse">
<stop stop-color="#B9EFEA"/>
<stop offset="0.345" stop-color="#B7EEE8"/>
<stop offset="1" stop-color="#B0E4E0"/>
</linearGradient>
<linearGradient id="paint27_linear_163_1542" x1="98.7077" y1="60.6086" x2="98.7077" y2="68.3296" gradientUnits="userSpaceOnUse">
<stop stop-color="#B1E5E1"/>
<stop offset="0.0001" stop-color="#B2E7E2"/>
<stop offset="1" stop-color="#C5FFF8"/>
</linearGradient>
<linearGradient id="paint28_linear_163_1542" x1="33.6295" y1="63.6976" x2="33.6295" y2="70.1021" gradientUnits="userSpaceOnUse">
<stop offset="0.155" stop-color="#66858B"/>
<stop offset="0.355" stop-color="#83AAAC"/>
<stop offset="0.555" stop-color="#85ADAE"/>
<stop offset="0.785" stop-color="#7DA5A6"/>
<stop offset="0.99" stop-color="#87AFB0"/>
</linearGradient>
<linearGradient id="paint29_linear_163_1542" x1="33.5435" y1="70.5639" x2="33.7984" y2="64.2448" gradientUnits="userSpaceOnUse">
<stop offset="0.155" stop-color="#66858B"/>
<stop offset="0.355" stop-color="#83AAAC"/>
<stop offset="0.555" stop-color="#85ADAE"/>
<stop offset="0.785" stop-color="#7DA5A6"/>
<stop offset="0.99" stop-color="#87AFB0"/>
</linearGradient>
<linearGradient id="paint30_linear_163_1542" x1="66.1967" y1="64.4696" x2="66.1967" y2="70.6463" gradientUnits="userSpaceOnUse">
<stop offset="0.155" stop-color="#66858B"/>
<stop offset="0.355" stop-color="#83AAAC"/>
<stop offset="0.555" stop-color="#85ADAE"/>
<stop offset="0.785" stop-color="#7DA5A6"/>
<stop offset="0.99" stop-color="#87AFB0"/>
</linearGradient>
<linearGradient id="paint31_linear_163_1542" x1="71.4847" y1="50.5723" x2="71.4847" y2="54.8188" gradientUnits="userSpaceOnUse">
<stop offset="0.155" stop-color="#66858B"/>
<stop offset="0.355" stop-color="#83AAAC"/>
<stop offset="0.555" stop-color="#85ADAE"/>
<stop offset="0.785" stop-color="#7DA5A6"/>
<stop offset="0.99" stop-color="#87AFB0"/>
</linearGradient>
<linearGradient id="paint32_linear_163_1542" x1="32.1191" y1="31.6554" x2="32.1191" y2="37.8321" gradientUnits="userSpaceOnUse">
<stop offset="0.155" stop-color="#66858B"/>
<stop offset="0.355" stop-color="#83AAAC"/>
<stop offset="0.555" stop-color="#85ADAE"/>
<stop offset="0.785" stop-color="#7DA5A6"/>
<stop offset="0.99" stop-color="#87AFB0"/>
</linearGradient>
<linearGradient id="paint33_linear_163_1542" x1="68.1552" y1="31.6554" x2="68.1552" y2="37.8321" gradientUnits="userSpaceOnUse">
<stop offset="0.155" stop-color="#66858B"/>
<stop offset="0.355" stop-color="#83AAAC"/>
<stop offset="0.555" stop-color="#85ADAE"/>
<stop offset="0.785" stop-color="#7DA5A6"/>
<stop offset="0.99" stop-color="#87AFB0"/>
</linearGradient>
<linearGradient id="paint34_linear_163_1542" x1="30.3565" y1="50.5723" x2="30.3565" y2="54.8188" gradientUnits="userSpaceOnUse">
<stop offset="0.155" stop-color="#66858B"/>
<stop offset="0.355" stop-color="#83AAAC"/>
<stop offset="0.555" stop-color="#85ADAE"/>
<stop offset="0.785" stop-color="#7DA5A6"/>
<stop offset="0.99" stop-color="#87AFB0"/>
</linearGradient>
<linearGradient id="paint35_linear_163_1542" x1="28.1815" y1="20.5452" x2="16.2949" y2="35.3123" gradientUnits="userSpaceOnUse">
<stop stop-color="#455A64"/>
<stop offset="1" stop-color="#638086"/>
</linearGradient>
<linearGradient id="paint36_linear_163_1542" x1="28.1815" y1="82.2409" x2="16.2949" y2="67.4738" gradientUnits="userSpaceOnUse">
<stop stop-color="#455A64"/>
<stop offset="1" stop-color="#638086"/>
</linearGradient>
<linearGradient id="paint37_linear_163_1542" x1="75.2308" y1="82.2409" x2="87.1174" y2="67.4738" gradientUnits="userSpaceOnUse">
<stop stop-color="#455A64"/>
<stop offset="1" stop-color="#638086"/>
</linearGradient>
<linearGradient id="paint38_linear_163_1542" x1="76.0142" y1="20.5452" x2="87.9007" y2="35.3123" gradientUnits="userSpaceOnUse">
<stop stop-color="#455A64"/>
<stop offset="1" stop-color="#638086"/>
</linearGradient>
<linearGradient id="paint39_linear_163_1542" x1="188.005" y1="4.36016" x2="187.598" y2="115.439" gradientUnits="userSpaceOnUse">
<stop offset="0.18406" stop-color="#B8EEE9"/>
<stop offset="0.315" stop-color="#B4E9E4"/>
<stop offset="0.455" stop-color="#88B0B1"/>
<stop offset="0.615732" stop-color="#455A64"/>
</linearGradient>
<linearGradient id="paint40_linear_163_1542" x1="188.005" y1="4.36016" x2="187.598" y2="115.439" gradientUnits="userSpaceOnUse">
<stop offset="0.18406" stop-color="#B8EEE9"/>
<stop offset="0.315" stop-color="#B4E9E4"/>
<stop offset="0.455" stop-color="#88B0B1"/>
<stop offset="0.615732" stop-color="#455A64"/>
</linearGradient>
<linearGradient id="paint41_linear_163_1542" x1="188.005" y1="4.36016" x2="187.598" y2="115.439" gradientUnits="userSpaceOnUse">
<stop offset="0.18406" stop-color="#B8EEE9"/>
<stop offset="0.315" stop-color="#B4E9E4"/>
<stop offset="0.455" stop-color="#88B0B1"/>
<stop offset="0.615732" stop-color="#455A64"/>
</linearGradient>
<linearGradient id="paint42_linear_163_1542" x1="188.005" y1="4.36016" x2="187.598" y2="115.439" gradientUnits="userSpaceOnUse">
<stop offset="0.18406" stop-color="#B8EEE9"/>
<stop offset="0.315" stop-color="#B4E9E4"/>
<stop offset="0.455" stop-color="#88B0B1"/>
<stop offset="0.615732" stop-color="#455A64"/>
</linearGradient>
<linearGradient id="paint43_linear_163_1542" x1="188.005" y1="4.36016" x2="187.598" y2="115.439" gradientUnits="userSpaceOnUse">
<stop offset="0.18406" stop-color="#B8EEE9"/>
<stop offset="0.315" stop-color="#B4E9E4"/>
<stop offset="0.455" stop-color="#88B0B1"/>
<stop offset="0.615732" stop-color="#455A64"/>
</linearGradient>
<linearGradient id="paint44_linear_163_1542" x1="188.005" y1="4.36016" x2="187.598" y2="115.439" gradientUnits="userSpaceOnUse">
<stop offset="0.18406" stop-color="#B8EEE9"/>
<stop offset="0.315" stop-color="#B4E9E4"/>
<stop offset="0.455" stop-color="#88B0B1"/>
<stop offset="0.615732" stop-color="#455A64"/>
</linearGradient>
<linearGradient id="paint45_linear_163_1542" x1="188.005" y1="4.36016" x2="187.598" y2="115.439" gradientUnits="userSpaceOnUse">
<stop offset="0.18406" stop-color="#B8EEE9"/>
<stop offset="0.315" stop-color="#B4E9E4"/>
<stop offset="0.455" stop-color="#88B0B1"/>
<stop offset="0.615732" stop-color="#455A64"/>
</linearGradient>
<linearGradient id="paint46_linear_163_1542" x1="188.005" y1="4.36016" x2="187.598" y2="115.439" gradientUnits="userSpaceOnUse">
<stop offset="0.18406" stop-color="#B8EEE9"/>
<stop offset="0.315" stop-color="#B4E9E4"/>
<stop offset="0.455" stop-color="#88B0B1"/>
<stop offset="0.615732" stop-color="#455A64"/>
</linearGradient>
<linearGradient id="paint47_linear_163_1542" x1="188.005" y1="4.36016" x2="187.598" y2="115.439" gradientUnits="userSpaceOnUse">
<stop offset="0.18406" stop-color="#B8EEE9"/>
<stop offset="0.315" stop-color="#B4E9E4"/>
<stop offset="0.455" stop-color="#88B0B1"/>
<stop offset="0.615732" stop-color="#455A64"/>
</linearGradient>
<linearGradient id="paint48_linear_163_1542" x1="188.005" y1="4.36016" x2="187.598" y2="115.439" gradientUnits="userSpaceOnUse">
<stop offset="0.18406" stop-color="#B8EEE9"/>
<stop offset="0.315" stop-color="#B4E9E4"/>
<stop offset="0.455" stop-color="#88B0B1"/>
<stop offset="0.615732" stop-color="#455A64"/>
</linearGradient>
<linearGradient id="paint49_linear_163_1542" x1="188.005" y1="4.36016" x2="187.598" y2="115.439" gradientUnits="userSpaceOnUse">
<stop offset="0.18406" stop-color="#B8EEE9"/>
<stop offset="0.315" stop-color="#B4E9E4"/>
<stop offset="0.455" stop-color="#88B0B1"/>
<stop offset="0.615732" stop-color="#455A64"/>
</linearGradient>
<linearGradient id="paint50_linear_163_1542" x1="188.005" y1="4.36016" x2="187.598" y2="115.439" gradientUnits="userSpaceOnUse">
<stop offset="0.18406" stop-color="#B8EEE9"/>
<stop offset="0.315" stop-color="#B4E9E4"/>
<stop offset="0.455" stop-color="#88B0B1"/>
<stop offset="0.615732" stop-color="#455A64"/>
</linearGradient>
</defs>
</svg>
