<svg width="41" height="42" viewBox="0 0 41 42" fill="none" xmlns="http://www.w3.org/2000/svg">
<path fill-rule="evenodd" clip-rule="evenodd" d="M18.5394 1C21.8845 1 24.5962 3.68629 24.5962 7L24.5964 9.34135C25.2278 9.12029 25.9073 9 26.6151 9H34.6908C38.0359 9 40.7476 11.6863 40.7476 15V35C40.7476 38.3137 38.0359 41 34.6908 41H6.42586C3.08079 41 0.36908 38.3137 0.36908 35V7C0.36908 3.68629 3.08079 1 6.42586 1H18.5394ZM18.5394 5H6.42586C5.31084 5 4.40693 5.89543 4.40693 7V35C4.40693 36.1046 5.31084 37 6.42586 37H20.5584V7C20.5584 5.89543 19.6544 5 18.5394 5ZM34.6908 13H26.6151C25.5001 13 24.5962 13.8954 24.5962 15V37H34.6908C35.8059 37 36.7098 36.1046 36.7098 35V15C36.7098 13.8954 35.8059 13 34.6908 13ZM14.5016 25C15.6166 25 16.5205 25.8954 16.5205 27C16.5205 28.1046 15.6166 29 14.5016 29H10.4637C9.34869 29 8.44479 28.1046 8.44479 27C8.44479 25.8954 9.34869 25 10.4637 25H14.5016ZM32.6719 25C33.7869 25 34.6908 25.8954 34.6908 27C34.6908 28.1046 33.7869 29 32.6719 29H28.6341C27.519 29 26.6151 28.1046 26.6151 27C26.6151 25.8954 27.519 25 28.6341 25H32.6719ZM14.5016 17C15.6166 17 16.5205 17.8954 16.5205 19C16.5205 20.1046 15.6166 21 14.5016 21H10.4637C9.34869 21 8.44479 20.1046 8.44479 19C8.44479 17.8954 9.34869 17 10.4637 17H14.5016ZM32.6719 17C33.7869 17 34.6908 17.8954 34.6908 19C34.6908 20.1046 33.7869 21 32.6719 21H28.6341C27.519 21 26.6151 20.1046 26.6151 19C26.6151 17.8954 27.519 17 28.6341 17H32.6719ZM14.5016 9C15.6166 9 16.5205 9.89543 16.5205 11C16.5205 12.1046 15.6166 13 14.5016 13H10.4637C9.34869 13 8.44479 12.1046 8.44479 11C8.44479 9.89543 9.34869 9 10.4637 9H14.5016Z" fill="white" stroke="white" stroke-width="0.3"/>
</svg>
