<svg width="41" height="40" viewBox="0 0 41 40" fill="none" xmlns="http://www.w3.org/2000/svg">
<g clip-path="url(#clip0_163_1533)">
<path d="M9.147 20.2334H3.77918C3.06934 20.2334 2.49402 20.8033 2.49402 21.5065V34.8296C2.49402 35.5328 3.06934 36.1027 3.77918 36.1027H9.147C9.85684 36.1027 10.4322 35.5328 10.4322 34.8296V21.5065C10.4322 20.8033 9.85684 20.2334 9.147 20.2334ZM7.86184 33.5564H5.06434V22.7795H7.86184V33.5564Z" fill="white" stroke="white" stroke-width="0.5"/>
<path d="M19.2521 13.183H13.8844C13.1746 13.183 12.5992 13.7529 12.5992 14.4561V34.8295C12.5992 35.5327 13.1746 36.1026 13.8844 36.1026H19.2522C19.9621 36.1026 20.5374 35.5327 20.5374 34.8295V14.4561C20.5372 13.7531 19.9619 13.183 19.2521 13.183ZM17.9669 33.5564H15.1694V15.7292H17.9669V33.5564Z" fill="white" stroke="white" stroke-width="0.5"/>
<path d="M29.3573 21.2852H23.9894C23.2796 21.2852 22.7043 21.8551 22.7043 22.5583V34.8295C22.7043 35.5327 23.2796 36.1026 23.9894 36.1026H29.3573C30.0671 36.1026 30.6424 35.5327 30.6424 34.8295V22.5583C30.6424 21.8551 30.0671 21.2852 29.3573 21.2852ZM28.0721 33.5564H25.2746V23.8314H28.0721V33.5564Z" fill="white" stroke="white" stroke-width="0.5"/>
<path d="M39.4625 13.6528H34.0945C33.3847 13.6528 32.8094 14.2228 32.8094 14.9259V34.8295C32.8094 35.5327 33.3847 36.1026 34.0945 36.1026H39.4623C40.1722 36.1026 40.7475 35.5327 40.7475 34.8295V14.9259C40.7476 14.2228 40.1722 13.6528 39.4625 13.6528ZM38.1773 33.5564H35.3797V16.1991H38.1772V33.5564H38.1773Z" fill="white" stroke="white" stroke-width="0.5"/>
<path d="M25.9176 15.9558C26.3854 16.2926 27.0227 16.2783 27.4748 15.921L37.0805 8.32728L37.0379 9.57875C37.0141 10.2815 37.5697 10.8704 38.2791 10.894C38.2939 10.8944 38.3085 10.8947 38.3232 10.8947C39.0131 10.8947 39.5835 10.3525 39.6069 9.66447L39.7584 5.21339C39.7703 4.86102 39.6344 4.51955 39.3828 4.2703C39.1311 4.02091 38.7853 3.88568 38.4307 3.89813L33.9375 4.04821C33.2281 4.07184 32.6725 4.66086 32.6964 5.36348C32.7202 6.06609 33.3124 6.61537 34.0241 6.59302L35.2037 6.5537L26.637 13.3261L16.8955 6.31195C16.4688 6.0047 15.8959 5.98688 15.4508 6.2671L0.965216 15.3812C0.366046 15.7581 0.188837 16.5449 0.569387 17.1383C0.814281 17.5203 1.23024 17.7291 1.65535 17.7291C1.89096 17.7291 2.12957 17.6648 2.34319 17.5305L16.091 8.88038L25.9176 15.9558Z" fill="white" stroke="white" stroke-width="0.5"/>
</g>
<defs>
<clipPath id="clip0_163_1533">
<rect width="40.3785" height="40" fill="white" transform="translate(0.36908)"/>
</clipPath>
</defs>
</svg>
