<svg width="41" height="40" viewBox="0 0 41 40" fill="none" xmlns="http://www.w3.org/2000/svg">
<g clip-path="url(#clip0_163_1508)">
<path d="M26.5388 6.72L31.0867 7.91562C31.2053 7.93961 31.3017 8.03562 31.3289 8.15383L32.5279 12.6591C32.5603 12.7913 32.6777 12.8843 32.8143 12.8843C32.9522 12.8843 33.0684 12.7913 33.0994 12.6591L34.3002 8.15383C34.3256 8.0357 34.4226 7.93961 34.5412 7.91562L39.0897 6.72C39.2226 6.69531 39.3171 6.57781 39.3171 6.44242C39.3171 6.30578 39.2226 6.1907 39.0897 6.1643L34.5412 4.96922C34.4226 4.94406 34.3256 4.84922 34.3002 4.73109L33.0994 0.225859C33.0683 0.0947656 32.9521 0 32.8143 0C32.6777 0 32.5602 0.0947656 32.5279 0.225859L31.3289 4.73109C31.3017 4.84922 31.2054 4.94406 31.0867 4.96922L26.5388 6.1643C26.4046 6.19078 26.3114 6.30586 26.3114 6.44242C26.3114 6.57781 26.4046 6.69539 26.5388 6.72Z" fill="white" stroke="white" stroke-width="0.392578"/>
<path d="M31.1904 25.5101L29.1261 24.968C29.0721 24.9557 29.028 24.9138 29.0162 24.8598L28.472 22.8148C28.4577 22.7551 28.4049 22.7126 28.3422 22.7126C28.2807 22.7126 28.2273 22.7551 28.2124 22.8148L27.6682 24.8598C27.6557 24.9139 27.6123 24.9557 27.5583 24.968L25.4946 25.5101C25.4337 25.5219 25.3908 25.5748 25.3908 25.6363C25.3908 25.6979 25.4337 25.7509 25.4946 25.7631L27.5583 26.3047C27.6123 26.3157 27.6557 26.3601 27.6682 26.4142L28.2124 28.4579C28.2273 28.5176 28.2807 28.5601 28.3422 28.5601C28.405 28.5601 28.4577 28.5176 28.472 28.4579L29.0162 26.4142C29.028 26.3601 29.0721 26.3157 29.1261 26.3047L31.1904 25.7631C31.2501 25.7509 31.2936 25.6979 31.2936 25.6363C31.2935 25.5748 31.2501 25.5219 31.1904 25.5101Z" fill="white" stroke="white" stroke-width="0.392578"/>
<path d="M3.79204 10.9433L7.04156 11.7962C7.12721 11.8141 7.19504 11.8825 7.21546 11.9673L8.07145 15.1864C8.09504 15.2818 8.17895 15.3476 8.2765 15.3476C8.37461 15.3476 8.45789 15.2818 8.48092 15.1864L9.33754 11.9673C9.3556 11.8825 9.42579 11.8141 9.51089 11.7962L12.761 10.9433C12.8561 10.9236 12.9237 10.8387 12.9237 10.7427C12.9237 10.6467 12.8561 10.5643 12.761 10.5446L9.51089 9.69035C9.42579 9.67191 9.3556 9.60551 9.33754 9.52051L8.48092 6.29965C8.45789 6.20606 8.37469 6.13965 8.2765 6.13965C8.17903 6.13965 8.09511 6.20606 8.07145 6.29965L7.21546 9.52059C7.19496 9.60551 7.12721 9.67191 7.04156 9.69043L3.79204 10.5446C3.69511 10.5643 3.62863 10.6468 3.62863 10.7428C3.62863 10.8387 3.69511 10.9237 3.79204 10.9433Z" fill="white" stroke="white" stroke-width="0.392578"/>
<path d="M32.0849 21.6326C31.4637 20.9126 30.576 20.2739 29.4815 19.7385H29.4827C27.2997 18.6677 24.3062 18.0124 20.9983 18.0105L20.9889 18.011V18.0105C18.8165 18.011 16.7777 18.2935 15.0154 18.7908C13.253 19.2881 11.7696 19.997 10.7011 20.8585L10.7029 20.8573C9.98918 21.4321 9.46426 22.0733 9.17294 22.7706C9.00638 23.1663 8.91884 23.5835 8.91947 24.0062C8.91947 24.3539 9.20401 24.6364 9.55559 24.6364C9.90724 24.6364 10.1917 24.3539 10.1917 24.0062C10.1923 23.7521 10.2408 23.5103 10.3483 23.2517C10.534 22.8038 10.9136 22.3103 11.5043 21.8364L11.5061 21.8351C12.3858 21.1213 13.7289 20.4616 15.3639 20.0032C16.9989 19.541 18.9284 19.2708 20.9889 19.2714H21.0225C24.1478 19.2721 26.9711 19.9078 28.9168 20.8678L28.9187 20.8684C29.8952 21.3447 30.6487 21.9046 31.1177 22.4511C31.3539 22.725 31.5215 22.9939 31.629 23.2517C31.7632 23.5736 32.1347 23.7263 32.4596 23.5933C32.7845 23.4604 32.9386 23.0924 32.8044 22.7706C32.6384 22.3729 32.3962 21.992 32.0849 21.6326Z" fill="white" stroke="white" stroke-width="0.392578"/>
<path d="M39.1288 21.2473C38.8605 20.6061 38.4934 20.0098 38.0504 19.459C37.6075 18.9089 37.0894 18.403 36.5128 17.9378L36.4775 17.9095L36.5117 17.9378C34.7797 16.5433 32.5005 15.4775 29.8604 14.7292H29.8598C27.2172 13.9852 24.2024 13.5698 20.997 13.5698C18.5544 13.5698 16.2236 13.8111 14.083 14.2547C11.9423 14.6985 9.99171 15.3446 8.30945 16.1679L8.30819 16.1686C6.62783 16.9944 5.19904 18 4.13863 19.2264L4.15788 19.2029L4.138 19.2264C3.60874 19.8406 3.17144 20.5144 2.86513 21.2473C2.55827 21.9808 2.38745 22.7716 2.388 23.5858V29.9821C2.38745 30.7969 2.55827 31.5883 2.86513 32.3218C3.13351 32.963 3.5007 33.5587 3.9436 34.1094C4.38713 34.6602 4.90456 35.1654 5.48098 35.6307L5.48224 35.6313C7.21418 37.0245 9.49273 38.0928 12.1329 38.8398L12.1471 38.8429C14.7868 39.5846 17.7965 39.9994 20.997 40H20.9976C23.4396 39.9994 25.7703 39.7581 27.911 39.3144C30.0517 38.8707 32.0023 38.224 33.6845 37.4012L33.6857 37.4C35.3661 36.574 36.7942 35.5679 37.8553 34.3427L37.8559 34.3415C38.3852 33.7286 38.8218 33.0554 39.1281 32.3219L39.1089 32.3668L39.1288 32.3219C39.435 31.5883 39.6059 30.7969 39.6059 29.9822V23.5858C39.6059 22.7716 39.4351 21.9808 39.1288 21.2473ZM6.55204 33.3132C6.35638 33.1304 6.17373 32.9446 6.01103 32.7569C5.62523 32.3089 5.33571 31.8505 5.1425 31.3889C4.94928 30.9262 4.85243 30.4603 4.85243 29.9822V27.0825C5.22948 27.5434 5.67491 27.9785 6.17869 28.3859C6.29991 28.4825 6.42412 28.5779 6.55204 28.6727V33.3132ZM10.1203 35.5415C9.87491 35.4357 9.63327 35.3273 9.40149 35.2129C8.86166 34.9483 8.36466 34.6658 7.91127 34.3712V29.5527C8.58776 29.9373 9.32696 30.2899 10.1203 30.6075V35.5415ZM14.5389 36.9144C13.4195 36.6799 12.369 36.3864 11.4005 36.0437H11.4807V31.0991C11.7919 31.2012 12.1112 31.2979 12.4367 31.3902C13.1101 31.5797 13.8133 31.7458 14.5389 31.8905V36.9144ZM20.3168 37.5513C18.7774 37.5205 17.2977 37.3815 15.8987 37.1575V32.1262C17.3057 32.3415 18.7855 32.4676 20.3168 32.4972V37.5513ZM26.2654 37.1273C24.8168 37.3667 23.28 37.5169 21.6772 37.5476V32.5002C23.2699 32.4694 24.8087 32.3322 26.2654 32.1033V37.1273ZM30.6841 36.0129C30.2046 36.1852 29.7051 36.3452 29.1851 36.4916C28.6832 36.6332 28.1602 36.7593 27.6247 36.875V31.8572C28.7012 31.6369 29.725 31.3624 30.6841 31.0418V36.0129ZM34.2529 34.2565C33.6094 34.6935 32.8688 35.0997 32.0433 35.4688V30.5372C32.4408 30.374 32.8266 30.2029 33.195 30.0227C33.5634 29.8412 33.9156 29.651 34.2529 29.454V34.2565ZM37.1415 29.9821C37.1415 30.4602 37.0447 30.9262 36.8509 31.3888C36.6024 31.9869 36.1856 32.5821 35.6121 33.1526V28.6024H35.5314C36.0954 28.1759 36.5955 27.7212 37.0161 27.2344C37.0589 27.1846 37.0999 27.1341 37.1415 27.0837V29.9821H37.1415ZM36.8509 24.9914C36.5154 25.7987 35.8755 26.6 34.9562 27.3415C33.5802 28.4541 31.5843 29.4191 29.1852 30.0941C26.7867 30.7711 23.9863 31.1619 20.9971 31.1619C16.443 31.1637 12.3237 30.2511 9.40157 28.8154C7.94052 28.0997 6.78256 27.2554 6.01103 26.3588C5.62523 25.9114 5.33571 25.4529 5.1425 24.9915C4.94928 24.5287 4.85243 24.0634 4.85243 23.5859C4.85243 23.1084 4.94928 22.6432 5.1425 22.1804C5.47925 21.3724 6.11781 20.5712 7.03784 19.8308C8.4145 18.7176 10.4098 17.7521 12.8089 17.077C15.2074 16.4008 18.0084 16.0105 20.9971 16.0105C25.5512 16.008 29.6697 16.9213 32.5919 18.3564C34.0536 19.0715 35.2121 19.917 35.9825 20.8123C36.3688 21.2597 36.6583 21.7182 36.8509 22.1803C37.0448 22.6431 37.1416 23.1083 37.1416 23.5858C37.1416 24.0634 37.0447 24.5286 36.8509 24.9914Z" fill="white" stroke="white" stroke-width="0.392578"/>
</g>
<defs>
<clipPath id="clip0_163_1508">
<rect width="40.3785" height="40" fill="white" transform="translate(0.36908)"/>
</clipPath>
</defs>
</svg>
