<svg width="41" height="40" viewBox="0 0 41 40" fill="none" xmlns="http://www.w3.org/2000/svg">
<path d="M28.9706 32C28.9706 29.2385 25.2043 27 20.5584 27C15.9124 27 12.1462 29.2385 12.1462 32M35.7003 27.0007C35.7003 24.9503 33.624 23.1882 30.653 22.4167M5.41641 27.0007C5.41641 24.9503 7.49271 23.1882 10.4637 22.4167M30.653 15.7268C31.6855 14.8113 32.3354 13.4808 32.3354 12C32.3354 9.23858 30.0758 7 27.2881 7C25.9953 7 24.8163 7.48142 23.9232 8.27315M10.4637 15.7268C9.43113 14.8113 8.78129 13.4808 8.78129 12C8.78129 9.23858 11.0411 7 13.8286 7C15.1213 7 16.3005 7.48142 17.1935 8.27315M20.5584 22C17.7707 22 15.511 19.7615 15.511 17C15.511 14.2386 17.7707 12 20.5584 12C23.346 12 25.6057 14.2386 25.6057 17C25.6057 19.7615 23.346 22 20.5584 22Z" stroke="white" stroke-width="3" stroke-linecap="round" stroke-linejoin="round"/>
</svg>
