<svg width="66" height="72" viewBox="0 0 66 72" fill="none" xmlns="http://www.w3.org/2000/svg">
<path d="M65.8664 23.5784V48.0883C65.8664 52.1017 63.6914 55.8283 60.1751 57.8708L38.6426 70.1617C35.1264 72.1683 30.7764 72.1683 27.2239 70.1617L5.69125 57.8708C2.175 55.8642 0 52.1375 0 48.0883V23.5784C0 19.5651 2.175 15.8383 5.69125 13.7958L27.2239 1.505C30.7401 -0.501667 35.0901 -0.501667 38.6426 1.505L60.1751 13.7958C63.6914 15.8383 65.8664 19.5293 65.8664 23.5784Z" fill="#C5FFF8"/>
<path d="M32.9503 35.8337C37.615 35.8337 41.3966 32.0956 41.3966 27.4843C41.3966 22.8732 37.615 19.1353 32.9503 19.1353C28.2857 19.1353 24.5041 22.8732 24.5041 27.4843C24.5041 32.0956 28.2857 35.8337 32.9503 35.8337Z" fill="#001C2E"/>
<path d="M42.6628 52.532C45.599 52.532 47.3028 49.307 45.6715 46.9062C43.2065 43.287 38.4215 40.8504 32.9478 40.8504C27.474 40.8504 22.689 43.287 20.224 46.9062C18.5927 49.307 20.2965 52.532 23.2327 52.532H42.6628Z" fill="#001C2E"/>
<circle cx="44.5" cy="48.5" r="5.25" fill="#001C2E" stroke="#C5FFF8" stroke-width="1.5"/>
<line x1="44.5" y1="46" x2="44.5" y2="51" stroke="#C5FFF8" stroke-linecap="round"/>
<line x1="47" y1="48.5" x2="42" y2="48.5" stroke="#C5FFF8" stroke-linecap="round"/>
</svg>
