<svg width="549" height="539" viewBox="0 0 549 539" fill="none" xmlns="http://www.w3.org/2000/svg">
<g clip-path="url(#clip0_12_198)">
<path opacity="0.1" d="M247.78 539C353.289 539 438.82 526.619 438.82 511.345C438.82 496.072 353.289 483.69 247.78 483.69C142.271 483.69 56.7396 496.072 56.7396 511.345C56.7396 526.619 142.271 539 247.78 539Z" fill="#18AEBF"/>
<path d="M294.929 140.964C294.929 140.964 289.015 128.475 289.813 124.763C290.611 121.05 285.652 113.121 285.652 113.121L285.973 99.9662C285.973 99.9662 285.288 101.311 281.718 102.488C281.416 102.065 281.09 101.648 280.75 101.251C279.458 99.8102 278.02 98.5268 276.464 97.424L270.179 82.9106L264.102 72.9503C264.102 72.9503 254.517 52.1016 244.619 47.5015L243.06 44.2396C243.111 44.2072 243.149 44.1554 243.167 44.0944C243.184 44.0334 243.18 43.9677 243.154 43.9101L241.571 40.5945C241.542 40.5371 241.495 40.493 241.438 40.4707C241.381 40.4483 241.319 40.4493 241.263 40.4734L239.748 37.299C239.169 33.1853 237.659 29.2855 235.349 25.9398C235.191 25.7044 235.022 25.4892 234.858 25.2673L237.322 25.1731C239.484 25.0857 241.897 24.8839 243.349 23.1555C243.869 22.5113 244.253 21.7542 244.474 20.9361C244.661 20.2951 244.783 19.6345 244.839 18.9656C244.839 18.8647 244.839 18.7638 244.839 18.6697C244.839 18.441 244.839 18.2168 244.839 17.9971C244.839 17.8156 244.839 17.6407 244.839 17.4591C244.839 17.2775 244.839 17.1699 244.839 17.0287C244.839 16.8875 244.77 16.5646 244.732 16.3561C244.732 16.2687 244.732 16.1813 244.682 16.0939C244.629 15.8304 244.564 15.57 244.487 15.3137C244.468 15.2634 244.454 15.2117 244.443 15.159C244.355 14.89 244.26 14.621 244.154 14.3587C244.136 14.3241 244.122 14.2881 244.11 14.2511C243.997 13.9888 243.871 13.7332 243.739 13.4844L243.701 13.4037C243.655 13.2993 243.602 13.1982 243.544 13.1011C241.841 10.236 238.849 8.56141 236.002 7.0482C233.345 5.55349 230.618 4.20661 227.832 3.01296C217.471 -1.14496 206.026 -0.972057 195.779 3.49719C194.767 3.90729 193.808 4.45424 192.926 5.12474C191.696 6.23879 190.645 7.56105 189.815 9.03892L184.944 16.7395C184.263 17.6762 183.731 18.7258 183.367 19.8466C182.455 23.5052 185.315 27.1706 184.994 30.9435C184.831 32.8199 183.888 34.5416 183.706 36.418C183.473 38.8391 184.523 41.1729 185.547 43.3586L192.517 58.1545C192.147 60.0981 191.738 62.0888 191.292 64.0123C188.08 67.5633 186.999 69.5002 186.704 70.5494L186.61 70.6032C185.974 71.0427 185.426 71.6145 185.001 72.2845L178.376 79.1713C178.376 79.1713 166.863 82.3726 164.468 86.428C164.468 86.428 146.399 85.5806 146.556 112.583C146.556 112.583 145.758 122.712 145.299 124.063C144.841 125.415 145.299 139.081 145.299 139.081L145.086 166.763C145.086 166.763 144.394 181.444 145.086 186.677C145.777 191.909 146.575 211.823 146.575 211.823C146.575 211.823 150.893 231.233 149.296 238.153C147.763 244.777 149.296 259.264 151.81 259.324C152.288 260.38 152.835 260.898 153.432 260.602C153.692 260.482 153.958 260.378 154.23 260.293V276.831C154.23 276.831 151.119 300 154.607 304.405C152.294 307.929 149.579 313.941 148.888 315.522L124.44 314.116L121.329 315.051L118.476 315.905L116.747 358.457L117.439 358.511L117.388 359.809L119.022 359.936L116.747 402.791L150.591 405.77C149.102 409.341 147.373 413.168 146.701 413.538C145.444 414.21 142.704 412.193 142.063 413.027C141.422 413.861 139.505 414.883 137.267 414.372C135.03 413.861 133.591 416.564 133.591 416.564C133.591 416.564 133.917 416.874 134.408 417.445C130.775 416.974 126.181 419.059 123.686 420.404C122.567 421.01 121.869 421.46 121.869 421.46H115.27L118.897 446.216L121.455 448.086L122.083 467.59C122.083 467.59 132.315 501.345 137.003 501.123C137.308 501.111 137.606 501.029 137.878 500.883C138.151 500.737 138.39 500.529 138.581 500.275C141.095 497.168 139.354 486.495 139.354 486.495V468.726C139.354 468.726 143.188 466.924 142.76 465.572C142.333 464.22 148.945 449.431 149.535 448.086C149.552 448.075 149.566 448.059 149.575 448.04C149.584 448.021 149.587 448 149.586 447.978C149.586 446.459 152.464 444.77 152.301 444.098C152.137 443.425 159.34 439.202 159.842 435.489C160.345 431.777 165.115 433.801 165.115 433.801L171.187 426.336C171.369 435.436 171.715 441.805 172.312 443.419C175.19 451.186 176.309 463.339 176.309 463.339C176.309 463.339 174.549 472.62 176.309 475.66C177.39 477.516 179.904 479.507 181.651 481.155C179.835 487.046 180.092 499.569 180.092 499.569V506.765L193.523 510.8C193.523 510.8 193.944 507.202 194.585 507.202C195.226 507.202 203.755 514.177 203.755 514.177C203.755 514.177 236.587 514.627 244.895 514.177C248.038 514.008 248.892 512.562 248.408 510.814C247.61 507.902 243.129 504.129 239.145 503.84C232.747 503.389 224.645 496.193 224.645 496.193C224.645 496.193 225.274 494.612 221.874 492.366C219.523 490.819 213.019 484.558 208.996 480.893C209.185 480.617 209.38 480.341 209.562 480.045C209.562 480.045 204.125 471.975 205.25 468.397C206.375 464.819 204.766 459.654 204.766 459.654C204.766 459.654 201.731 449.693 201.731 444.629C201.731 441.421 201.278 423.175 200.952 410.236L203.755 410.484L203.811 409.193L205.068 409.314L216.953 410.484L216.588 396.892C222.314 394.202 227.078 391.707 229.051 390.113C235.763 384.733 241.52 384.376 241.52 384.376C241.52 384.376 255.108 376.615 257.188 373.407C259.269 370.199 259.074 346.909 259.074 346.909L257.955 296.993V296.953C257.955 296.953 257 272.822 255.077 267.59C254.373 265.653 252.632 259.197 250.728 251.826C251.822 251.705 252.927 251.755 254.008 251.974C254.077 253.776 254.121 255.013 254.121 255.437C254.121 258.302 257.955 260.737 257.955 260.737L255.24 196.173V152.249C263.611 155.101 283.855 155.989 283.855 155.989C298.442 155.168 294.929 140.964 294.929 140.964ZM215.966 85.4932H215.922C216.219 83.8005 216.608 82.1276 217.085 80.4828L215.966 85.4932ZM161.024 306.94C165.983 307.815 171.708 307.559 172.142 306.53C172.186 306.429 172.242 306.248 172.318 306.012C172.475 306.308 172.626 306.611 172.783 306.92L172.299 316.658V316.88L155.958 315.939C157.102 310.727 159.264 308.184 161.024 306.94ZM215.495 356.076L215.074 340.305C215.803 337.4 216.456 334.763 217.016 332.503C217.267 334.38 217.481 336.108 217.644 337.702C219.19 352.666 216.909 355.585 215.495 356.076ZM262.003 119.625C261.066 120.008 257.503 117.607 254.121 115.119C254.121 114.661 254.153 114.211 254.172 113.773C254.649 103.477 238.981 97.0676 234.186 95.8839C233.022 95.5625 231.893 95.1117 230.817 94.5389C228.262 93.1847 225.778 91.6827 223.376 90.0396L223.439 89.8445C223.439 89.8445 217.254 85.6546 217.122 80.429C218.532 75.6759 220.31 71.0574 222.439 66.6217C222.559 66.3595 222.691 66.0837 222.817 65.8214C225.739 64.8487 228.467 63.3024 230.861 61.2616C231.823 74.7124 250.011 86.2868 250.011 86.2868L251.953 89.6495L252.412 90.4431C251.431 91.0618 250.96 91.5595 251.293 91.8487C252.676 93.0324 256.019 99.7309 257.402 102.562C257.779 103.329 258.031 103.806 258.031 103.806C258.031 103.806 261.003 112.462 262.706 119.705C262.48 119.604 262.231 119.576 261.99 119.625H262.003Z" fill="url(#paint0_linear_12_198)"/>
<path d="M269.029 84.74L268.815 85.0426L268.086 86.085L254.103 96.6574L251.136 91.4385L249.251 88.0758C249.251 88.0758 221.377 70.1862 233.363 52.9423C245.348 35.6984 263.058 74.7998 263.058 74.7998L269.029 84.74Z" fill="#FFC5D3"/>
<path d="M240.905 42.6137C240.846 42.4876 240.702 42.4369 240.584 42.5003C240.466 42.5638 240.419 42.7175 240.478 42.8436L242.033 46.1472C242.092 46.2733 242.236 46.324 242.354 46.2605C242.472 46.197 242.519 46.0434 242.46 45.9173L240.905 42.6137Z" fill="#3A3768"/>
<path d="M224.947 47.2327L224.941 47.2357C224.876 47.2708 224.85 47.3557 224.883 47.4254L225.346 48.4105C225.379 48.4802 225.459 48.5082 225.524 48.4731L225.529 48.4701C225.594 48.435 225.621 48.3501 225.588 48.2804L225.124 47.2953C225.091 47.2257 225.012 47.1976 224.947 47.2327Z" fill="#3A3768"/>
<path d="M226.216 49.5653C226.179 49.4857 226.088 49.4536 226.014 49.4937C225.939 49.5338 225.909 49.6309 225.947 49.7105L226.826 51.5786C226.863 51.6582 226.954 51.6902 227.028 51.6501C227.103 51.61 227.133 51.513 227.095 51.4334L226.216 49.5653Z" fill="#3A3768"/>
<path d="M227.572 52.4729C227.536 52.3966 227.449 52.3659 227.378 52.4044C227.306 52.4428 227.278 52.5358 227.313 52.6121L228.207 54.5102C228.243 54.5865 228.33 54.6172 228.401 54.5788C228.472 54.5403 228.501 54.4474 228.465 54.3711L227.572 52.4729Z" fill="#3A3768"/>
<path d="M236.028 36.1268L224.285 42.4551C223.59 42.8293 223.311 43.7351 223.661 44.4782L236.986 72.7937C237.336 73.5368 238.183 73.8358 238.877 73.4616L250.62 67.1333C251.314 66.7591 251.594 65.8533 251.244 65.1102L237.918 36.7947C237.569 36.0516 236.722 35.7526 236.028 36.1268Z" fill="#3A3768"/>
<path d="M234.525 37.9245C234.458 37.9601 234.398 38.0098 234.349 38.0706C234.3 38.1313 234.262 38.2019 234.239 38.2783C234.215 38.3547 234.206 38.4353 234.212 38.5154C234.218 38.5955 234.239 38.6736 234.274 38.745L234.324 38.8593C234.359 38.9312 234.38 39.0097 234.386 39.0904C234.392 39.171 234.383 39.2521 234.36 39.329C234.336 39.406 234.299 39.4772 234.25 39.5385C234.2 39.5999 234.14 39.6502 234.073 39.6865L228.027 42.9416C227.96 42.9785 227.887 43.0009 227.812 43.0073C227.737 43.0138 227.662 43.0042 227.591 42.9792C227.519 42.9541 227.453 42.9141 227.396 42.8615C227.34 42.8088 227.293 42.7446 227.26 42.6726L227.203 42.5583C227.17 42.4863 227.124 42.4221 227.067 42.3692C227.01 42.3164 226.945 42.2761 226.873 42.2504C226.802 42.2248 226.727 42.2145 226.652 42.22C226.577 42.2255 226.504 42.2468 226.437 42.2825L225.261 42.9214C225.133 42.9893 225.018 43.0839 224.923 43.1998C224.829 43.3157 224.757 43.4505 224.712 43.5964C224.667 43.7422 224.65 43.8962 224.661 44.0494C224.672 44.2026 224.712 44.3518 224.777 44.4885L237.624 71.7734C237.756 72.0497 237.984 72.2591 238.259 72.3561C238.535 72.4531 238.835 72.4298 239.094 72.2912L249.64 66.6083C249.899 66.4672 250.094 66.2227 250.185 65.928C250.275 65.6332 250.254 65.3122 250.124 65.0345L237.272 37.7362C237.207 37.5987 237.118 37.4763 237.009 37.3758C236.9 37.2754 236.773 37.1989 236.637 37.1508C236.5 37.1027 236.356 37.0839 236.213 37.0955C236.069 37.1071 235.929 37.1488 235.801 37.2183L234.525 37.9245Z" fill="#18AEBF"/>
<path d="M231.012 39.9908L229.423 40.8469C229.312 40.907 229.267 41.0526 229.323 41.1721C229.379 41.2915 229.515 41.3395 229.627 41.2794L231.215 40.4233C231.327 40.3632 231.372 40.2176 231.316 40.0982C231.259 39.9788 231.123 39.9307 231.012 39.9908Z" fill="#E6E8EC"/>
<path d="M231.835 40.0699C231.978 40.0699 232.093 39.9465 232.093 39.7942C232.093 39.6419 231.978 39.5184 231.835 39.5184C231.693 39.5184 231.578 39.6419 231.578 39.7942C231.578 39.9465 231.693 40.0699 231.835 40.0699Z" fill="#E6E8EC"/>
<path d="M243.575 142.578L239.647 255.377C239.647 255.377 252.846 250.669 254.888 254.2C256.931 257.731 252.688 197.706 252.688 197.706L243.575 142.578Z" fill="#5F5570"/>
<path opacity="0.15" d="M243.575 142.578L239.647 255.377C239.647 255.377 252.846 250.669 254.888 254.2C256.931 257.731 252.688 197.706 252.688 197.706L243.575 142.578Z" fill="black"/>
<path d="M244.204 514.378C236.034 514.829 203.773 514.378 203.773 514.378C203.773 514.378 195.39 507.431 194.761 507.431C194.133 507.431 193.718 511.016 193.718 511.016L180.52 506.98V499.811C180.52 499.811 180.098 479.399 184.077 478.512C188.055 477.624 205.659 478.512 205.659 478.512C206.287 478.29 218.229 490.396 221.578 492.635C224.928 494.875 224.3 496.448 224.3 496.448C224.3 496.448 232.263 503.618 238.548 504.068C242.463 504.351 246.869 508.103 247.654 511.016C248.132 512.771 247.283 514.21 244.204 514.378Z" fill="#BC8487"/>
<path opacity="0.1" d="M244.204 514.378C236.034 514.829 203.774 514.378 203.774 514.378C203.774 514.378 195.39 507.431 194.761 507.431C194.133 507.431 193.718 511.016 193.718 511.016L180.52 506.98V499.952L192.876 504.741L202.724 511.016H247.654C248.132 512.771 247.283 514.21 244.204 514.378Z" fill="black"/>
<g opacity="0.1">
<path d="M207.519 503.846C207.519 503.846 217.575 493.536 224.3 496.448Z" fill="black"/>
<path d="M207.519 503.846C207.519 503.846 217.575 493.536 224.3 496.448" stroke="black" stroke-miterlimit="10"/>
</g>
<path d="M143.854 465.955C144.275 467.301 140.504 469.096 140.504 469.096V486.804C140.504 486.804 142.213 497.437 139.744 500.537C139.558 500.789 139.324 500.994 139.057 501.14C138.79 501.285 138.497 501.366 138.197 501.378C133.591 501.6 123.535 467.973 123.535 467.973L122.906 448.543L120.392 446.68L116.829 422.018H123.328C123.328 422.018 124.013 421.568 125.112 420.963C128.255 419.248 134.835 416.255 138.411 419.106L150.56 448.395C150.56 448.395 143.439 464.61 143.854 465.955Z" fill="#BC8487"/>
<path opacity="0.1" d="M139.744 500.538C139.558 500.789 139.324 500.995 139.057 501.14C138.79 501.285 138.497 501.366 138.197 501.378C133.591 501.6 123.535 467.973 123.535 467.973L122.906 448.543L120.392 446.681L116.829 422.019H123.328C123.328 422.019 124.013 421.568 125.112 420.963L126.677 446.23L127.513 467.973C127.513 467.973 135.407 491.647 139.744 500.538Z" fill="black"/>
<path d="M256.302 374.1C254.26 377.295 240.904 385.029 240.904 385.029C240.904 385.029 235.248 385.365 228.649 390.745C225.236 393.53 213.377 399.051 202.724 403.739C192.775 408.117 183.869 411.762 183.869 411.762L173.613 424.541L165.8 434.272C165.8 434.272 161.087 432.255 160.615 435.953C160.144 439.652 153.074 443.856 153.231 444.528C153.388 445.201 150.56 446.882 150.56 448.395C150.56 449.909 140.033 437.467 140.19 429.901C140.347 422.335 134.848 417.122 134.848 417.122C134.848 417.122 136.262 414.432 138.461 414.937C140.661 415.441 142.547 414.432 143.175 413.592C143.803 412.751 146.475 414.768 147.732 414.096C148.988 413.423 154.016 400.141 154.016 400.141L173.606 386.078L212.572 358.127L214.37 356.836C214.37 356.836 219.555 359.378 217.449 338.55C217.041 334.514 216.356 329.612 215.312 323.639C208.87 286.818 231.967 282.615 231.967 282.615L252.236 289.844L257.107 297.915V297.955L258.207 347.683C258.207 347.683 258.345 370.905 256.302 374.1Z" fill="#433A59"/>
<path opacity="0.1" d="M202.567 397.639C202.567 397.639 202.63 400.026 202.724 403.739C192.775 408.117 183.869 411.762 183.869 411.762L173.613 424.54C173.443 413.948 173.481 400.188 173.613 386.085L212.579 358.134C207.758 377.254 202.567 397.639 202.567 397.639Z" fill="black"/>
<path opacity="0.1" d="M257.088 297.935V297.975L226.606 298.608C226.606 298.608 221.264 320.969 220.479 325.677C220.284 326.834 219.102 331.777 217.43 338.57C217.022 334.535 216.337 329.632 215.294 323.66C208.852 286.838 231.948 282.635 231.948 282.635L252.217 289.865L257.088 297.935Z" fill="black"/>
<path d="M176.799 236.902L172.871 317.607C172.871 317.607 170.043 436.142 172.871 443.876C175.699 451.61 176.799 463.716 176.799 463.716C176.799 463.716 175.071 472.963 176.799 475.99C178.527 479.016 184.027 482.379 183.869 484.06C183.712 485.742 200.681 494.821 209.48 480.361C209.48 480.361 204.138 472.291 205.238 468.76C206.338 465.229 204.767 460.017 204.767 460.017C204.767 460.017 201.781 450.097 201.781 445.033C201.781 439.969 200.681 397.619 200.681 397.619C200.681 397.619 217.808 330.365 218.593 325.657C219.379 320.949 224.721 298.587 224.721 298.587L257.088 297.915C257.088 297.915 256.145 273.871 254.26 268.659C252.374 263.447 243.104 225.281 243.104 225.281L176.799 236.902Z" fill="#433A59"/>
<path d="M122.781 316.02L119.971 316.88L119.858 319.853L204.088 321.016V319.846L122.781 316.02Z" fill="#7B728F"/>
<path d="M222.132 68.5116C209.876 95.1105 217.487 100.672 218.7 101.358C216.104 100.067 182.367 83.1057 186.804 78.8014C189.689 75.9969 192.159 63.7971 193.611 55.0541C194.472 49.8351 194.975 45.847 194.975 45.847L230.377 52.7943C226.946 58.7127 224.218 63.9248 222.132 68.5116Z" fill="#FFC5D3"/>
<path opacity="0.1" d="M268.841 85.0426L268.111 86.085L254.103 96.6574L251.136 91.4385C255.454 88.7483 268.401 84.0405 268.401 84.0405L268.841 85.0426Z" fill="black"/>
<path d="M281.756 109.288C280.499 113.995 259.287 109.288 259.287 109.288L257.088 105.589C257.088 105.589 256.868 105.118 256.497 104.351C255.14 101.533 251.853 94.8617 250.495 93.678C248.767 92.1648 269.035 84.7668 269.035 84.7668L275.245 99.2264C276.775 100.328 278.188 101.606 279.456 103.04C281.027 104.862 282.328 107.142 281.756 109.288Z" fill="#E5E8EF"/>
<path d="M246.561 111.453C246.561 111.453 259.13 122.066 261.016 121.299C262.901 120.533 293.383 142.558 293.383 142.558C293.383 142.558 296.839 156.682 282.541 157.522C282.541 157.522 252.217 156.177 250.96 151.469C249.703 146.762 246.561 111.453 246.561 111.453Z" fill="#5F5570"/>
<path opacity="0.1" d="M212.308 90.1203L198.639 105.252L217.808 235.725L225.349 231.017C225.349 231.017 244.832 240.265 246.404 231.69C247.975 223.115 247.541 189.32 247.541 189.32L244.99 128.267C244.99 128.267 236.034 106.914 236.034 106.241C236.034 105.569 223.118 95.1441 223.118 95.1441L217.022 90.1001L212.308 90.1203Z" fill="black"/>
<path d="M212.308 88.1027L198.639 103.235L217.808 233.707L225.349 229C225.349 229 244.832 238.247 246.404 229.672C247.975 221.097 247.541 187.302 247.541 187.302L244.99 126.249C244.99 126.249 236.034 104.896 236.034 104.223C236.034 103.551 223.118 93.1266 223.118 93.1266L217.022 88.0825L212.308 88.1027Z" fill="#E5E8EF"/>
<path opacity="0.1" d="M213.094 90.2884L209.323 98.527L213.094 102.784C213.094 102.784 226.606 131.986 223.935 149.304L226.763 206.301L235.876 215.885L243.104 206.954L239.647 155.168C239.647 155.168 230.377 112.462 220.636 99.1794L217.808 87.41L213.094 90.2884Z" fill="black"/>
<path d="M213.094 88.9433L209.323 97.182L213.094 101.439C213.094 101.439 226.606 130.641 223.935 147.959L226.763 204.956L235.876 214.54L243.104 205.609L239.647 153.823C239.647 153.823 230.377 111.117 220.636 97.8343L217.808 86.0649L213.094 88.9433Z" fill="#BC8487"/>
<path opacity="0.1" d="M230.377 52.7944C226.946 58.7127 224.243 63.9249 222.132 68.5116C219.907 69.2135 217.6 69.5691 215.281 69.5675C207.513 69.5675 203.038 63.8173 198.639 57.7106C197.633 56.3252 194.327 56.648 193.611 55.0205C194.472 49.8016 194.975 45.8134 194.975 45.8134L230.377 52.7944Z" fill="black"/>
<path d="M239.371 43.1098C239.371 49.2491 237.323 55.1868 233.596 59.8544C229.869 64.5219 224.707 67.6128 219.041 68.571C213.374 69.5291 207.573 68.2915 202.683 65.0808C197.793 61.8702 194.134 56.8973 192.365 51.0571C190.596 45.2169 190.833 38.8928 193.033 33.2228C195.233 27.5528 199.252 22.9092 204.367 20.1276C209.481 17.346 215.355 16.6091 220.933 18.0494C226.51 19.4896 231.423 23.0126 234.789 27.9843C237.768 32.3836 239.371 37.6773 239.371 43.1098Z" fill="#FFC5D3"/>
<path opacity="0.1" d="M207.595 100.545L187.797 74.9882C187.797 74.9882 185.969 74.2013 192.147 67.2809C192.147 67.2809 214.835 86.2061 216.243 89.4209C217.65 92.6356 207.595 100.545 207.595 100.545Z" fill="black"/>
<path d="M206.966 99.1996L187.169 73.6431C187.169 73.6431 185.34 72.8562 191.518 65.9358C191.518 65.9358 214.206 84.861 215.614 88.0758C217.022 91.2905 206.966 99.1996 206.966 99.1996Z" fill="#E5E8EF"/>
<path d="M257.088 261.853C257.088 261.853 253.317 259.432 253.317 256.574C253.317 253.716 251.431 213.363 251.431 213.363C251.431 213.363 248.666 189.28 245.775 170.139C244.078 158.861 242.337 149.29 241.105 147.394L241.055 147.313C237.756 142.773 238.384 120.58 217.801 88.1296C218.078 88.3313 225.173 93.6579 230.371 96.3346C231.429 96.9035 232.539 97.3542 233.683 97.6796C238.397 98.8566 253.795 105.246 253.323 115.502C252.852 125.758 254.423 149.297 254.423 149.297V197.538L257.088 261.853Z" fill="#5F5570"/>
<path opacity="0.1" d="M281.756 109.288C280.499 113.995 259.288 109.288 259.288 109.288L257.088 105.589C257.088 105.589 256.868 105.118 256.497 104.351C256.484 104.325 256.474 104.298 256.466 104.271C268.79 105.192 275.66 104.23 279.456 103.04C281.027 104.862 282.328 107.142 281.756 109.288Z" fill="black"/>
<path d="M257.088 105.589C257.088 105.589 263.687 125.092 262.744 129.968C261.801 134.844 277.985 154.012 277.985 154.012L293.383 142.578C293.383 142.578 287.569 130.136 288.355 126.437C289.141 122.738 284.27 114.836 284.27 114.836L284.584 101.735C284.584 101.735 281.756 107.418 257.088 105.589Z" fill="#5F5570"/>
<path opacity="0.1" d="M234.789 27.9844L222.848 28.4686C221.682 28.4604 220.52 28.6165 219.391 28.9327C215.124 30.3383 213.157 35.194 213 39.5588C212.842 43.9236 210.486 48.8129 205.917 49.1963C205.462 49.2789 204.995 49.1679 204.616 48.8869C204.326 48.557 204.133 48.1429 204.063 47.6965C203.407 45.1532 202.394 42.7313 201.058 40.5138C199.173 40.877 197.778 42.7937 197.287 44.7979C196.797 46.802 196.929 48.9138 196.936 50.992C196.941 53.6313 196.703 56.2647 196.225 58.8539C194.277 56.1474 192.851 53.0535 192.03 49.7519C191.209 46.4504 191.009 43.0071 191.443 39.6223C191.876 36.2375 192.934 32.9787 194.555 30.0353C196.176 27.0919 198.327 24.5226 200.884 22.4768C203.441 20.431 206.353 18.9495 209.449 18.1184C212.546 17.2873 215.766 17.1232 218.923 17.6357C222.079 18.1482 225.109 19.327 227.836 21.1036C230.563 22.8801 232.933 25.2191 234.808 27.9844H234.789Z" fill="black"/>
<path d="M218.769 28.2601C219.897 27.9439 221.06 27.7878 222.226 27.796L236.725 27.2176C238.849 27.1302 241.219 26.9285 242.645 25.2404C243.157 24.5958 243.535 23.8413 243.751 23.0277C244.125 21.7278 244.234 20.3575 244.073 19.0086C243.911 17.6598 243.483 16.3633 242.815 15.2061C241.137 12.3478 238.196 10.6866 235.393 9.15324C232.784 7.66178 230.105 6.31492 227.367 5.118C217.196 0.984811 205.935 1.15799 195.88 5.60223C194.886 6.01031 193.944 6.55032 193.077 7.2096C191.865 8.32091 190.833 9.63891 190.022 11.1103L185.252 18.8042C184.594 19.7436 184.086 20.7937 183.75 21.9113C182.851 25.5632 185.635 29.2151 185.346 32.9746C185.183 34.8442 184.259 36.5592 184.089 38.4289C183.863 40.8433 184.894 43.1367 185.906 45.3359L194.29 63.4339C195.644 59.2137 196.33 54.7813 196.32 50.3194C196.32 48.2412 196.156 46.1295 196.672 44.1253C197.187 42.1211 198.557 40.2044 200.443 39.8412C201.782 42.0576 202.797 44.4797 203.453 47.0239C203.522 47.4708 203.715 47.8854 204.006 48.2143C204.385 48.496 204.852 48.6071 205.307 48.5237C209.901 48.1403 212.22 43.2981 212.39 38.8862C212.56 34.4743 214.502 29.6657 218.769 28.2601Z" fill="#8F7080"/>
<path d="M119.971 316.88L125.841 315.085L214.351 320.243L204.609 321.588L119.971 316.88Z" fill="#7B728F"/>
<path opacity="0.1" d="M119.971 316.88L125.841 315.085L214.351 320.243L204.609 321.588L119.971 316.88Z" fill="black"/>
<path d="M216.758 411.036L205.081 409.872L200.983 409.469V339.969L202.064 323.834L202.303 320.243H214.351L216.758 411.036Z" fill="#7B728F"/>
<path opacity="0.1" d="M213.565 408.568L204.251 407.465L200.983 407.081V341.186L201.844 325.892L202.033 322.483H211.642L213.565 408.568Z" fill="black"/>
<path d="M149.692 316.88C149.692 316.88 155.506 303.235 157.944 302.811C160.383 302.387 164.858 302.811 164.858 302.811L164.462 306.765C164.462 306.765 158.491 307.27 156.606 317.943L149.692 316.88Z" fill="#7B728F"/>
<path opacity="0.1" d="M149.692 316.88C149.692 316.88 155.506 303.235 157.944 302.811C160.383 302.387 164.858 302.811 164.858 302.811L164.462 306.765C164.462 306.765 158.491 307.27 156.606 317.943L149.692 316.88Z" fill="black"/>
<path d="M172.242 301.385C172.242 301.385 187.873 309.704 185.83 319.456L177.346 318.952C177.346 318.952 173.261 304.412 170.043 303.652C166.825 302.892 172.242 301.385 172.242 301.385Z" fill="#7B728F"/>
<path d="M230.377 169.648V170.139L230.063 226.141C230.063 226.141 222.05 273.219 219.85 275.069C217.65 276.918 169.414 271.874 169.414 271.874L147.574 114.332C147.417 87.4301 165.172 88.2708 165.172 88.2708C167.529 84.2355 178.842 81.041 178.842 81.041L185.126 74.4837L185.327 74.1811C185.745 73.5148 186.284 72.9453 186.911 72.5065C188.206 71.7061 189.029 72.762 189.501 73.8045C189.713 74.2939 189.877 74.8055 189.991 75.3311C215.451 95.3123 230.377 169.648 230.377 169.648Z" fill="#5F5570"/>
<path opacity="0.1" d="M229.749 170.321V170.812C221.849 155.343 191.411 96.7381 183.084 93.8193L186.289 91.4654C186.289 91.4654 188.426 90.1203 184.498 88.7752C184.498 88.7752 178.37 89.6159 178.213 81.7135L184.699 74.8536L186.283 73.179L188.872 74.477C189.084 74.9665 189.249 75.4781 189.362 76.0037C214.822 95.9848 229.749 170.321 229.749 170.321Z" fill="black"/>
<path d="M230.377 169.648V170.139C222.477 154.671 192.04 96.0655 183.712 93.1467L186.918 90.7928C186.918 90.7928 189.054 89.4477 185.126 88.1027C185.126 88.1027 178.999 88.9433 178.842 81.041L185.328 74.1811L186.911 72.5065L189.501 73.8045C189.713 74.2939 189.877 74.8055 189.991 75.3311C215.451 95.3123 230.377 169.648 230.377 169.648Z" fill="#433A59"/>
<path opacity="0.1" d="M241.74 148.039L241.69 147.959C238.39 143.419 239.019 121.225 218.436 88.7752C218.713 88.977 225.808 94.3035 231.006 96.9802L229.554 102.105L232.696 103.901L241.74 148.039Z" fill="black"/>
<path d="M241.112 147.367L241.061 147.286C237.762 142.746 238.39 120.553 217.808 88.1027C218.084 88.3044 225.18 93.6309 230.377 96.3076L228.925 101.432L232.068 103.228L241.112 147.367Z" fill="#433A59"/>
<path opacity="0.1" d="M216.903 82.9241L215.614 88.7483C215.614 88.7483 216.557 94.5792 222.207 95.0836L223.118 92.3061C223.118 92.3061 217.022 88.1229 216.903 82.9241Z" fill="black"/>
<path d="M216.903 82.2516L215.614 88.0758C215.614 88.0758 216.557 93.9067 222.207 94.4111L223.118 91.6335C223.118 91.6335 217.022 87.4503 216.903 82.2516Z" fill="#E5E8EF"/>
<path opacity="0.1" d="M208.776 321.185L205.081 409.872L200.983 409.469V339.969L202.064 323.834L208.776 321.185Z" fill="black"/>
<path d="M120.814 355.437L118.3 403.409L203.774 411.036L207.519 321.185L120.814 355.437Z" fill="#7B728F"/>
<path opacity="0.1" d="M118.928 360.595L120.6 318.225L208.148 322.53L203.981 367.321L118.928 360.595Z" fill="black"/>
<path d="M118.3 359.25L119.971 316.88L207.519 321.185L203.352 365.976L118.3 359.25Z" fill="#7B728F"/>
<path d="M165.643 359.304H155.116V372.419H165.643V359.304Z" fill="#C3BBC8"/>
<path d="M156.687 273.387L155.116 277.927C155.116 277.927 151.817 302.811 155.902 305.837C159.987 308.864 172.085 309.032 172.714 307.519C173.342 306.005 177.742 288.856 177.742 288.856C177.742 288.856 181.67 301.466 183.712 300.457C185.755 299.448 178.999 275.479 178.999 275.479L156.687 273.387Z" fill="#FFC5D3"/>
<path opacity="0.1" d="M155.116 254.556V278.599C155.116 278.599 171.771 281.962 178.999 276.151C178.999 276.151 172.242 252.875 174.756 246.99C177.27 241.105 155.116 254.556 155.116 254.556Z" fill="black"/>
<path d="M155.116 253.884V277.927C155.116 277.927 171.771 281.29 178.999 275.479C178.999 275.479 172.242 252.202 174.756 246.318C177.27 240.433 155.116 253.884 155.116 253.884Z" fill="#E5E8EF"/>
<path opacity="0.1" d="M153.231 113.155L148.831 115.677C148.831 115.677 148.046 125.765 147.574 127.11C147.103 128.455 147.574 142.074 147.574 142.074L147.361 169.648C147.361 169.648 146.682 184.276 147.361 189.488C148.04 194.7 148.8 214.54 148.8 214.54C148.8 214.54 153.049 233.876 151.477 240.769C149.906 247.663 151.634 263.131 154.306 261.786C156.977 260.441 181.645 255.229 182.902 254.22C184.159 253.211 183.53 243.796 182.902 242.619C182.273 241.442 178.502 225.469 178.816 221.77C179.131 218.071 177.717 185.621 177.717 185.621C177.717 185.621 180.073 150.985 181.016 142.915C181.959 134.844 179.131 111.137 176.617 110.801C174.103 110.465 166.743 92.1379 153.231 113.155Z" fill="black"/>
<path d="M151.974 111.81L147.574 114.332C147.574 114.332 146.789 124.42 146.317 125.765C145.846 127.11 146.317 140.729 146.317 140.729L146.104 168.303C146.104 168.303 145.425 182.931 146.104 188.143C146.782 193.355 147.543 213.195 147.543 213.195C147.543 213.195 151.792 232.53 150.22 239.424C148.649 246.318 150.377 261.786 153.048 260.441C155.72 259.096 180.388 253.884 181.645 252.875C182.902 251.866 182.273 242.45 181.645 241.274C181.016 240.097 177.245 224.124 177.559 220.425C177.874 216.726 176.46 184.276 176.46 184.276C176.46 184.276 178.816 149.64 179.759 141.57C180.702 133.499 177.874 109.792 175.36 109.456C172.846 109.119 165.486 90.7928 151.974 111.81Z" fill="#5F5570"/>
<g opacity="0.1">
<path d="M199.494 37.3192C197.608 37.6824 196.213 39.5991 195.723 41.6033C195.232 43.6075 195.364 45.7192 195.371 47.7974C195.383 52.2589 194.699 56.6914 193.347 60.9119L184.957 42.8139C184.793 42.4574 184.624 42.0875 184.46 41.7176C184.848 42.9631 185.33 44.1731 185.899 45.3359L194.29 63.4339C195.642 59.2134 196.326 54.781 196.313 50.3194C196.313 48.2413 196.156 46.1295 196.665 44.1253C197.174 42.1211 198.551 40.2044 200.436 39.8412C201.045 40.8614 201.589 41.9241 202.064 43.0224C201.426 41.0172 200.562 39.1022 199.494 37.3192Z" fill="black"/>
<path d="M242.966 15.4953C243.335 17.1499 243.283 18.88 242.815 20.5057C242.596 21.3197 242.217 22.0742 241.703 22.7184C240.276 24.4064 237.932 24.6082 235.782 24.6956L221.289 25.274C220.121 25.2658 218.957 25.4218 217.826 25.7381C213.565 27.1437 211.592 31.9994 211.435 36.3642C211.278 40.729 208.921 45.6183 204.352 46.0017C203.897 46.0843 203.43 45.9733 203.051 45.6923C203.195 46.1295 203.334 46.5734 203.453 47.0374C203.518 47.4846 203.708 47.8999 204 48.2278C204.379 48.5088 204.846 48.6198 205.301 48.5372C209.901 48.1538 212.214 43.3115 212.384 38.8997C212.553 34.4878 214.514 29.6792 218.775 28.2736C219.906 27.9573 221.07 27.8013 222.238 27.8095L236.731 27.2311C238.856 27.1437 241.225 26.9419 242.652 25.2538C243.166 24.6096 243.545 23.8552 243.764 23.0412C244.12 21.7919 244.233 20.4776 244.096 19.1797C243.959 17.8818 243.574 16.6278 242.966 15.4953Z" fill="black"/>
</g>
<path opacity="0.1" d="M219.366 291.337C219.366 291.337 224.809 288.311 226.908 288.479C229.007 288.647 247.855 314.298 247.855 314.298L219.366 291.337Z" fill="black"/>
<path opacity="0.1" d="M163.538 117.741C163.538 117.741 153.589 122.288 153.853 125.429C154.117 128.569 163.538 117.741 163.538 117.741Z" fill="black"/>
<path opacity="0.1" d="M158.692 132.605C158.692 132.605 148.253 146.889 150.56 147.367C152.866 147.844 158.692 132.605 158.692 132.605Z" fill="black"/>
<path opacity="0.1" d="M193.611 154.012C193.611 154.012 194.566 185.957 186.911 189.992L193.611 154.012Z" fill="black"/>
<path opacity="0.1" d="M153.828 239.31C153.828 239.31 161.194 234.831 162.884 235.725C164.575 236.62 153.828 239.31 153.828 239.31Z" fill="black"/>
<path opacity="0.1" d="M155.116 245.504C155.116 245.504 159.767 245.86 161.973 244.831C164.179 243.802 155.116 245.504 155.116 245.504Z" fill="black"/>
<path opacity="0.1" d="M266.138 127.87C266.138 127.87 271.907 145.605 275.232 145.605Z" fill="black"/>
<path opacity="0.1" d="M184.096 467.529C184.096 467.529 194.918 464.388 196.514 467.529C198.111 470.67 184.096 467.529 184.096 467.529Z" fill="black"/>
<path opacity="0.1" d="M149.692 420.963C149.692 420.963 146.996 425.381 150.56 426.726C154.123 428.071 149.692 420.963 149.692 420.963Z" fill="black"/>
<path opacity="0.1" d="M221.578 359.304C221.578 359.304 229.749 367.092 233.608 367.321C237.467 367.55 221.578 359.304 221.578 359.304Z" fill="black"/>
<path opacity="0.1" d="M83.2616 381.814C83.564 382.279 83.8012 382.789 83.9655 383.327C90.0116 390.927 93.2357 398.022 87.4222 398.204C82.011 398.365 75.5187 408.722 73.9601 411.339C74.0113 411.541 74.0722 411.741 74.1423 411.937C74.1423 411.937 81.7596 398.392 87.969 398.204C94.1784 398.016 90.0807 389.979 83.2616 381.814Z" fill="black"/>
</g>
<defs>
<linearGradient id="paint0_linear_12_198" x1="205.288" y1="514.378" x2="205.288" y2="-9.27794e-06" gradientUnits="userSpaceOnUse">
<stop stop-color="#808080" stop-opacity="0.25"/>
<stop offset="0.54" stop-color="#808080" stop-opacity="0.12"/>
<stop offset="1" stop-color="#808080" stop-opacity="0.1"/>
</linearGradient>
<clipPath id="clip0_12_198">
<rect width="549" height="539" fill="white"/>
</clipPath>
</defs>
</svg>
