<svg width="25" height="26" viewBox="0 0 25 26" fill="none" xmlns="http://www.w3.org/2000/svg">
<path fill-rule="evenodd" clip-rule="evenodd" d="M17.0216 25.3971C14.0342 25.3971 9.78473 25.2438 6.95079 25.2438C1.65052 25.2438 0.211838 22.0518 0.211838 17.9933C0.211838 13.9348 0.289996 9.44586 0.289996 7.90733C0.289996 3.34775 2.27289 0.815963 7.18815 0.815963C9.00605 0.815963 15.8434 0.798279 18.1708 0.798279C22.6432 0.798279 24.7882 2.6787 24.7882 8.18438C24.7882 9.54312 24.6897 12.0868 24.6897 19.1398C24.6897 23.5756 22.6316 25.3971 17.0216 25.3971ZM21.3145 11.8392L12.7605 11.4471L12.7895 15.3053L17.7482 14.9929C17.1403 16.9087 15.5597 18.4531 13.0095 18.4531C5.68579 18.4531 6.01579 7.79533 12.8937 7.79533C13.5676 7.76895 14.2397 7.88293 14.8688 8.13024C15.498 8.37755 16.0709 8.75302 16.5526 9.23365L18.9582 6.72839C17.5426 5.28417 15.5453 4.3528 12.9429 4.3528C1.62157 4.3528 1.07447 21.8956 13.1339 21.8956C19.1753 21.8956 21.9253 16.6169 21.3145 11.851V11.8392Z" fill="#C5FFF8"/>
</svg>
