<svg width="63" height="63" viewBox="0 0 63 63" fill="none" xmlns="http://www.w3.org/2000/svg">
<path d="M31.5 63C48.897 63 63 48.897 63 31.5C63 14.103 48.897 0 31.5 0C14.103 0 0 14.103 0 31.5C0 48.897 14.103 63 31.5 63Z" fill="#C5FFF8"/>
<path d="M29.5312 37.677V31.1555C29.5312 31.057 29.5682 30.9709 29.6358 30.9032L30.2634 30.2757C30.4049 30.1342 30.4049 29.9127 30.2634 29.7712L29.6358 29.1437C29.5682 29.076 29.5312 28.9837 29.5312 28.8914V25.323C29.5312 24.9293 29.8512 24.6094 30.2449 24.6094H32.7489C33.1427 24.6094 33.4626 24.9293 33.4626 25.323V31.8445C33.4626 31.943 33.4257 32.0291 33.358 32.0968L32.7305 32.7243C32.589 32.8658 32.589 33.0935 32.7305 33.2288L33.358 33.8563C33.4257 33.924 33.4626 34.0163 33.4626 34.1086V37.677C33.4626 38.0707 33.1427 38.3906 32.7489 38.3906H30.2449C29.8512 38.3906 29.5312 38.0707 29.5312 37.677ZM22.1484 31.5C22.1484 36.668 26.3382 40.8516 31.5 40.8516C36.6618 40.8516 40.8516 36.668 40.8516 31.5C40.8516 26.3382 36.6618 22.1484 31.5 22.1484C26.3382 22.1484 22.1484 26.3382 22.1484 31.5ZM18.9492 31.5C18.9492 24.5663 24.5663 18.9492 31.5 18.9492C38.4337 18.9492 44.0508 24.5663 44.0508 31.5C44.0508 38.4337 38.4337 44.0508 31.5 44.0508C24.5663 44.0508 18.9492 38.4337 18.9492 31.5ZM15.75 31.5C15.75 40.1994 22.8006 47.25 31.5 47.25C40.1994 47.25 47.25 40.1994 47.25 31.5C47.25 22.8006 40.1994 15.75 31.5 15.75C22.8006 15.75 15.75 22.8006 15.75 31.5Z" fill="#001C2E"/>
</svg>
