<svg width="28" height="28" viewBox="0 0 28 28" fill="none" xmlns="http://www.w3.org/2000/svg">
<path opacity="0.2" fill-rule="evenodd" clip-rule="evenodd" d="M14 2.625C10.9832 2.625 8.08989 3.82343 5.95666 5.95666C3.82343 8.08989 2.625 10.9832 2.625 14C2.625 17.0168 3.82343 19.9101 5.95666 22.0433C8.08989 24.1766 10.9832 25.375 14 25.375C17.0168 25.375 19.9101 24.1766 22.0433 22.0433C24.1766 19.9101 25.375 17.0168 25.375 14C25.375 10.9832 24.1766 8.08989 22.0433 5.95666C19.9101 3.82343 17.0168 2.625 14 2.625ZM0 14C0 10.287 1.475 6.72601 4.10051 4.10051C6.72601 1.475 10.287 0 14 0C17.713 0 21.274 1.475 23.8995 4.10051C26.525 6.72601 28 10.287 28 14C28 17.713 26.525 21.274 23.8995 23.8995C21.274 26.525 17.713 28 14 28C10.287 28 6.72601 26.525 4.10051 23.8995C1.475 21.274 0 17.713 0 14Z" fill="#F6F6F6"/>
<path fill-rule="evenodd" clip-rule="evenodd" d="M12.6875 1.3125C12.6875 0.964403 12.8258 0.630564 13.0719 0.384422C13.3181 0.138281 13.6519 0 14 0C17.713 0 21.274 1.475 23.8995 4.10051C26.525 6.72601 28 10.287 28 14C28 14.3481 27.8617 14.6819 27.6156 14.9281C27.3694 15.1742 27.0356 15.3125 26.6875 15.3125C26.3394 15.3125 26.0056 15.1742 25.7594 14.9281C25.5133 14.6819 25.375 14.3481 25.375 14C25.375 10.9832 24.1766 8.08989 22.0433 5.95666C19.9101 3.82343 17.0168 2.625 14 2.625C13.6519 2.625 13.3181 2.48672 13.0719 2.24058C12.8258 1.99444 12.6875 1.6606 12.6875 1.3125Z" fill="#F6F6F6"/>
</svg>
