<svg width="1920" height="1080" viewBox="0 0 1920 1080" fill="none" xmlns="http://www.w3.org/2000/svg">
<rect width="1920" height="1080" fill="#001C2E"/>
<path d="M294.046 1079.98C298.716 1076.5 654.585 641.347 863.704 641.347C1074.5 641.347 1339.36 792.095 1563.08 350.942C1786.8 -90.2114 1920 9.71302 1920 9.71302V1080L294.046 1079.98C294.009 1080.01 293.994 1080.01 294.002 1079.98H294.046Z" fill="#62A9A0"/>
<path d="M323.046 1079.98C327.631 1076.63 677.154 658.406 882.543 658.406C1089.58 658.406 1349.72 803.291 1569.44 379.294C1789.17 -44.7032 1920 51.3353 1920 51.3353V1080L323.046 1079.98C323.009 1080.01 322.994 1080.01 323.002 1079.98H323.046Z" fill="#85CEC0"/>
<path d="M361.044 1079.98C365.521 1076.81 706.727 680.744 907.229 680.744C1109.34 680.744 1363.29 817.953 1577.79 416.422C1792.29 14.891 1920 105.841 1920 105.841V1080L361.044 1079.98C361.009 1080.01 360.994 1080.01 361.002 1079.98H361.044Z" fill="#C5FFF8"/>
</svg>
