<svg width="1920" height="1080" viewBox="0 0 1920 1080" fill="none" xmlns="http://www.w3.org/2000/svg">
<rect width="1920" height="1080" fill="#001C2E"/>
<path d="M952.974 652.679C722.843 625.182 521.29 747.97 496 1080L2005 1080L2005 36.5933C2005 36.5933 1543.23 -286.189 1323.81 411.15C1274.1 569.143 1183.1 680.176 952.974 652.679Z" fill="#62A9A0"/>
<path d="M785.427 200.54C530.895 220.265 307.971 132.182 280 -106H1949V642.49C1949 642.49 1438.26 874.039 1195.59 373.802C1140.6 260.464 1039.96 180.815 785.427 200.54Z" fill="#85CEC0"/>
<path d="M814.011 178.371C565.732 196.67 348.284 114.957 321 -106H1949V588.36C1949 588.36 1450.81 803.163 1214.09 339.103C1160.46 233.962 1062.29 160.072 814.011 178.371Z" fill="#C5FFF8"/>
</svg>
