<svg width="700" height="700" viewBox="0 0 700 700" fill="none" xmlns="http://www.w3.org/2000/svg">
<path d="M348.6 653.716C516.461 653.716 652.54 575.153 652.54 478.24C652.54 381.327 516.461 302.764 348.6 302.764C180.739 302.764 44.66 381.327 44.66 478.24C44.66 575.153 180.739 653.716 348.6 653.716Z" fill="#EBEBEB"/>
<path d="M652.54 478.072C652.47 437.836 628.572 397.614 580.86 365.05L578.298 363.328L149.562 610.862L152.208 612.164C208.6 639.8 278.46 653.674 348.292 653.716L652.54 478.072Z" fill="#FAFAFA"/>
<path d="M279.734 381.892C309.301 381.892 333.27 368.052 333.27 350.98C333.27 333.908 309.301 320.068 279.734 320.068C250.167 320.068 226.198 333.908 226.198 350.98C226.198 368.052 250.167 381.892 279.734 381.892Z" fill="#E0E0E0"/>
<path opacity="0.05" d="M447.188 564.27C490.603 564.27 525.798 543.949 525.798 518.882C525.798 493.815 490.603 473.494 447.188 473.494C403.773 473.494 368.578 493.815 368.578 518.882C368.578 543.949 403.773 564.27 447.188 564.27Z" fill="black"/>
<path d="M135.338 534.87C169.498 534.87 197.19 518.88 197.19 499.156C197.19 479.432 169.498 463.442 135.338 463.442C101.178 463.442 73.486 479.432 73.486 499.156C73.486 518.88 101.178 534.87 135.338 534.87Z" fill="#E0E0E0"/>
<path d="M267.4 200.9V350.7C267.4 352.492 268.59 354.298 270.97 355.67C273.636 357.016 276.58 357.718 279.566 357.718C282.552 357.718 285.497 357.016 288.162 355.67C290.542 354.27 291.732 352.492 291.732 350.7V200.9H267.4Z" fill="#B16668"/>
<path d="M360.094 278.404L284.76 96.46H274.26L198.912 278.46C198.37 279.775 198.125 281.193 198.195 282.613C198.265 284.034 198.648 285.421 199.317 286.676C199.986 287.931 200.924 289.022 202.064 289.872C203.204 290.722 204.518 291.309 205.912 291.592L207.144 291.83C209.532 292.303 211.652 293.665 213.075 295.639C214.499 297.614 215.121 300.055 214.816 302.47C214.62 304.065 214.826 305.684 215.415 307.18C216.003 308.676 216.957 310 218.188 311.034C219.419 312.067 220.889 312.777 222.464 313.098C224.038 313.419 225.669 313.341 227.206 312.872L230.93 311.724C233.167 311.035 235.578 311.185 237.712 312.147C239.846 313.108 241.556 314.814 242.522 316.946L246.274 325.206C246.833 326.438 247.645 327.539 248.657 328.437C249.67 329.334 250.86 330.008 252.151 330.415C253.441 330.822 254.803 330.952 256.147 330.798C257.491 330.643 258.788 330.207 259.952 329.518L274.568 320.852C276.051 319.971 277.743 319.506 279.468 319.506C281.193 319.506 282.885 319.971 284.368 320.852L298.984 329.518C300.148 330.207 301.445 330.643 302.789 330.798C304.133 330.952 305.495 330.822 306.786 330.415C308.076 330.008 309.266 329.334 310.279 328.437C311.291 327.539 312.103 326.438 312.662 325.206L316.4 316.946C317.369 314.813 319.081 313.106 321.218 312.145C323.354 311.184 325.767 311.034 328.006 311.724L331.73 312.858C333.266 313.331 334.895 313.412 336.47 313.094C338.045 312.775 339.515 312.067 340.746 311.033C341.977 310 342.929 308.675 343.516 307.179C344.103 305.684 344.306 304.064 344.106 302.47C343.808 300.054 344.435 297.615 345.86 295.641C347.286 293.668 349.405 292.306 351.792 291.83L353.024 291.592C354.432 291.322 355.763 290.742 356.918 289.892C358.073 289.043 359.024 287.947 359.702 286.683C360.379 285.419 360.766 284.02 360.834 282.588C360.902 281.156 360.649 279.726 360.094 278.404Z" fill="#00C0B1"/>
<path opacity="0.3" d="M360.094 278.404L284.76 96.46H274.26L198.912 278.46C198.37 279.775 198.125 281.193 198.195 282.613C198.265 284.034 198.648 285.421 199.317 286.676C199.986 287.931 200.924 289.022 202.064 289.872C203.204 290.722 204.518 291.309 205.912 291.592L207.144 291.83C209.532 292.303 211.652 293.665 213.075 295.639C214.499 297.614 215.121 300.055 214.816 302.47C214.62 304.065 214.826 305.684 215.415 307.18C216.003 308.676 216.957 310 218.188 311.034C219.419 312.067 220.889 312.777 222.464 313.098C224.038 313.419 225.669 313.341 227.206 312.872L230.93 311.724C233.167 311.035 235.578 311.185 237.712 312.147C239.846 313.108 241.556 314.814 242.522 316.946L246.274 325.206C246.833 326.438 247.645 327.539 248.657 328.437C249.67 329.334 250.86 330.008 252.151 330.415C253.441 330.822 254.803 330.952 256.147 330.798C257.491 330.643 258.788 330.207 259.952 329.518L274.568 320.852C276.051 319.971 277.743 319.506 279.468 319.506C281.193 319.506 282.885 319.971 284.368 320.852L298.984 329.518C300.148 330.207 301.445 330.643 302.789 330.798C304.133 330.952 305.495 330.822 306.786 330.415C308.076 330.008 309.266 329.334 310.279 328.437C311.291 327.539 312.103 326.438 312.662 325.206L316.4 316.946C317.369 314.813 319.081 313.106 321.218 312.145C323.354 311.184 325.767 311.034 328.006 311.724L331.73 312.858C333.266 313.331 334.895 313.412 336.47 313.094C338.045 312.775 339.515 312.067 340.746 311.033C341.977 310 342.929 308.675 343.516 307.179C344.103 305.684 344.306 304.064 344.106 302.47C343.808 300.054 344.435 297.615 345.86 295.641C347.286 293.668 349.405 292.306 351.792 291.83L353.024 291.592C354.432 291.322 355.763 290.742 356.918 289.892C358.073 289.043 359.024 287.947 359.702 286.683C360.379 285.419 360.766 284.02 360.834 282.588C360.902 281.156 360.649 279.726 360.094 278.404Z" fill="black"/>
<path opacity="0.1" d="M265.846 116.788L274.246 97.664H284.746L298.662 130.074L344.134 239.876C343.916 241.03 343.34 242.087 342.488 242.896C341.637 243.705 340.552 244.225 339.388 244.384C337.542 244.688 335.885 245.691 334.759 247.185C333.632 248.678 333.124 250.548 333.34 252.406L333.494 253.806C333.641 255.047 333.465 256.304 332.984 257.457C332.503 258.61 331.732 259.62 330.747 260.388C329.762 261.157 328.595 261.658 327.36 261.844C326.124 262.03 324.862 261.894 323.694 261.45L319.97 260.05C318.231 259.388 316.305 259.416 314.587 260.129C312.868 260.843 311.488 262.187 310.73 263.886L306.11 274.26C305.688 275.198 305.073 276.036 304.305 276.72C303.536 277.404 302.632 277.918 301.652 278.229C300.671 278.539 299.636 278.639 298.615 278.522C297.593 278.405 296.607 278.074 295.722 277.55L283.234 269.15C282.106 268.477 280.817 268.121 279.503 268.121C278.189 268.121 276.9 268.477 275.772 269.15L261.842 277.55C260.957 278.074 259.971 278.405 258.949 278.522C257.928 278.639 256.893 278.539 255.912 278.229C254.932 277.918 254.028 277.404 253.259 276.72C252.491 276.036 251.876 275.198 251.454 274.26L246.834 263.886C246.076 262.187 244.696 260.843 242.977 260.129C241.259 259.416 239.333 259.388 237.594 260.05L233.87 261.45C232.702 261.89 231.441 262.023 230.207 261.835C228.974 261.647 227.809 261.146 226.825 260.378C225.841 259.611 225.071 258.603 224.588 257.452C224.106 256.301 223.927 255.046 224.07 253.806L224.238 252.406C224.454 250.548 223.946 248.678 222.82 247.185C221.693 245.691 220.036 244.688 218.19 244.384C217.357 244.274 216.56 243.975 215.861 243.509C215.162 243.043 214.58 242.423 214.158 241.696L265.846 116.788Z" fill="black"/>
<path d="M343.294 225.512L284.76 89.194H274.26L214.2 225.512C212.044 229.894 213.276 235.116 218.106 235.914C219.952 236.218 221.609 237.221 222.736 238.715C223.862 240.208 224.37 242.078 224.154 243.936L223.986 245.336C223.845 246.576 224.024 247.831 224.507 248.982C224.989 250.133 225.759 251.14 226.742 251.909C227.725 252.677 228.889 253.18 230.122 253.37C231.356 253.56 232.617 253.431 233.786 252.994L237.51 251.594C239.249 250.932 241.175 250.96 242.893 251.673C244.612 252.387 245.992 253.731 246.75 255.43L251.37 265.804C251.788 266.745 252.402 267.587 253.17 268.273C253.937 268.959 254.842 269.475 255.824 269.786C256.806 270.097 257.842 270.196 258.865 270.077C259.888 269.957 260.874 269.623 261.758 269.094L275.688 260.778C276.816 260.105 278.105 259.749 279.419 259.749C280.733 259.749 282.022 260.105 283.15 260.778L295.638 269.094C296.522 269.623 297.508 269.957 298.531 270.077C299.554 270.196 300.59 270.097 301.572 269.786C302.554 269.475 303.459 268.959 304.226 268.273C304.994 267.587 305.608 266.745 306.026 265.804L310.646 255.43C311.404 253.731 312.784 252.387 314.503 251.673C316.221 250.96 318.147 250.932 319.886 251.594L323.61 252.994C324.779 253.435 326.042 253.568 327.277 253.379C328.512 253.191 329.678 252.688 330.662 251.919C331.646 251.15 332.416 250.14 332.897 248.987C333.379 247.834 333.555 246.577 333.41 245.336L333.256 243.936C333.04 242.076 333.548 240.205 334.673 238.709C335.799 237.213 337.457 236.207 339.304 235.9C344.232 235.116 345.464 229.894 343.294 225.512Z" fill="#00C0B1"/>
<path opacity="0.2" d="M343.294 225.512L284.76 89.194H274.26L214.2 225.512C212.044 229.894 213.276 235.116 218.106 235.914C219.952 236.218 221.609 237.221 222.736 238.715C223.862 240.208 224.37 242.078 224.154 243.936L223.986 245.336C223.845 246.576 224.024 247.831 224.507 248.982C224.989 250.133 225.759 251.14 226.742 251.909C227.725 252.677 228.889 253.18 230.122 253.37C231.356 253.56 232.617 253.431 233.786 252.994L237.51 251.594C239.249 250.932 241.175 250.96 242.893 251.673C244.612 252.387 245.992 253.731 246.75 255.43L251.37 265.804C251.788 266.745 252.402 267.587 253.17 268.273C253.937 268.959 254.842 269.475 255.824 269.786C256.806 270.097 257.842 270.196 258.865 270.077C259.888 269.957 260.874 269.623 261.758 269.094L275.688 260.778C276.816 260.105 278.105 259.749 279.419 259.749C280.733 259.749 282.022 260.105 283.15 260.778L295.638 269.094C296.522 269.623 297.508 269.957 298.531 270.077C299.554 270.196 300.59 270.097 301.572 269.786C302.554 269.475 303.459 268.959 304.226 268.273C304.994 267.587 305.608 266.745 306.026 265.804L310.646 255.43C311.404 253.731 312.784 252.387 314.503 251.673C316.221 250.96 318.147 250.932 319.886 251.594L323.61 252.994C324.779 253.435 326.042 253.568 327.277 253.379C328.512 253.191 329.678 252.688 330.662 251.919C331.646 251.15 332.416 250.14 332.897 248.987C333.379 247.834 333.555 246.577 333.41 245.336L333.256 243.936C333.04 242.076 333.548 240.205 334.673 238.709C335.799 237.213 337.457 236.207 339.304 235.9C344.232 235.116 345.464 229.894 343.294 225.512Z" fill="black"/>
<path opacity="0.1" d="M274.26 89.194H284.76L327.418 188.524C327.088 188.815 326.726 189.069 326.34 189.28L326.018 189.462C324.921 190.083 324.024 191.005 323.434 192.118C322.843 193.232 322.584 194.492 322.686 195.748C322.777 196.795 322.615 197.849 322.213 198.821C321.811 199.792 321.181 200.653 320.377 201.33C319.572 202.007 318.617 202.48 317.591 202.71C316.565 202.94 315.498 202.919 314.482 202.65L311.934 201.978C310.508 201.602 308.997 201.719 307.646 202.308C306.294 202.897 305.181 203.926 304.486 205.226L301 211.736C300.18 213.255 298.796 214.391 297.146 214.899C295.496 215.408 293.713 215.247 292.18 214.452L282.548 209.412C281.61 208.923 280.568 208.667 279.51 208.667C278.452 208.667 277.41 208.923 276.472 209.412L266.84 214.452C265.308 215.247 263.524 215.408 261.874 214.899C260.224 214.391 258.84 213.255 258.02 211.736L254.534 205.226C253.837 203.924 252.721 202.896 251.367 202.307C250.013 201.717 248.5 201.601 247.072 201.978L244.538 202.65C243.522 202.919 242.455 202.94 241.429 202.71C240.403 202.48 239.448 202.007 238.643 201.33C237.839 200.653 237.209 199.792 236.807 198.821C236.405 197.849 236.243 196.795 236.334 195.748C236.439 194.493 236.18 193.235 235.589 192.123C234.998 191.011 234.1 190.092 233.002 189.476L232.68 189.294C231.991 188.898 231.38 188.381 230.874 187.768L274.26 89.194Z" fill="black"/>
<path d="M328.72 171.892L284.718 79.394L284.368 78.834C283.878 77.9788 283.17 77.2682 282.317 76.7741C281.464 76.2799 280.496 76.0197 279.51 76.0197C278.524 76.0197 277.556 76.2799 276.703 76.7741C275.85 77.2682 275.142 77.9788 274.652 78.834L274.302 79.408L230.3 171.892C229.834 172.645 229.526 173.485 229.393 174.36C229.261 175.236 229.307 176.129 229.53 176.986C229.752 177.843 230.146 178.646 230.687 179.347C231.229 180.047 231.907 180.631 232.68 181.062L233.002 181.244C234.099 181.861 234.996 182.78 235.587 183.892C236.177 185.004 236.437 186.261 236.334 187.516C236.243 188.563 236.405 189.617 236.807 190.589C237.209 191.56 237.839 192.421 238.643 193.098C239.448 193.775 240.403 194.248 241.429 194.478C242.455 194.708 243.522 194.687 244.538 194.418L247.072 193.746C248.5 193.372 250.012 193.489 251.365 194.078C252.719 194.667 253.835 195.694 254.534 196.994L258.02 203.504C258.837 205.026 260.221 206.164 261.872 206.673C263.523 207.181 265.308 207.019 266.84 206.22L276.472 201.194C277.41 200.705 278.452 200.449 279.51 200.449C280.568 200.449 281.61 200.705 282.548 201.194L292.18 206.22C293.712 207.019 295.497 207.181 297.148 206.673C298.799 206.164 300.183 205.026 301 203.504L304.486 196.994C305.183 195.695 306.296 194.669 307.647 194.08C308.998 193.49 310.508 193.373 311.934 193.746L314.482 194.418C315.498 194.687 316.565 194.708 317.591 194.478C318.617 194.248 319.572 193.775 320.377 193.098C321.181 192.421 321.811 191.56 322.213 190.589C322.615 189.617 322.777 188.563 322.686 187.516C322.583 186.261 322.843 185.004 323.433 183.892C324.024 182.78 324.921 181.861 326.018 181.244L326.34 181.062C327.113 180.631 327.791 180.047 328.333 179.347C328.874 178.646 329.268 177.843 329.49 176.986C329.713 176.129 329.759 175.236 329.627 174.36C329.494 173.485 329.186 172.645 328.72 171.892Z" fill="#00C0B1"/>
<path opacity="0.1" d="M328.72 171.892L284.718 79.394L284.368 78.834C283.878 77.9788 283.17 77.2682 282.317 76.7741C281.464 76.2799 280.496 76.0197 279.51 76.0197C278.524 76.0197 277.556 76.2799 276.703 76.7741C275.85 77.2682 275.142 77.9788 274.652 78.834L274.302 79.408L230.3 171.892C229.834 172.645 229.526 173.485 229.393 174.36C229.261 175.236 229.307 176.129 229.53 176.986C229.752 177.843 230.146 178.646 230.687 179.347C231.229 180.047 231.907 180.631 232.68 181.062L233.002 181.244C234.099 181.861 234.996 182.78 235.587 183.892C236.177 185.004 236.437 186.261 236.334 187.516C236.243 188.563 236.405 189.617 236.807 190.589C237.209 191.56 237.839 192.421 238.643 193.098C239.448 193.775 240.403 194.248 241.429 194.478C242.455 194.708 243.522 194.687 244.538 194.418L247.072 193.746C248.5 193.372 250.012 193.489 251.365 194.078C252.719 194.667 253.835 195.694 254.534 196.994L258.02 203.504C258.837 205.026 260.221 206.164 261.872 206.673C263.523 207.181 265.308 207.019 266.84 206.22L276.472 201.194C277.41 200.705 278.452 200.449 279.51 200.449C280.568 200.449 281.61 200.705 282.548 201.194L292.18 206.22C293.712 207.019 295.497 207.181 297.148 206.673C298.799 206.164 300.183 205.026 301 203.504L304.486 196.994C305.183 195.695 306.296 194.669 307.647 194.08C308.998 193.49 310.508 193.373 311.934 193.746L314.482 194.418C315.498 194.687 316.565 194.708 317.591 194.478C318.617 194.248 319.572 193.775 320.377 193.098C321.181 192.421 321.811 191.56 322.213 190.589C322.615 189.617 322.777 188.563 322.686 187.516C322.583 186.261 322.843 185.004 323.433 183.892C324.024 182.78 324.921 181.861 326.018 181.244L326.34 181.062C327.113 180.631 327.791 180.047 328.333 179.347C328.874 178.646 329.268 177.843 329.49 176.986C329.713 176.129 329.759 175.236 329.627 174.36C329.494 173.485 329.186 172.645 328.72 171.892Z" fill="black"/>
<path d="M273.644 355.348C273.561 353.423 272.737 351.605 271.346 350.272C269.954 348.939 268.102 348.195 266.175 348.195C264.248 348.195 262.396 348.939 261.004 350.272C259.613 351.605 258.789 353.423 258.706 355.348V355.768C258.816 356.377 259.073 356.949 259.453 357.437C259.833 357.925 260.327 358.313 260.89 358.568C262.529 359.396 264.339 359.828 266.175 359.828C268.011 359.828 269.821 359.396 271.46 358.568C272.022 358.311 272.514 357.922 272.894 357.435C273.274 356.947 273.531 356.376 273.644 355.768V355.348Z" fill="#37474F"/>
<path d="M271.46 358.61C272.022 358.353 272.514 357.964 272.894 357.477C273.274 356.989 273.531 356.418 273.644 355.81V355.39C273.607 354.085 273.228 352.812 272.545 351.699C271.862 350.586 270.899 349.672 269.752 349.048C269.752 349.132 273.476 353.738 270.76 356.818C268.884 358.946 262.36 359.338 259.56 357.658C259.933 358.057 260.368 358.392 260.848 358.652C262.495 359.48 264.315 359.908 266.159 359.901C268.003 359.894 269.819 359.451 271.46 358.61Z" fill="#263238"/>
<path d="M261.562 359.114C261.492 357.763 260.907 356.49 259.926 355.559C258.945 354.627 257.644 354.108 256.291 354.108C254.938 354.108 253.637 354.627 252.656 355.559C251.675 356.49 251.09 357.763 251.02 359.114V359.408C251.094 359.842 251.273 360.251 251.542 360.6C251.81 360.949 252.16 361.227 252.56 361.41C253.716 361.997 254.994 362.302 256.291 362.302C257.588 362.302 258.866 361.997 260.022 361.41C260.422 361.227 260.772 360.949 261.04 360.6C261.309 360.251 261.488 359.842 261.562 359.408C261.569 359.357 261.569 359.305 261.562 359.254C261.569 359.208 261.569 359.16 261.562 359.114Z" fill="#455A64"/>
<path d="M260.022 361.41C260.422 361.227 260.772 360.949 261.04 360.6C261.309 360.251 261.488 359.842 261.562 359.408C261.569 359.357 261.569 359.305 261.562 359.254C261.569 359.208 261.569 359.16 261.562 359.114C261.547 358.515 261.429 357.923 261.212 357.364C261.338 359.618 260.274 360.99 256.942 361.424C253.61 361.858 251.426 360.43 251.146 359.912C251.422 360.56 251.918 361.091 252.546 361.41C253.704 361.999 254.985 362.306 256.284 362.306C257.583 362.306 258.864 361.999 260.022 361.41Z" fill="#37474F"/>
<path d="M300.244 353.836C300.175 352.496 299.593 351.234 298.62 350.31C297.647 349.386 296.357 348.871 295.015 348.871C293.673 348.871 292.383 349.386 291.41 350.31C290.437 351.234 289.855 352.496 289.786 353.836C289.779 353.882 289.779 353.93 289.786 353.976C289.779 354.027 289.779 354.079 289.786 354.13C289.855 354.562 290.031 354.97 290.297 355.317C290.564 355.664 290.912 355.94 291.312 356.118C292.46 356.698 293.729 357 295.015 357C296.301 357 297.57 356.698 298.718 356.118C299.115 355.937 299.462 355.66 299.728 355.314C299.994 354.967 300.171 354.561 300.244 354.13V353.836Z" fill="#455A64"/>
<path d="M298.718 356.118C299.115 355.937 299.462 355.66 299.728 355.314C299.994 354.967 300.171 354.561 300.244 354.13V353.836C300.231 353.241 300.112 352.653 299.894 352.1C300.02 354.34 298.956 355.698 295.694 356.118C292.432 356.538 290.22 355.138 289.94 354.634C290.221 355.276 290.716 355.8 291.34 356.118C292.485 356.693 293.748 356.993 295.029 356.993C296.31 356.993 297.573 356.693 298.718 356.118Z" fill="#37474F"/>
<path d="M147.7 338.198V500.024C147.7 501.97 146.412 503.916 143.85 505.4C140.968 506.857 137.783 507.616 134.554 507.616C131.325 507.616 128.14 506.857 125.258 505.4C122.696 503.916 121.422 501.97 121.422 500.024V338.198H147.7Z" fill="#B16668"/>
<path d="M47.474 421.96L128.884 225.4H140.224L221.648 422.044C222.236 423.465 222.502 425 222.426 426.536C222.35 428.073 221.934 429.573 221.209 430.93C220.483 432.286 219.465 433.465 218.229 434.381C216.993 435.297 215.569 435.927 214.06 436.226L212.66 436.492C210.081 437.006 207.791 438.476 206.251 440.608C204.712 442.74 204.035 445.376 204.358 447.986C204.568 449.708 204.344 451.454 203.706 453.067C203.069 454.68 202.038 456.108 200.708 457.221C199.378 458.334 197.791 459.097 196.091 459.44C194.391 459.783 192.632 459.696 190.974 459.186L186.956 457.954C184.534 457.188 181.916 457.335 179.595 458.366C177.274 459.398 175.41 461.243 174.356 463.554L170.31 472.486C169.706 473.818 168.828 475.007 167.733 475.977C166.638 476.947 165.352 477.674 163.956 478.113C162.561 478.552 161.089 478.691 159.637 478.522C158.184 478.354 156.783 477.881 155.526 477.134L139.86 467.768C138.253 466.82 136.42 466.32 134.554 466.32C132.688 466.32 130.856 466.82 129.248 467.768L113.4 477.134C112.143 477.881 110.742 478.354 109.289 478.522C107.837 478.691 106.365 478.552 104.97 478.113C103.575 477.674 102.288 476.947 101.193 475.977C100.098 475.007 99.22 473.818 98.616 472.486L94.57 463.554C93.5157 461.243 91.6523 459.398 89.3312 458.366C87.0101 457.335 84.3918 457.188 81.97 457.954L77.938 459.186C76.2803 459.696 74.5215 459.783 72.8214 459.44C71.1214 459.097 69.5342 458.334 68.2041 457.221C66.874 456.108 65.8434 454.68 65.2059 453.067C64.5684 451.454 64.3443 449.708 64.554 447.986C64.8841 445.377 64.2123 442.74 62.6741 440.606C61.1359 438.473 58.8459 437.003 56.266 436.492L54.866 436.226C53.3637 435.905 51.951 435.256 50.7294 434.325C49.5079 433.393 48.5078 432.203 47.8011 430.839C47.0944 429.475 46.6985 427.971 46.6419 426.436C46.5854 424.901 46.8696 423.372 47.474 421.96Z" fill="#00C0B1"/>
<path opacity="0.3" d="M47.474 421.96L128.884 225.4H140.224L221.648 422.044C222.236 423.465 222.502 425 222.426 426.536C222.35 428.073 221.934 429.573 221.209 430.93C220.483 432.286 219.465 433.465 218.229 434.381C216.993 435.297 215.569 435.927 214.06 436.226L212.66 436.492C210.081 437.006 207.791 438.476 206.251 440.608C204.712 442.74 204.035 445.376 204.358 447.986C204.568 449.708 204.344 451.454 203.706 453.067C203.069 454.68 202.038 456.108 200.708 457.221C199.378 458.334 197.791 459.097 196.091 459.44C194.391 459.783 192.632 459.696 190.974 459.186L186.956 457.954C184.534 457.188 181.916 457.335 179.595 458.366C177.274 459.398 175.41 461.243 174.356 463.554L170.31 472.486C169.706 473.818 168.828 475.007 167.733 475.977C166.638 476.947 165.352 477.674 163.956 478.113C162.561 478.552 161.089 478.691 159.637 478.522C158.184 478.354 156.783 477.881 155.526 477.134L139.86 467.768C138.253 466.82 136.42 466.32 134.554 466.32C132.688 466.32 130.856 466.82 129.248 467.768L113.4 477.134C112.143 477.881 110.742 478.354 109.289 478.522C107.837 478.691 106.365 478.552 104.97 478.113C103.575 477.674 102.288 476.947 101.193 475.977C100.098 475.007 99.22 473.818 98.616 472.486L94.57 463.554C93.5157 461.243 91.6523 459.398 89.3312 458.366C87.0101 457.335 84.3918 457.188 81.97 457.954L77.938 459.186C76.2803 459.696 74.5215 459.783 72.8214 459.44C71.1214 459.097 69.5342 458.334 68.2041 457.221C66.874 456.108 65.8434 454.68 65.2059 453.067C64.5684 451.454 64.3443 449.708 64.554 447.986C64.8841 445.377 64.2123 442.74 62.6741 440.606C61.1359 438.473 58.8459 437.003 56.266 436.492L54.866 436.226C53.3637 435.905 51.951 435.256 50.7294 434.325C49.5079 433.393 48.5078 432.203 47.8011 430.839C47.0944 429.475 46.6985 427.971 46.6419 426.436C46.5854 424.901 46.8696 423.372 47.474 421.96Z" fill="black"/>
<path opacity="0.1" d="M149.324 247.296L140.224 226.632H128.884L113.848 261.632L64.708 380.296C64.9457 381.54 65.5681 382.679 66.4875 383.55C67.4069 384.422 68.5767 384.983 69.832 385.154C71.8274 385.486 73.6189 386.572 74.8359 388.187C76.0529 389.803 76.6021 391.825 76.37 393.834L76.202 395.346C76.0465 396.688 76.2392 398.048 76.7617 399.294C77.2841 400.54 78.1187 401.631 79.185 402.461C80.2512 403.29 81.5132 403.832 82.8495 404.032C84.1857 404.233 85.551 404.086 86.814 403.606L90.832 402.066C92.7192 401.354 94.8074 401.393 96.6669 402.174C98.5264 402.956 100.016 404.42 100.828 406.266L105.812 417.466C106.263 418.481 106.924 419.388 107.751 420.129C108.579 420.87 109.554 421.426 110.612 421.762C111.671 422.098 112.789 422.206 113.892 422.078C114.995 421.951 116.058 421.591 117.012 421.022L130.522 412.034C131.738 411.306 133.129 410.922 134.547 410.922C135.965 410.922 137.356 411.306 138.572 412.034L153.65 421.022C154.604 421.589 155.668 421.947 156.77 422.073C157.873 422.2 158.99 422.091 160.047 421.755C161.105 421.42 162.08 420.864 162.908 420.125C163.735 419.385 164.397 418.479 164.85 417.466L169.834 406.266C170.646 404.42 172.136 402.956 173.995 402.174C175.855 401.393 177.943 401.354 179.83 402.066L183.848 403.606C185.111 404.086 186.476 404.233 187.813 404.032C189.149 403.832 190.411 403.29 191.477 402.461C192.543 401.631 193.378 400.54 193.9 399.294C194.423 398.048 194.616 396.688 194.46 395.346L194.292 393.834C194.06 391.825 194.609 389.803 195.826 388.187C197.043 386.572 198.835 385.486 200.83 385.154C201.729 385.038 202.59 384.716 203.345 384.213C204.1 383.711 204.729 383.041 205.184 382.256L149.324 247.296Z" fill="black"/>
<path d="M65.618 364.784L128.884 217.476H140.224L205.072 364.784C207.396 369.53 206.066 375.172 200.872 375.984C198.877 376.316 197.085 377.402 195.868 379.017C194.651 380.633 194.102 382.655 194.334 384.664L194.502 386.162C194.658 387.504 194.465 388.864 193.942 390.11C193.42 391.356 192.585 392.447 191.519 393.277C190.453 394.106 189.191 394.648 187.855 394.848C186.518 395.049 185.153 394.902 183.89 394.422L179.872 392.896C177.985 392.184 175.897 392.223 174.037 393.004C172.178 393.786 170.688 395.25 169.876 397.096L164.892 408.296C164.438 409.308 163.775 410.212 162.947 410.95C162.119 411.688 161.144 412.243 160.087 412.579C159.03 412.914 157.914 413.023 156.812 412.898C155.71 412.773 154.647 412.416 153.692 411.852L138.6 402.85C137.384 402.122 135.993 401.738 134.575 401.738C133.157 401.738 131.766 402.122 130.55 402.85L117.04 411.852C116.085 412.416 115.022 412.773 113.92 412.898C112.818 413.023 111.702 412.914 110.645 412.579C109.588 412.243 108.613 411.688 107.785 410.95C106.957 410.212 106.294 409.308 105.84 408.296L100.856 397.096C100.044 395.25 98.5544 393.786 96.6949 393.004C94.8354 392.223 92.7472 392.184 90.86 392.896L86.8 394.464C85.537 394.944 84.1717 395.091 82.8355 394.89C81.4992 394.69 80.2372 394.148 79.171 393.319C78.1047 392.489 77.2701 391.398 76.7477 390.152C76.2252 388.906 76.0325 387.546 76.188 386.204L76.356 384.692C76.5878 382.684 76.0382 380.664 74.8209 379.051C73.6037 377.437 71.8123 376.354 69.818 376.026C64.624 375.2 63.28 369.516 65.618 364.784Z" fill="#00C0B1"/>
<path opacity="0.2" d="M65.618 364.784L128.884 217.476H140.224L205.072 364.784C207.396 369.53 206.066 375.172 200.872 375.984C198.877 376.316 197.085 377.402 195.868 379.017C194.651 380.633 194.102 382.655 194.334 384.664L194.502 386.162C194.658 387.504 194.465 388.864 193.942 390.11C193.42 391.356 192.585 392.447 191.519 393.277C190.453 394.106 189.191 394.648 187.855 394.848C186.518 395.049 185.153 394.902 183.89 394.422L179.872 392.896C177.985 392.184 175.897 392.223 174.037 393.004C172.178 393.786 170.688 395.25 169.876 397.096L164.892 408.296C164.438 409.308 163.775 410.212 162.947 410.95C162.119 411.688 161.144 412.243 160.087 412.579C159.03 412.914 157.914 413.023 156.812 412.898C155.71 412.773 154.647 412.416 153.692 411.852L138.6 402.85C137.384 402.122 135.993 401.738 134.575 401.738C133.157 401.738 131.766 402.122 130.55 402.85L117.04 411.852C116.085 412.416 115.022 412.773 113.92 412.898C112.818 413.023 111.702 412.914 110.645 412.579C109.588 412.243 108.613 411.688 107.785 410.95C106.957 410.212 106.294 409.308 105.84 408.296L100.856 397.096C100.044 395.25 98.5544 393.786 96.6949 393.004C94.8354 392.223 92.7472 392.184 90.86 392.896L86.8 394.464C85.537 394.944 84.1717 395.091 82.8355 394.89C81.4992 394.69 80.2372 394.148 79.171 393.319C78.1047 392.489 77.2701 391.398 76.7477 390.152C76.2252 388.906 76.0325 387.546 76.188 386.204L76.356 384.692C76.5878 382.684 76.0382 380.664 74.8209 379.051C73.6037 377.437 71.8123 376.354 69.818 376.026C64.624 375.2 63.28 369.516 65.618 364.784Z" fill="black"/>
<path opacity="0.1" d="M140.224 217.476H128.884L82.782 324.8C83.1404 325.11 83.5298 325.382 83.944 325.612L84.294 325.808C85.4834 326.474 86.4555 327.468 87.0937 328.673C87.7319 329.877 88.0091 331.24 87.892 332.598C87.7965 333.73 87.9742 334.869 88.4101 335.918C88.8461 336.967 89.5276 337.897 90.3973 338.628C91.2671 339.359 92.2996 339.871 93.4082 340.12C94.5168 340.369 95.6691 340.349 96.768 340.06L99.568 339.332C101.108 338.923 102.741 339.046 104.202 339.681C105.663 340.317 106.867 341.427 107.618 342.832L111.398 349.832C112.278 351.477 113.772 352.708 115.555 353.256C117.339 353.804 119.266 353.625 120.918 352.758L131.334 347.326C132.345 346.789 133.472 346.508 134.617 346.508C135.762 346.508 136.889 346.789 137.9 347.326L148.302 352.758C149.957 353.622 151.885 353.799 153.669 353.252C155.454 352.704 156.951 351.475 157.836 349.832L161.602 342.832C162.358 341.428 163.564 340.318 165.027 339.683C166.49 339.048 168.124 338.925 169.666 339.332L172.466 340.06C173.564 340.349 174.716 340.37 175.824 340.121C176.932 339.872 177.964 339.36 178.833 338.629C179.702 337.897 180.382 336.967 180.816 335.918C181.251 334.868 181.426 333.73 181.328 332.598C181.216 331.243 181.495 329.883 182.133 328.682C182.771 327.481 183.74 326.488 184.926 325.822L185.29 325.612C186.033 325.195 186.689 324.639 187.222 323.974L140.224 217.476Z" fill="black"/>
<path d="M81.382 306.852L128.982 206.892L129.346 206.29C129.875 205.365 130.639 204.596 131.561 204.061C132.483 203.526 133.53 203.245 134.596 203.245C135.662 203.245 136.709 203.526 137.631 204.061C138.553 204.596 139.317 205.365 139.846 206.29L140.238 206.906L187.838 306.852C188.34 307.666 188.672 308.573 188.815 309.518C188.958 310.464 188.908 311.428 188.668 312.354C188.429 313.279 188.005 314.147 187.422 314.905C186.839 315.663 186.109 316.295 185.276 316.764L184.912 316.96C183.726 317.626 182.757 318.619 182.119 319.82C181.481 321.021 181.202 322.381 181.314 323.736C181.412 324.868 181.237 326.006 180.802 327.056C180.368 328.105 179.688 329.035 178.819 329.767C177.95 330.498 176.918 331.01 175.81 331.259C174.702 331.508 173.55 331.487 172.452 331.198L169.652 330.47C168.11 330.063 166.476 330.186 165.013 330.821C163.55 331.456 162.344 332.566 161.588 333.97L157.822 340.97C156.937 342.613 155.44 343.842 153.656 344.39C151.871 344.937 149.943 344.76 148.288 343.896L137.886 338.464C136.875 337.927 135.748 337.646 134.603 337.646C133.458 337.646 132.331 337.927 131.32 338.464L120.904 343.896C119.252 344.763 117.325 344.942 115.541 344.394C113.758 343.846 112.264 342.615 111.384 340.97L107.604 333.97C106.853 332.565 105.649 331.455 104.188 330.819C102.727 330.184 101.094 330.061 99.554 330.47L96.754 331.198C95.6551 331.487 94.5028 331.507 93.3942 331.258C92.2856 331.009 91.2531 330.497 90.3833 329.766C89.5136 329.035 88.8321 328.105 88.3961 327.056C87.9602 326.007 87.7825 324.868 87.878 323.736C88.003 322.379 87.7292 321.015 87.09 319.811C86.4509 318.608 85.4743 317.617 84.28 316.96L83.93 316.75C83.0983 316.281 82.3699 315.65 81.7884 314.893C81.207 314.135 80.7847 313.269 80.5467 312.344C80.3087 311.42 80.26 310.457 80.4036 309.513C80.5471 308.569 80.8799 307.664 81.382 306.852Z" fill="#00C0B1"/>
<path opacity="0.1" d="M81.382 306.852L128.982 206.892L129.346 206.29C129.875 205.365 130.639 204.596 131.561 204.061C132.483 203.526 133.53 203.245 134.596 203.245C135.662 203.245 136.709 203.526 137.631 204.061C138.553 204.596 139.317 205.365 139.846 206.29L140.238 206.906L187.838 306.852C188.34 307.666 188.672 308.573 188.815 309.518C188.958 310.464 188.908 311.428 188.668 312.354C188.429 313.279 188.005 314.147 187.422 314.905C186.839 315.663 186.109 316.295 185.276 316.764L184.912 316.96C183.726 317.626 182.757 318.619 182.119 319.82C181.481 321.021 181.202 322.381 181.314 323.736C181.412 324.868 181.237 326.006 180.802 327.056C180.368 328.105 179.688 329.035 178.819 329.767C177.95 330.498 176.918 331.01 175.81 331.259C174.702 331.508 173.55 331.487 172.452 331.198L169.652 330.47C168.11 330.063 166.476 330.186 165.013 330.821C163.55 331.456 162.344 332.566 161.588 333.97L157.822 340.97C156.937 342.613 155.44 343.842 153.656 344.39C151.871 344.937 149.943 344.76 148.288 343.896L137.886 338.464C136.875 337.927 135.748 337.646 134.603 337.646C133.458 337.646 132.331 337.927 131.32 338.464L120.904 343.896C119.252 344.763 117.325 344.942 115.541 344.394C113.758 343.846 112.264 342.615 111.384 340.97L107.604 333.97C106.853 332.565 105.649 331.455 104.188 330.819C102.727 330.184 101.094 330.061 99.554 330.47L96.754 331.198C95.6551 331.487 94.5028 331.507 93.3942 331.258C92.2856 331.009 91.2531 330.497 90.3833 329.766C89.5136 329.035 88.8321 328.105 88.3961 327.056C87.9602 326.007 87.7825 324.868 87.878 323.736C88.003 322.379 87.7292 321.015 87.09 319.811C86.4509 318.608 85.4743 317.617 84.28 316.96L83.93 316.75C83.0983 316.281 82.3699 315.65 81.7884 314.893C81.207 314.135 80.7847 313.269 80.5467 312.344C80.3087 311.42 80.26 310.457 80.4036 309.513C80.5471 308.569 80.8799 307.664 81.382 306.852Z" fill="black"/>
<path d="M140.896 505.106C140.983 503.024 141.871 501.055 143.375 499.613C144.879 498.17 146.883 497.364 148.967 497.364C151.051 497.364 153.055 498.17 154.559 499.613C156.063 501.055 156.951 503.024 157.038 505.106V505.554C156.922 506.219 156.648 506.845 156.238 507.382C155.829 507.918 155.297 508.347 154.686 508.634C152.916 509.534 150.959 510.003 148.974 510.003C146.989 510.003 145.032 509.534 143.262 508.634C142.649 508.349 142.114 507.92 141.702 507.384C141.29 506.848 141.013 506.22 140.896 505.554V505.106Z" fill="#37474F"/>
<path d="M143.262 508.634C142.649 508.349 142.114 507.92 141.702 507.384C141.29 506.848 141.013 506.22 140.896 505.554V505.106C140.937 503.697 141.346 502.324 142.083 501.123C142.82 499.922 143.859 498.935 145.096 498.26C145.096 498.33 141.078 503.314 144.018 506.66C146.048 508.956 153.02 509.376 156.072 507.57C155.655 507.99 155.184 508.352 154.672 508.648C152.903 509.544 150.948 510.009 148.965 510.007C146.983 510.004 145.029 509.534 143.262 508.634Z" fill="#263238"/>
<path d="M154 509.166C154 507.655 154.6 506.206 155.669 505.137C156.737 504.068 158.187 503.468 159.698 503.468C161.209 503.468 162.659 504.068 163.727 505.137C164.796 506.206 165.396 507.655 165.396 509.166C165.402 509.217 165.402 509.269 165.396 509.32C165.403 509.376 165.403 509.432 165.396 509.488C165.318 509.959 165.126 510.403 164.835 510.782C164.545 511.161 164.165 511.461 163.73 511.658C162.481 512.293 161.099 512.623 159.698 512.623C158.297 512.623 156.915 512.293 155.666 511.658C155.235 511.456 154.858 511.154 154.568 510.776C154.278 510.399 154.083 509.957 154 509.488V509.166Z" fill="#455A64"/>
<path d="M155.61 511.658C155.179 511.456 154.802 511.154 154.512 510.776C154.222 510.399 154.027 509.957 153.944 509.488V509.166C153.966 508.518 154.099 507.879 154.336 507.276C154.196 509.726 155.344 511.196 158.956 511.658C162.568 512.12 164.906 510.594 165.214 510.034C164.908 510.74 164.363 511.315 163.674 511.658C162.425 512.293 161.043 512.623 159.642 512.623C158.241 512.623 156.859 512.293 155.61 511.658Z" fill="#37474F"/>
<path d="M112.154 503.468C112.154 501.97 112.749 500.533 113.809 499.474C114.868 498.414 116.305 497.819 117.803 497.819C119.301 497.819 120.738 498.414 121.797 499.474C122.857 500.533 123.452 501.97 123.452 503.468C123.471 503.57 123.471 503.674 123.452 503.776C123.382 504.246 123.194 504.691 122.905 505.068C122.616 505.445 122.236 505.742 121.8 505.932C120.561 506.56 119.192 506.888 117.803 506.888C116.414 506.888 115.045 506.56 113.806 505.932C113.375 505.735 113 505.435 112.712 505.06C112.424 504.684 112.232 504.243 112.154 503.776C112.135 503.674 112.135 503.57 112.154 503.468Z" fill="#455A64"/>
<path d="M113.806 505.932C113.375 505.735 113 505.435 112.712 505.06C112.424 504.684 112.232 504.243 112.154 503.776C112.135 503.674 112.135 503.57 112.154 503.468C112.169 502.825 112.297 502.19 112.532 501.592C112.392 504.014 113.54 505.484 117.11 505.946C120.68 506.408 123.018 504.882 123.326 504.322C123.021 505.02 122.481 505.59 121.8 505.932C120.561 506.56 119.192 506.888 117.803 506.888C116.414 506.888 115.045 506.56 113.806 505.932Z" fill="#37474F"/>
<path d="M309.12 518.462L317.324 513.772C317.324 513.772 321.258 492.1 318.318 473.466C314.118 447.272 296.352 438.242 289.87 440.846C283.388 443.45 281.876 451.206 293.566 466.34C300.468 475.272 309.4 494.2 309.12 518.462Z" fill="#00C0B1"/>
<path opacity="0.3" d="M309.12 518.462L317.324 513.772C317.324 513.772 321.258 492.1 318.318 473.466C314.118 447.272 296.352 438.242 289.87 440.846C283.388 443.45 281.876 451.206 293.566 466.34C300.468 475.272 309.4 494.2 309.12 518.462Z" fill="black"/>
<path d="M312.102 508.06H312.018C311.864 508.039 311.725 507.958 311.63 507.835C311.536 507.712 311.494 507.556 311.514 507.402C314.902 482.874 305.046 456.008 293.958 445.186C293.849 445.076 293.789 444.928 293.789 444.773C293.789 444.618 293.849 444.47 293.958 444.36C294.012 444.305 294.076 444.26 294.147 444.23C294.218 444.2 294.294 444.185 294.371 444.185C294.448 444.185 294.524 444.2 294.595 444.23C294.666 444.26 294.73 444.305 294.784 444.36C306.068 455.392 316.12 482.692 312.676 507.584C312.648 507.716 312.576 507.835 312.472 507.922C312.367 508.008 312.237 508.057 312.102 508.06Z" fill="white"/>
<path d="M286.37 531.594C285.082 532.35 282.408 530.712 281.386 530.026C279.63 528.835 278.212 527.209 277.27 525.308C276.206 523.139 275.848 520.691 276.248 518.308C276.451 517.056 276.746 515.821 277.13 514.612C277.466 513.408 277.816 512.218 278.152 511.014C278.578 509.855 278.759 508.62 278.684 507.388C278.376 504.938 276.192 503.188 274.204 501.788C272.216 500.388 269.724 497.98 269.738 495.026C269.899 492.728 270.815 490.548 272.342 488.824C273.742 487.032 275.436 485.45 276.724 483.56C277.727 482.243 278.251 480.623 278.208 478.968C278.066 477.956 277.728 476.981 277.214 476.098C276.01 474.268 274.956 472.344 274.064 470.344C273.636 469.332 273.502 468.22 273.678 467.135C273.854 466.05 274.332 465.037 275.058 464.212C275.782 463.676 276.605 463.288 277.48 463.072C278.355 462.856 279.263 462.815 280.154 462.952C281.833 463.159 283.448 463.727 284.886 464.618C289.576 467.222 292.264 472.794 297.248 474.796C299.219 475.421 301.231 475.912 303.268 476.266C304.291 476.457 305.262 476.86 306.12 477.448C306.979 478.036 307.705 478.797 308.252 479.682C310.072 483.336 306.684 487.83 307.972 491.708C309.106 495.138 312.438 496.454 314.314 499.548C315.076 500.915 315.38 502.49 315.182 504.042C315.017 506.665 314.376 509.236 313.292 511.63C312.066 514.015 310.662 516.303 309.092 518.476C309.05 518.532 286.58 531.482 286.37 531.594Z" fill="#00C0B1"/>
<path opacity="0.15" d="M286.37 531.594C285.082 532.35 282.408 530.712 281.386 530.026C279.63 528.835 278.212 527.209 277.27 525.308C276.206 523.139 275.848 520.691 276.248 518.308C276.451 517.056 276.746 515.821 277.13 514.612C277.466 513.408 277.816 512.218 278.152 511.014C278.578 509.855 278.759 508.62 278.684 507.388C278.376 504.938 276.192 503.188 274.204 501.788C272.216 500.388 269.724 497.98 269.738 495.026C269.899 492.728 270.815 490.548 272.342 488.824C273.742 487.032 275.436 485.45 276.724 483.56C277.727 482.243 278.251 480.623 278.208 478.968C278.066 477.956 277.728 476.981 277.214 476.098C276.01 474.268 274.956 472.344 274.064 470.344C273.636 469.332 273.502 468.22 273.678 467.135C273.854 466.05 274.332 465.037 275.058 464.212C275.782 463.676 276.605 463.288 277.48 463.072C278.355 462.856 279.263 462.815 280.154 462.952C281.833 463.159 283.448 463.727 284.886 464.618C289.576 467.222 292.264 472.794 297.248 474.796C299.219 475.421 301.231 475.912 303.268 476.266C304.291 476.457 305.262 476.86 306.12 477.448C306.979 478.036 307.705 478.797 308.252 479.682C310.072 483.336 306.684 487.83 307.972 491.708C309.106 495.138 312.438 496.454 314.314 499.548C315.076 500.915 315.38 502.49 315.182 504.042C315.017 506.665 314.376 509.236 313.292 511.63C312.066 514.015 310.662 516.303 309.092 518.476C309.05 518.532 286.58 531.482 286.37 531.594Z" fill="black"/>
<path d="M299.684 524.51C299.527 524.503 299.379 524.434 299.271 524.319C299.164 524.204 299.106 524.051 299.11 523.894C300.076 500.682 289.142 475.062 281.19 467.614C281.135 467.56 281.09 467.496 281.06 467.425C281.03 467.354 281.015 467.278 281.015 467.201C281.015 467.124 281.03 467.048 281.06 466.977C281.09 466.906 281.135 466.842 281.19 466.788C281.3 466.679 281.448 466.619 281.603 466.619C281.758 466.619 281.906 466.679 282.016 466.788C290.136 474.39 301.294 500.388 300.314 523.978C300.296 524.13 300.221 524.27 300.104 524.369C299.987 524.468 299.837 524.518 299.684 524.51Z" fill="white"/>
<path d="M296.212 497.084C296.152 497.096 296.09 497.096 296.03 497.084C290.544 495.575 284.912 494.664 279.23 494.368C279.146 494.381 279.06 494.376 278.979 494.353C278.897 494.329 278.822 494.289 278.757 494.234C278.693 494.178 278.641 494.11 278.605 494.033C278.57 493.956 278.552 493.872 278.552 493.787C278.552 493.702 278.57 493.618 278.605 493.541C278.641 493.464 278.693 493.396 278.757 493.34C278.822 493.285 278.897 493.245 278.979 493.221C279.06 493.198 279.146 493.193 279.23 493.206C285.026 493.517 290.772 494.455 296.366 496.006C296.513 496.057 296.635 496.162 296.708 496.3C296.781 496.438 296.798 496.598 296.758 496.748C296.709 496.851 296.632 496.937 296.535 496.997C296.438 497.057 296.326 497.087 296.212 497.084Z" fill="white"/>
<path d="M615.37 176.554C615.316 176.099 615.146 175.666 614.876 175.296C614.606 174.926 614.246 174.631 613.83 174.44C612.665 173.858 611.38 173.555 610.078 173.555C608.776 173.555 607.491 173.858 606.326 174.44C605.908 174.63 605.546 174.924 605.274 175.295C605.001 175.665 604.829 176.098 604.772 176.554V442.316C604.772 443.968 607.138 445.312 610.064 445.312C612.99 445.312 615.37 443.912 615.37 442.316V176.554Z" fill="#37474F"/>
<path d="M610.064 179.564C612.994 179.564 615.37 178.216 615.37 176.554C615.37 174.892 612.994 173.544 610.064 173.544C607.134 173.544 604.758 174.892 604.758 176.554C604.758 178.216 607.134 179.564 610.064 179.564Z" fill="#455A64"/>
<path d="M670.026 277.802L659.624 259.77L590.436 219.856L585.2 222.88V246.904L654.388 286.818L659.722 283.878L670.026 277.802Z" fill="#00C0B1"/>
<path d="M585.2 222.88L654.388 262.794L664.79 280.812L654.388 286.818L585.2 246.904V222.88Z" fill="#00C0B1"/>
<g opacity="0.3">
<path d="M585.2 222.88L654.388 262.794L664.818 280.868L654.388 286.818L585.2 246.904V222.88Z" fill="black"/>
</g>
<path opacity="0.1" d="M659.624 259.77L654.388 262.794L585.2 222.88L590.436 219.856L659.624 259.77Z" fill="black"/>
<path opacity="0.2" d="M654.388 262.794L659.624 259.77L670.026 277.802L664.818 280.868L654.388 262.794Z" fill="black"/>
<path d="M647.276 216.58L578.088 176.596L567.686 182.602L578.088 200.634L647.276 240.604V216.58Z" fill="#00C0B1"/>
<path d="M578.088 176.596L583.17 173.544L652.47 213.584L647.276 216.58L578.088 176.596Z" fill="#00C0B1"/>
<g opacity="0.4">
<path d="M578.088 176.596L583.17 173.544L652.47 213.584L647.276 216.58L578.088 176.596Z" fill="white"/>
</g>
<path d="M652.47 237.608L647.276 240.604V216.58L652.47 213.584V237.608Z" fill="#00C0B1"/>
<path opacity="0.1" d="M652.47 237.608L647.276 240.604V216.58L652.47 213.584V237.608Z" fill="black"/>
<path d="M629.79 290.836L560.602 250.852L550.2 256.858L560.602 274.89L629.79 314.86V290.836Z" fill="#00C0B1"/>
<path d="M560.602 250.852L565.698 247.8L634.984 287.84L629.79 290.836L560.602 250.852Z" fill="#00C0B1"/>
<g opacity="0.4">
<path d="M560.602 250.852L565.698 247.8L634.984 287.84L629.79 290.836L560.602 250.852Z" fill="white"/>
</g>
<path d="M634.984 311.864L629.79 314.86V290.836L634.984 287.84V311.864Z" fill="#00C0B1"/>
<path opacity="0.1" d="M634.984 311.864L629.79 314.86V290.836L634.984 287.84V311.864Z" fill="black"/>
<path d="M437.724 111.874C440.072 111.096 442.518 110.657 444.99 110.572C447.36 110.467 449.731 110.785 451.99 111.51C454.146 112.213 456.126 113.368 457.8 114.898C459.321 116.417 460.511 118.236 461.294 120.238C462.077 122.241 462.437 124.384 462.35 126.532C462.224 128.188 461.851 129.816 461.244 131.362C460.663 132.866 459.946 134.314 459.102 135.688C458.262 137.088 457.464 138.362 456.722 139.594C456.004 140.763 455.395 141.996 454.902 143.276C454.449 144.408 454.318 145.644 454.524 146.846C454.611 147.41 454.538 147.987 454.314 148.512C454.216 148.767 454.06 148.996 453.858 149.181C453.657 149.366 453.415 149.501 453.152 149.576L447.384 151.48C447.109 151.571 446.82 151.606 446.531 151.584C446.243 151.563 445.962 151.484 445.704 151.354C445.442 151.245 445.211 151.075 445.028 150.858C444.845 150.642 444.717 150.384 444.654 150.108C444.123 148.292 443.966 146.387 444.192 144.508C444.418 142.823 444.865 141.176 445.522 139.608C446.151 138.099 446.91 136.646 447.79 135.268C448.667 133.924 449.465 132.636 450.184 131.404C450.847 130.303 451.391 129.134 451.808 127.918C452.165 126.865 452.165 125.723 451.808 124.67C451.51 123.738 450.99 122.893 450.293 122.208C449.595 121.522 448.741 121.017 447.804 120.736C445.484 120.033 442.995 120.127 440.734 121.002C436.441 122.421 433.991 125.617 433.384 130.592C433.349 131.116 433.216 131.629 432.992 132.104C432.852 132.328 432.669 132.522 432.452 132.674C432.236 132.825 431.991 132.932 431.732 132.986L425.6 135.002C425.169 135.154 424.696 135.129 424.284 134.932C424.068 134.832 423.876 134.686 423.721 134.505C423.566 134.324 423.453 134.111 423.388 133.882C422.844 131.938 422.786 129.89 423.22 127.918C423.683 125.655 424.536 123.491 425.74 121.52C427.073 119.365 428.741 117.437 430.682 115.808C432.749 114.048 435.142 112.711 437.724 111.874ZM455 154C455.546 153.836 456.134 153.89 456.641 154.151C457.148 154.412 457.533 154.86 457.716 155.4L459.928 162.092C460.019 162.359 460.055 162.642 460.033 162.924C460.011 163.205 459.933 163.48 459.802 163.73C459.678 163.986 459.504 164.215 459.29 164.402C459.076 164.59 458.826 164.733 458.556 164.822L452.032 166.978C451.484 167.147 450.892 167.095 450.382 166.833C449.872 166.572 449.485 166.121 449.302 165.578L447.09 158.9C446.918 158.352 446.968 157.759 447.23 157.248C447.492 156.737 447.945 156.35 448.49 156.17L455 154Z" fill="#00C0B1"/>
<path d="M483.966 173.754C485.483 172.961 487.104 172.386 488.782 172.046C490.375 171.71 492.015 171.658 493.626 171.892C495.171 172.131 496.646 172.699 497.952 173.558C499.338 174.48 500.458 175.749 501.2 177.24C501.838 178.39 502.238 179.656 502.376 180.964C502.474 182.102 502.408 183.247 502.18 184.366C501.951 185.471 501.623 186.554 501.2 187.6L500.024 190.526C499.672 191.406 499.395 192.315 499.198 193.242C499.015 194.066 499.068 194.925 499.352 195.72C499.464 196.099 499.464 196.503 499.352 196.882C499.312 197.066 499.23 197.238 499.114 197.386C498.998 197.534 498.849 197.654 498.68 197.736L494.97 199.682C494.611 199.866 494.195 199.906 493.808 199.794C493.616 199.75 493.437 199.659 493.288 199.53C493.14 199.4 493.025 199.236 492.954 199.052C492.381 197.875 492.057 196.593 492.002 195.286C491.968 194.114 492.085 192.942 492.352 191.8C492.609 190.701 492.965 189.628 493.416 188.594C493.85 187.572 494.242 186.606 494.606 185.682C494.931 184.86 495.17 184.006 495.32 183.134C495.441 182.374 495.318 181.595 494.97 180.908C494.658 180.309 494.207 179.794 493.653 179.406C493.1 179.019 492.462 178.77 491.792 178.682C490.131 178.466 488.446 178.811 487.004 179.662C485.672 180.337 484.581 181.406 483.879 182.724C483.178 184.042 482.9 185.544 483.084 187.026C483.122 187.388 483.088 187.754 482.986 188.104C482.841 188.441 482.569 188.707 482.23 188.846L478.268 190.932C477.989 191.083 477.662 191.118 477.358 191.03C477.2 190.985 477.053 190.906 476.928 190.8C476.802 190.694 476.701 190.562 476.63 190.414C476.045 189.149 475.776 187.76 475.846 186.368C475.902 184.777 476.238 183.208 476.84 181.734C477.499 180.113 478.416 178.61 479.556 177.282C480.78 175.828 482.279 174.629 483.966 173.754ZM500.5 200.494C500.673 200.397 500.866 200.338 501.063 200.321C501.261 200.305 501.461 200.33 501.648 200.396C501.835 200.45 502.009 200.543 502.159 200.668C502.308 200.794 502.43 200.949 502.516 201.124L504.784 205.422C504.963 205.773 504.998 206.18 504.882 206.556C504.763 206.933 504.502 207.25 504.154 207.438L499.954 209.636C499.782 209.731 499.593 209.789 499.397 209.805C499.202 209.822 499.005 209.798 498.82 209.734C498.631 209.683 498.455 209.593 498.303 209.47C498.151 209.347 498.027 209.194 497.938 209.02L495.684 204.708C495.505 204.36 495.469 203.956 495.584 203.581C495.699 203.207 495.956 202.893 496.3 202.706L500.5 200.494Z" fill="#00C0B1"/>
<g opacity="0.2">
<path d="M483.966 173.754C485.483 172.961 487.104 172.386 488.782 172.046C490.375 171.71 492.015 171.658 493.626 171.892C495.171 172.131 496.646 172.699 497.952 173.558C499.338 174.48 500.458 175.749 501.2 177.24C501.838 178.39 502.238 179.656 502.376 180.964C502.474 182.102 502.408 183.247 502.18 184.366C501.951 185.471 501.623 186.554 501.2 187.6L500.024 190.526C499.672 191.406 499.395 192.315 499.198 193.242C499.015 194.066 499.068 194.925 499.352 195.72C499.464 196.099 499.464 196.503 499.352 196.882C499.312 197.066 499.23 197.238 499.114 197.386C498.998 197.534 498.849 197.654 498.68 197.736L494.97 199.682C494.611 199.866 494.195 199.906 493.808 199.794C493.616 199.75 493.437 199.659 493.288 199.53C493.14 199.4 493.025 199.236 492.954 199.052C492.381 197.875 492.057 196.593 492.002 195.286C491.968 194.114 492.085 192.942 492.352 191.8C492.609 190.701 492.965 189.628 493.416 188.594C493.85 187.572 494.242 186.606 494.606 185.682C494.931 184.86 495.17 184.006 495.32 183.134C495.441 182.374 495.318 181.595 494.97 180.908C494.658 180.309 494.207 179.794 493.653 179.406C493.1 179.019 492.462 178.77 491.792 178.682C490.131 178.466 488.446 178.811 487.004 179.662C485.672 180.337 484.581 181.406 483.879 182.724C483.178 184.042 482.9 185.544 483.084 187.026C483.122 187.388 483.088 187.754 482.986 188.104C482.841 188.441 482.569 188.707 482.23 188.846L478.268 190.932C477.989 191.083 477.662 191.118 477.358 191.03C477.2 190.985 477.053 190.906 476.928 190.8C476.802 190.694 476.701 190.562 476.63 190.414C476.045 189.149 475.776 187.76 475.846 186.368C475.902 184.777 476.238 183.208 476.84 181.734C477.499 180.113 478.416 178.61 479.556 177.282C480.78 175.828 482.279 174.629 483.966 173.754ZM500.5 200.494C500.673 200.397 500.866 200.338 501.063 200.321C501.261 200.305 501.461 200.33 501.648 200.396C501.835 200.45 502.009 200.543 502.159 200.668C502.308 200.794 502.43 200.949 502.516 201.124L504.784 205.422C504.963 205.773 504.998 206.18 504.882 206.556C504.763 206.933 504.502 207.25 504.154 207.438L499.954 209.636C499.782 209.731 499.593 209.789 499.397 209.805C499.202 209.822 499.005 209.798 498.82 209.734C498.631 209.683 498.455 209.593 498.303 209.47C498.151 209.347 498.027 209.194 497.938 209.02L495.684 204.708C495.505 204.36 495.469 203.956 495.584 203.581C495.699 203.207 495.956 202.893 496.3 202.706L500.5 200.494Z" fill="black"/>
</g>
<path d="M515.2 154.406C515.422 154.47 515.628 154.579 515.806 154.726C515.984 154.873 516.131 155.055 516.236 155.26C516.356 155.471 516.43 155.704 516.454 155.945C516.478 156.186 516.452 156.43 516.376 156.66L514.696 162.162C514.551 162.606 514.239 162.977 513.827 163.196C513.415 163.415 512.933 163.466 512.484 163.338L507.108 161.7C506.886 161.633 506.679 161.521 506.501 161.372C506.323 161.223 506.177 161.039 506.072 160.832C505.949 160.623 505.873 160.389 505.848 160.147C505.824 159.906 505.853 159.662 505.932 159.432L507.612 153.93C507.679 153.708 507.791 153.501 507.94 153.323C508.089 153.145 508.273 152.999 508.48 152.894C508.691 152.774 508.924 152.7 509.165 152.676C509.406 152.652 509.65 152.678 509.88 152.754L515.2 154.406ZM523.6 118.104C525.537 118.693 527.381 119.556 529.074 120.666C530.697 121.712 532.119 123.039 533.274 124.586C534.375 126.073 535.148 127.776 535.542 129.584C535.929 131.518 535.813 133.518 535.206 135.394C534.781 136.888 534.063 138.283 533.092 139.496C532.225 140.542 531.211 141.456 530.082 142.212C528.975 142.935 527.809 143.563 526.596 144.088L523.124 145.6C522.095 146.036 521.11 146.57 520.184 147.196C519.337 147.733 518.662 148.5 518.238 149.408C518.031 149.824 517.71 150.173 517.314 150.416C517.13 150.544 516.919 150.626 516.697 150.655C516.476 150.684 516.25 150.66 516.04 150.584L511.28 149.184C510.825 149.046 510.443 148.734 510.216 148.316C510.083 148.11 510.003 147.874 509.984 147.63C509.964 147.386 510.006 147.14 510.104 146.916C510.61 145.452 511.405 144.105 512.442 142.954C513.39 141.935 514.468 141.045 515.648 140.308C516.779 139.591 517.974 138.982 519.218 138.488C520.436 137.998 521.57 137.508 522.634 137.088C523.594 136.663 524.509 136.143 525.364 135.534C526.104 134.999 526.65 134.237 526.918 133.364C527.156 132.603 527.207 131.795 527.066 131.01C526.924 130.225 526.595 129.486 526.106 128.856C524.891 127.289 523.185 126.175 521.262 125.692C519.577 125.149 517.766 125.139 516.075 125.662C514.384 126.186 512.895 127.218 511.812 128.618C511.54 128.951 511.213 129.235 510.846 129.458C510.437 129.621 509.981 129.621 509.572 129.458L504.504 127.918C504.148 127.803 503.845 127.565 503.65 127.246C503.555 127.074 503.497 126.885 503.481 126.689C503.464 126.494 503.488 126.297 503.552 126.112C504.111 124.556 505.043 123.162 506.268 122.052C507.642 120.756 509.235 119.713 510.972 118.972C512.877 118.159 514.9 117.658 516.964 117.488C519.195 117.258 521.449 117.467 523.6 118.104Z" fill="#00C0B1"/>
<g opacity="0.6">
<path d="M515.2 154.406C515.422 154.47 515.628 154.579 515.806 154.726C515.984 154.873 516.131 155.055 516.236 155.26C516.356 155.471 516.43 155.704 516.454 155.945C516.478 156.186 516.452 156.43 516.376 156.66L514.696 162.162C514.551 162.606 514.239 162.977 513.827 163.196C513.415 163.415 512.933 163.466 512.484 163.338L507.108 161.7C506.886 161.633 506.679 161.521 506.501 161.372C506.323 161.223 506.177 161.039 506.072 160.832C505.949 160.623 505.873 160.389 505.848 160.147C505.824 159.906 505.853 159.662 505.932 159.432L507.612 153.93C507.679 153.708 507.791 153.501 507.94 153.323C508.089 153.145 508.273 152.999 508.48 152.894C508.691 152.774 508.924 152.7 509.165 152.676C509.406 152.652 509.65 152.678 509.88 152.754L515.2 154.406ZM523.6 118.104C525.537 118.693 527.381 119.556 529.074 120.666C530.697 121.712 532.119 123.039 533.274 124.586C534.375 126.073 535.148 127.776 535.542 129.584C535.929 131.518 535.813 133.518 535.206 135.394C534.781 136.888 534.063 138.283 533.092 139.496C532.225 140.542 531.211 141.456 530.082 142.212C528.975 142.935 527.809 143.563 526.596 144.088L523.124 145.6C522.095 146.036 521.11 146.57 520.184 147.196C519.337 147.733 518.662 148.5 518.238 149.408C518.031 149.824 517.71 150.173 517.314 150.416C517.13 150.544 516.919 150.626 516.697 150.655C516.476 150.684 516.25 150.66 516.04 150.584L511.28 149.184C510.825 149.046 510.443 148.734 510.216 148.316C510.083 148.11 510.003 147.874 509.984 147.63C509.964 147.386 510.006 147.14 510.104 146.916C510.61 145.452 511.405 144.105 512.442 142.954C513.39 141.935 514.468 141.045 515.648 140.308C516.779 139.591 517.974 138.982 519.218 138.488C520.436 137.998 521.57 137.508 522.634 137.088C523.594 136.663 524.509 136.143 525.364 135.534C526.104 134.999 526.65 134.237 526.918 133.364C527.156 132.603 527.207 131.795 527.066 131.01C526.924 130.225 526.595 129.486 526.106 128.856C524.891 127.289 523.185 126.175 521.262 125.692C519.577 125.149 517.766 125.139 516.075 125.662C514.384 126.186 512.895 127.218 511.812 128.618C511.54 128.951 511.213 129.235 510.846 129.458C510.437 129.621 509.981 129.621 509.572 129.458L504.504 127.918C504.148 127.803 503.845 127.565 503.65 127.246C503.555 127.074 503.497 126.885 503.481 126.689C503.464 126.494 503.488 126.297 503.552 126.112C504.111 124.556 505.043 123.162 506.268 122.052C507.642 120.756 509.235 119.713 510.972 118.972C512.877 118.159 514.9 117.658 516.964 117.488C519.195 117.258 521.449 117.467 523.6 118.104Z" fill="white"/>
</g>
<path d="M439.18 488.096C439.552 490.625 439.341 493.206 438.564 495.642C437.08 499.59 434.084 501.34 432.306 502.88C430.313 504.656 428.566 506.69 427.112 508.928C425.676 511.385 423.84 513.585 421.68 515.438C420 516.838 415.352 516.838 413.126 515.886C410.9 514.934 410.158 514.038 410.326 510.454C410.494 506.87 421.428 505.862 421.428 505.862L439.18 488.096Z" fill="#455A64"/>
<path d="M411.992 499.8C411.054 500.136 410.788 501.9 410.592 505.4C410.424 508.06 409.192 511.924 412.86 513.674C415.786 515.074 420.518 514.29 422.576 511.812C425.124 508.746 426.86 506.03 430.486 502.278C433.636 499.03 436.87 497.98 438.368 491.4C439.334 487.2 438.676 485.38 435.848 484.106C431.942 482.356 425.656 487.704 422.548 488.502C419.874 489.188 413 499.45 411.992 499.8Z" fill="#00C0B1"/>
<path opacity="0.2" d="M411.992 499.8C411.054 500.136 410.788 501.9 410.592 505.4C410.424 508.06 409.192 511.924 412.86 513.674C415.786 515.074 420.518 514.29 422.576 511.812C425.124 508.746 426.86 506.03 430.486 502.278C433.636 499.03 436.87 497.98 438.368 491.4C439.334 487.2 438.676 485.38 435.848 484.106C431.942 482.356 425.656 487.704 422.548 488.502C419.874 489.188 413 499.45 411.992 499.8Z" fill="black"/>
<path d="M422.534 488.488L423.066 488.32C424.849 488.454 426.565 489.057 428.04 490.068C429.515 491.078 430.697 492.46 431.466 494.074C431.97 495.25 430.332 496.118 429.394 495.194C428.568 493.626 427.37 492.284 425.906 491.286C424.442 490.288 422.755 489.664 420.994 489.468C421.436 489.041 421.96 488.708 422.534 488.488Z" fill="#FAFAFA"/>
<path d="M420 490.448C421.672 490.67 423.262 491.308 424.625 492.304C425.987 493.299 427.078 494.62 427.798 496.146C428.302 497.308 426.664 498.176 425.726 497.266C425.034 495.897 424.048 494.699 422.837 493.757C421.627 492.816 420.223 492.154 418.726 491.82C419.118 491.4 419.552 490.854 420 490.448Z" fill="#FAFAFA"/>
<path d="M487.536 543.424C488.082 546.42 486.962 547.946 483.084 550.088C479.206 552.23 473.144 552.888 466.844 550.9C460.544 548.912 457.562 546.098 454.944 545.384C452.326 544.67 445.802 544.488 443.212 543.676C440.622 542.864 440.692 541.52 440.762 538.384L487.536 543.424Z" fill="#455A64"/>
<path d="M443.618 523.348C442.818 525.645 442.136 527.982 441.574 530.348C440.986 532.952 440.174 537.348 441.014 539.266C441.854 541.184 445.424 542.584 450.954 542.654C454.524 542.654 460.054 545.244 463.82 547.442C467.586 549.64 471.996 549.822 476.168 549.416C481.096 548.926 486.248 546.182 487.074 544.166C487.9 542.15 488.152 540.624 476.672 535.458C476.56 535.458 463.33 530.236 457.856 523.936L443.618 523.348Z" fill="#00C0B1"/>
<g opacity="0.2">
<path d="M443.618 523.348C442.818 525.645 442.136 527.982 441.574 530.348C440.986 532.952 440.174 537.348 441.014 539.266C441.854 541.184 445.424 542.584 450.954 542.654C454.524 542.654 460.054 545.244 463.82 547.442C467.586 549.64 471.996 549.822 476.168 549.416C481.096 548.926 486.248 546.182 487.074 544.166C487.9 542.15 488.152 540.624 476.672 535.458C476.56 535.458 463.33 530.236 457.856 523.936L443.618 523.348Z" fill="black"/>
</g>
<path d="M465.388 548.226C465.388 548.226 466.578 538.3 474.712 535.626C482.076 533.204 488.334 538.734 487.536 543.424C486.99 546.588 477.96 553.588 465.388 548.226Z" fill="#FAFAFA"/>
<path d="M472.71 533.722C470.636 533.862 468.668 534.684 467.11 536.06C464.744 537.964 464.646 539.266 464.646 539.266C464.466 539.457 464.229 539.585 463.971 539.631C463.712 539.677 463.446 539.637 463.211 539.519C462.977 539.401 462.786 539.211 462.669 538.976C462.552 538.741 462.513 538.474 462.56 538.216C462.56 538.216 463.204 533.218 469.826 532.322C470.393 532.219 470.978 532.299 471.497 532.551C472.015 532.803 472.44 533.213 472.71 533.722Z" fill="#FAFAFA"/>
<path d="M468.132 531.412C466.068 531.385 464.069 532.135 462.532 533.512C460.166 535.43 460.124 536.97 460.124 536.97C459.944 537.161 459.707 537.289 459.449 537.335C459.19 537.381 458.924 537.342 458.689 537.223C458.455 537.105 458.264 536.915 458.147 536.68C458.03 536.445 457.992 536.178 458.038 535.92C458.038 535.92 458.668 530.908 465.29 530.026C465.849 529.927 466.426 530.008 466.936 530.257C467.447 530.506 467.865 530.91 468.132 531.412Z" fill="#FAFAFA"/>
<path d="M463.596 528.71C461.536 528.54 459.488 529.149 457.856 530.418C455.364 532.168 455.21 533.694 455.21 533.694C455.015 533.865 454.771 533.97 454.512 533.995C454.254 534.019 453.995 533.961 453.771 533.829C453.548 533.697 453.372 533.498 453.268 533.26C453.164 533.022 453.138 532.757 453.194 532.504C453.194 532.504 454.188 527.562 460.852 527.114C461.42 527.054 461.991 527.177 462.485 527.464C462.978 527.751 463.367 528.187 463.596 528.71Z" fill="#FAFAFA"/>
<path d="M412.104 494.102L411.964 500.85C413.562 501.916 415.421 502.526 417.34 502.615C419.259 502.704 421.166 502.268 422.856 501.354C423.052 500.948 423.738 494.354 423.738 494.354L412.104 494.102Z" fill="#FFA8A7"/>
<path d="M443.716 518.686C443.716 518.686 443.716 521.878 443.604 523.712C443.492 525.546 445.662 528.304 451.262 528.22C455.182 528.22 457.954 527.156 457.856 523.922L457.954 519.26L443.716 518.686Z" fill="#FFA8A7"/>
<path d="M406 436.8C406.658 422.576 409.71 416.402 409.71 416.402C409.71 416.402 408.968 398.804 407.036 377.202C404.096 344.372 406.7 339.514 413.448 324.912C413.448 324.912 467.866 318.976 469.084 341.922C470.61 370.496 469.7 428.526 468.734 438.522C467.768 448.518 467.978 439.278 465.122 459.634C462.854 475.72 457.982 519.204 457.982 519.204C455.744 520.286 453.275 520.8 450.791 520.699C448.308 520.599 445.887 519.889 443.744 518.63C443.744 518.63 440.3 465.234 441.014 453.614C441.868 439.432 442.75 435.834 442.75 435.834C442.75 435.834 437.15 389.732 436.38 382.312C436.38 382.312 435.218 395.542 434.252 405.608C433.286 415.674 433.188 423.808 430.654 444.584C428.666 460.908 423.92 496.118 423.92 496.118C421.969 496.87 419.871 497.161 417.79 496.967C415.708 496.772 413.7 496.098 411.922 494.998C411.922 494.998 405.454 448.238 406 436.8Z" fill="#455A64"/>
<path d="M436.45 496.244C436.45 496.244 436.31 488.362 425.684 487.046L425.068 487.382C426.293 485.457 428.189 484.055 430.388 483.448C433.944 482.566 436.716 483.532 438.522 485.968C440.328 488.404 438.326 494.746 436.45 496.244Z" fill="#FAFAFA"/>
<path d="M436.352 382.368L435.652 372.946C429.728 370.848 424.085 368.027 418.852 364.546C421.857 369.607 426.72 373.294 432.404 374.822L434.098 384.076L434.238 405.706L436.352 382.368Z" fill="#37474F"/>
<path d="M416.808 197.484C413.826 201.208 391.776 236.684 388.556 243.362C385.336 250.04 384.552 254.324 389.648 259.7C397.306 267.778 416.612 287.266 416.612 287.266L427.42 261.478L407.372 248.878L426.972 207.396L416.808 197.484Z" fill="#FFA8A7"/>
<path d="M407.4 248.892C407.4 248.892 401.912 246.96 397.334 249.928C397.334 249.928 400.946 244.832 408.422 246.75L407.4 248.892Z" fill="#F28F8F"/>
<path d="M427.938 259.448L410.2 250.6C403.662 249.662 395.15 259.882 395.388 267.722L410.942 281.442L427.938 259.448Z" fill="#455A64"/>
<path d="M430.514 246.302L429.394 258.636C426.594 259.504 427.112 263.41 428.75 265.818L428.428 269.444L446.628 271.082L449.358 250.264L430.514 246.302Z" fill="#FFA8A7"/>
<path d="M410.55 267.596C412.566 262.122 420.518 257.908 425.348 258.286L429.394 258.636C428.274 260.876 429.898 262.472 432.838 263.326C436.618 264.418 443.576 265.034 447.678 262.612L447.804 261.562C447.804 261.562 455.546 263.774 457.828 264.628C464.24 267.036 466.354 268.282 472.99 285.516C475.79 292.894 474.082 300.538 466.438 304.71C465.864 309.274 465.22 316.456 465.22 316.456C467.329 326.239 468.877 336.134 469.854 346.094C469.854 346.094 465.822 355.236 437.892 353.696C416.262 352.506 406.196 341.558 406.196 341.558C406.728 336.252 410.088 327.782 416.976 311.794C408.8 288.806 407.554 275.8 410.55 267.596Z" fill="#37474F"/>
<path d="M526.022 256.2H525.952C524.973 255.698 524.201 254.87 523.77 253.858C523.339 252.846 523.276 251.715 523.592 250.661C523.908 249.608 524.584 248.699 525.501 248.091C526.418 247.484 527.519 247.218 528.612 247.338C528.637 247.34 528.662 247.347 528.684 247.358C528.707 247.37 528.726 247.386 528.742 247.406C528.758 247.426 528.77 247.449 528.776 247.473C528.783 247.497 528.784 247.523 528.78 247.548C528.778 247.571 528.772 247.594 528.761 247.615C528.75 247.636 528.735 247.654 528.716 247.669C528.698 247.683 528.676 247.693 528.654 247.699C528.631 247.705 528.607 247.706 528.584 247.702C527.581 247.601 526.574 247.852 525.737 248.412C524.899 248.973 524.282 249.807 523.992 250.772C523.702 251.738 523.758 252.774 524.148 253.703C524.539 254.632 525.241 255.396 526.134 255.864C526.155 255.876 526.174 255.891 526.189 255.911C526.205 255.93 526.216 255.952 526.222 255.975C526.229 255.999 526.231 256.023 526.227 256.047C526.224 256.072 526.216 256.095 526.204 256.116C526.187 256.148 526.16 256.173 526.127 256.188C526.094 256.203 526.057 256.207 526.022 256.2Z" fill="#E0E0E0"/>
<path d="M523.166 252.392L524.23 253.708C524.634 254.708 525.326 255.566 526.218 256.172L527.268 257.474L528.066 256.844C528.308 256.655 528.488 256.398 528.582 256.106C528.677 255.814 528.683 255.501 528.598 255.206C528.431 254.421 528.082 253.686 527.579 253.061C527.075 252.436 526.432 251.938 525.7 251.608C525.427 251.464 525.118 251.405 524.811 251.437C524.505 251.469 524.215 251.592 523.978 251.79L523.166 252.392Z" fill="#455A64"/>
<path d="M525.63 257.6C527.03 258.132 527.94 257.376 527.716 255.92C527.544 255.137 527.191 254.405 526.685 253.782C526.18 253.16 525.535 252.665 524.804 252.336C523.404 251.804 522.508 252.56 522.732 254.016C522.901 254.799 523.251 255.531 523.754 256.153C524.257 256.776 524.9 257.271 525.63 257.6Z" fill="#263238"/>
<path d="M522.102 254.464L525.028 258.09L526.274 257.082C526.444 256.944 526.57 256.759 526.637 256.55C526.704 256.341 526.709 256.118 526.652 255.906C526.523 255.357 526.27 254.845 525.91 254.41C525.551 253.975 525.095 253.629 524.58 253.4C524.386 253.297 524.166 253.253 523.947 253.273C523.729 253.293 523.52 253.376 523.348 253.512L522.102 254.464Z" fill="#37474F"/>
<path d="M495.138 267.302L496.538 271.796C497.252 273.994 499.422 275.744 502.866 276.5C509.866 278.026 519.302 275.03 524.09 269.794C526.47 267.19 527.24 264.516 526.568 262.304L525.168 257.81L523.39 258.706C522.403 258.183 521.347 257.801 520.254 257.572C513.254 256.046 503.818 259.042 499.03 264.278C498.275 265.092 497.634 266.006 497.126 266.994L495.138 267.302Z" fill="#00C0B1"/>
<path opacity="0.3" d="M495.138 267.302L496.538 271.796C497.252 273.994 499.422 275.744 502.866 276.5C509.866 278.026 519.302 275.03 524.09 269.794C526.47 267.19 527.24 264.516 526.568 262.304L525.168 257.81L523.39 258.706C522.403 258.183 521.347 257.801 520.254 257.572C513.254 256.046 503.818 259.042 499.03 264.278C498.275 265.092 497.634 266.006 497.126 266.994L495.138 267.302Z" fill="black"/>
<path d="M527.632 256.704C527.046 256.647 526.477 256.48 525.952 256.214C525.931 256.202 525.912 256.186 525.896 256.167C525.881 256.148 525.87 256.126 525.864 256.103C525.857 256.079 525.855 256.055 525.858 256.031C525.862 256.006 525.87 255.983 525.882 255.962C525.892 255.939 525.907 255.919 525.926 255.903C525.944 255.886 525.966 255.873 525.99 255.865C526.013 255.858 526.038 255.855 526.063 255.857C526.088 255.859 526.112 255.866 526.134 255.878C526.613 256.13 527.136 256.287 527.674 256.34C528.79 256.409 529.89 256.045 530.745 255.322C531.599 254.6 532.141 253.576 532.258 252.464C532.376 251.351 532.059 250.237 531.374 249.352C530.69 248.467 529.69 247.881 528.584 247.716C528.559 247.716 528.535 247.711 528.512 247.701C528.49 247.691 528.47 247.676 528.454 247.657C528.438 247.639 528.426 247.617 528.42 247.593C528.413 247.569 528.412 247.544 528.416 247.52C528.418 247.496 528.424 247.473 528.435 247.451C528.446 247.43 528.461 247.411 528.479 247.395C528.497 247.38 528.518 247.368 528.541 247.36C528.564 247.353 528.588 247.35 528.612 247.352C529.241 247.398 529.854 247.569 530.415 247.856C530.976 248.144 531.474 248.541 531.878 249.024C532.283 249.508 532.586 250.067 532.77 250.67C532.954 251.273 533.015 251.907 532.95 252.534C532.884 253.161 532.693 253.768 532.388 254.32C532.083 254.871 531.67 255.356 531.174 255.745C530.678 256.134 530.109 256.42 529.5 256.584C528.892 256.749 528.256 256.79 527.632 256.704Z" fill="#E0E0E0"/>
<path d="M518.812 253.036C511.882 251.496 502.376 254.436 497.574 259.742C492.772 265.048 494.522 270.466 501.452 272.006C508.382 273.546 517.888 270.522 522.69 265.286C527.492 260.05 525.742 254.562 518.812 253.036Z" fill="#00C0B1"/>
<path opacity="0.2" d="M518.812 253.036C511.882 251.496 502.376 254.436 497.574 259.742C492.772 265.048 494.522 270.466 501.452 272.006C508.382 273.546 517.888 270.522 522.69 265.286C527.492 260.05 525.742 254.562 518.812 253.036Z" fill="black"/>
<path d="M499.8 261.8C502.199 259.483 505.102 257.754 508.282 256.748C511.462 255.743 514.831 255.488 518.126 256.004C519.337 256.223 520.473 256.743 521.43 257.516C521.766 257.808 522.02 258.182 522.167 258.602C522.314 259.021 522.35 259.472 522.27 259.91C521.96 261.164 521.317 262.31 520.408 263.228C518.009 265.545 515.106 267.274 511.926 268.28C508.746 269.285 505.377 269.54 502.082 269.024C500.875 268.816 499.742 268.3 498.792 267.526L498.652 267.4C496.832 265.496 498.848 262.864 499.8 261.8Z" fill="#00C0B1"/>
<path opacity="0.5" d="M499.8 261.8C502.199 259.483 505.102 257.754 508.282 256.748C511.462 255.743 514.831 255.488 518.126 256.004C519.337 256.223 520.473 256.743 521.43 257.516C521.766 257.808 522.02 258.182 522.167 258.602C522.314 259.021 522.35 259.472 522.27 259.91C521.96 261.164 521.317 262.31 520.408 263.228C518.009 265.545 515.106 267.274 511.926 268.28C508.746 269.285 505.377 269.54 502.082 269.024C500.875 268.816 499.742 268.3 498.792 267.526L498.652 267.4C496.832 265.496 498.848 262.864 499.8 261.8Z" fill="black"/>
<path d="M500.542 264.068C502.943 261.755 505.847 260.028 509.026 259.023C512.205 258.017 515.573 257.76 518.868 258.272C520.079 258.491 521.215 259.011 522.172 259.784L522.298 259.91C521.988 261.164 521.345 262.31 520.436 263.228C518.037 265.545 515.134 267.274 511.954 268.28C508.774 269.285 505.405 269.54 502.11 269.024C500.903 268.816 499.77 268.3 498.82 267.526L498.68 267.4C498.987 266.141 499.63 264.989 500.542 264.068Z" fill="#F0F0F0"/>
<path d="M508.452 263.662L504.406 266.686C504.084 266.924 504.406 267.162 504.896 266.98L510.286 264.768L508.452 263.662Z" fill="#455A64"/>
<path d="M511.714 263.97L515.76 260.946C516.082 260.708 515.76 260.47 515.27 260.652L509.88 262.864L511.714 263.97Z" fill="#455A64"/>
<path d="M511.756 264.81C511.163 265.157 510.498 265.361 509.813 265.407C509.128 265.454 508.442 265.34 507.808 265.076C506.898 264.53 507.164 263.508 508.41 262.822C509.003 262.475 509.668 262.271 510.353 262.225C511.038 262.178 511.724 262.292 512.358 262.556C513.268 263.102 513.002 264.124 511.756 264.81Z" fill="#00C0B1"/>
<path d="M511.154 264.46C510.775 264.686 510.348 264.819 509.907 264.848C509.467 264.877 509.026 264.802 508.62 264.628C508.018 264.278 508.2 263.62 509.012 263.228C509.391 263.002 509.818 262.869 510.259 262.84C510.699 262.811 511.14 262.886 511.546 263.06C512.148 263.354 511.966 264.012 511.154 264.46Z" fill="#37474F"/>
<path d="M527.8 260.946C527.157 259.884 526.299 258.968 525.28 258.258L526.442 261.954C527.352 264.684 525.364 268.268 523.39 270.354C522.06 271.754 519.568 273.364 519.358 272.86C519.078 272.146 519.498 268.66 518.784 265.496C517.916 261.716 515.676 263.55 515.088 266.392C514.766 267.946 513.086 271.908 512.61 274.918C512.022 278.6 512.778 281.75 511.672 284.41C510.818 286.496 501.872 297.724 496.636 303.744C491.26 296.576 484.036 287.238 477.722 279.216C468.916 267.932 467.11 265.566 460.054 265.342C454.454 281.498 464.044 297.766 464.044 297.766C464.044 297.766 477.288 313.852 485.534 322.308C493.486 330.47 496.286 329.77 500.108 326.508C503.93 323.246 513.8 308.616 518 300.51C522.2 292.404 526.694 286.272 529.2 281.974C533.4 274.75 532.182 267.162 527.8 260.946Z" fill="#FFA8A7"/>
<path d="M457.8 264.6C457.8 264.6 464.408 263.662 468.874 267.232C471.678 269.775 474.225 272.589 476.476 275.632C482.65 283.892 494.158 299.236 494.158 299.236C492.259 302.665 489.685 305.674 486.59 308.081C483.496 310.487 479.945 312.241 476.154 313.236C476.154 313.236 464.842 301.406 460.614 295.54C453.138 285.194 453.908 270.382 457.8 264.6Z" fill="#455A64"/>
<path d="M429.394 258.636C429.394 258.636 420.35 262.64 418.53 268.436L410.032 267.372C412.463 263.257 416.295 260.156 420.826 258.636C423.626 257.838 426.594 257.838 429.394 258.636Z" fill="#00C0B1"/>
<path opacity="0.2" d="M429.394 258.636C429.394 258.636 420.35 262.64 418.53 268.436L410.032 267.372C412.463 263.257 416.295 260.156 420.826 258.636C423.626 257.838 426.594 257.838 429.394 258.636Z" fill="black"/>
<path d="M449.036 276.71C449.036 276.71 452.564 266 457.8 264.6C454.933 262.86 451.673 261.873 448.322 261.73C444.803 264.287 442.005 267.711 440.202 271.67L449.036 276.71Z" fill="#00C0B1"/>
<path opacity="0.2" d="M449.036 276.71C449.036 276.71 452.564 266 457.8 264.6C454.933 262.86 451.673 261.873 448.322 261.73C444.803 264.287 442.005 267.711 440.202 271.67L449.036 276.71Z" fill="black"/>
<path d="M415.086 264.6C410.046 264.53 400.12 270.914 398.356 274.848C396.592 278.782 389.634 330.708 393.96 335.916C399.378 342.44 424.27 357.224 435.96 356.804C445.564 356.468 455 349.188 456.456 346.612C458.836 342.412 455.616 285.012 452.55 280.126C447.538 272.342 421.526 264.712 415.086 264.6Z" fill="#00C0B1"/>
<path opacity="0.2" d="M447.062 275.366L442.078 278.726C437.052 281.624 434.336 289.254 434.42 307.524C434.504 325.794 434.154 350.546 437.08 353.164C440.006 355.782 445.9 353.99 446.25 353.892C451.5 351.652 455.476 348.292 456.414 346.64C458.794 342.44 455.574 285.04 452.508 280.154C451.053 278.189 449.197 276.557 447.062 275.366Z" fill="black"/>
<path opacity="0.1" d="M454.706 348.6C451.276 351.792 443.646 356.566 435.918 356.846C424.284 357.252 399.378 342.468 393.918 335.944C389.606 330.75 396.466 279.006 398.314 274.876C400.162 270.746 410.004 264.572 415.044 264.628C420.084 264.684 437.948 269.752 447.02 275.366L442.036 278.726C437.024 281.624 434.294 289.254 434.392 307.538C434.49 325.822 434.112 350.56 437.038 353.164C439.964 355.768 445.858 353.99 446.208 353.892C449.31 352.603 452.181 350.816 454.706 348.6Z" fill="black"/>
<path d="M414.568 264.6C408.968 264.6 400.652 269.108 397.838 273.476C395.024 277.844 393.008 290.542 395.038 294.28C397.068 298.018 410.844 305.48 420.238 309.26C427.728 312.326 431.648 311.528 434.238 309.638C435.918 308.434 436.212 304.85 436.338 302.19C436.674 295.358 436.114 291.704 440.23 287.686C444.346 283.668 451.696 280.294 452.942 283.318C452.942 283.318 454.608 278.768 446.082 274.372C432.04 267.12 421.4 264.6 414.568 264.6Z" fill="#00C0B1"/>
<path d="M422.506 300.608L427.462 302.484C427.462 302.484 426.804 317.562 426.832 323.484C426.832 323.484 425.67 326.018 424.592 326.438C423.514 326.858 422.1 324.016 421.876 321.874C421.652 319.732 421.988 305.718 422.506 300.608Z" fill="#455A64"/>
<path d="M422.366 301.784L427.406 303.52C427.536 303.576 427.677 303.598 427.818 303.585C427.959 303.573 428.094 303.526 428.212 303.448C428.33 303.37 428.426 303.265 428.494 303.14C428.561 303.016 428.596 302.877 428.596 302.736L428.792 300.314C428.793 300.041 428.714 299.773 428.565 299.544C428.415 299.315 428.202 299.135 427.952 299.026L422.898 297.206C422.771 297.151 422.633 297.127 422.495 297.139C422.357 297.15 422.224 297.194 422.108 297.269C421.991 297.344 421.895 297.446 421.828 297.567C421.761 297.688 421.724 297.824 421.722 297.962L421.54 300.51C421.541 300.779 421.619 301.043 421.765 301.269C421.912 301.495 422.12 301.674 422.366 301.784Z" fill="#37474F"/>
<path d="M424.27 319.354C424.675 319.54 425.02 319.835 425.267 320.206C425.514 320.577 425.654 321.009 425.67 321.454C425.696 321.63 425.673 321.811 425.604 321.975C425.535 322.139 425.422 322.282 425.278 322.387C425.134 322.492 424.964 322.556 424.786 322.572C424.609 322.587 424.43 322.554 424.27 322.476C423.863 322.292 423.516 321.998 423.269 321.627C423.021 321.256 422.883 320.822 422.87 320.376C422.898 319.494 423.514 319.046 424.27 319.354Z" fill="#E0E0E0"/>
<path d="M401.8 289.8L406.644 291.942C406.644 291.942 405.244 306.964 404.936 312.858C404.936 312.858 403.648 315.336 402.556 315.658C401.464 315.98 400.19 313.11 400.064 310.968C399.938 308.826 401.03 294.868 401.8 289.8Z" fill="#455A64"/>
<path d="M401.618 290.948L406.546 292.95C406.672 293.013 406.812 293.043 406.953 293.039C407.094 293.034 407.232 292.995 407.354 292.924C407.476 292.853 407.578 292.753 407.652 292.633C407.726 292.513 407.77 292.377 407.778 292.236L408.1 289.814C408.114 289.545 408.05 289.278 407.916 289.045C407.782 288.811 407.583 288.621 407.344 288.498L402.388 286.412C402.264 286.349 402.126 286.318 401.986 286.322C401.847 286.325 401.711 286.364 401.59 286.433C401.469 286.503 401.367 286.601 401.294 286.719C401.221 286.838 401.178 286.973 401.17 287.112L400.848 289.646C400.825 289.916 400.886 290.187 401.025 290.42C401.163 290.654 401.37 290.838 401.618 290.948Z" fill="#37474F"/>
<path d="M402.612 308.602C403.002 308.813 403.326 309.127 403.551 309.51C403.775 309.892 403.891 310.329 403.886 310.772C403.898 310.943 403.865 311.114 403.79 311.268C403.715 311.422 403.601 311.554 403.459 311.65C403.318 311.746 403.153 311.804 402.983 311.817C402.812 311.83 402.64 311.798 402.486 311.724C402.092 311.518 401.765 311.205 401.542 310.821C401.319 310.437 401.21 309.998 401.226 309.554C401.226 308.672 401.87 308.252 402.612 308.602Z" fill="#E0E0E0"/>
<path d="M396.48 318.556C396.48 324.59 396.312 327.082 396.578 329.98C396.615 331.169 396.955 332.329 397.565 333.351C398.174 334.372 399.035 335.221 400.064 335.818C402.99 337.89 415.604 344.526 419.328 346.304C423.892 348.46 428.862 349.902 428.792 346.304C428.792 343.21 428.792 336.63 428.792 334.376C428.792 331.576 427.392 329.798 421.792 327.18C416.43 324.702 404.488 317.982 401.184 316.484C398.384 315.266 396.494 316.75 396.48 318.556Z" fill="#00C0B1"/>
<path d="M461.076 222.334C461.076 222.334 470.61 210.042 463.526 203.378C455.126 195.496 443.996 195.664 429.45 200.732C422.646 203.112 412.748 210.014 411.866 223.37C411.194 233.688 439.95 241.29 439.292 248.346L461.076 222.334Z" fill="#263238"/>
<path d="M463.526 227.696C463.526 227.696 467.418 233.94 466.872 234.584C465.903 235.184 464.837 235.61 463.722 235.844L463.526 227.696Z" fill="#F28F8F"/>
<path d="M451.626 207.872C455.518 210.028 462.252 213.99 463.61 228.592C465.01 243.586 461.552 248.696 459.41 250.6C458.01 251.874 450.898 252.168 447.23 250.922C442.624 249.354 432.726 244.132 428.232 236.292C422.94 227.066 422.128 214.928 428.638 210.364C437.85 203.938 448.322 206.066 451.626 207.872Z" fill="#FFA8A7"/>
<path d="M449.148 251.384C452.309 251.956 455.557 251.837 458.668 251.034C455.35 251.045 452.097 250.113 449.288 248.346L449.148 251.384Z" fill="#F28F8F"/>
<path d="M451.43 225.526C453.954 224.579 456.173 222.964 457.85 220.853C459.527 218.742 460.599 216.215 460.95 213.542C462.42 204.036 450.534 200.004 450.534 200.004L451.43 225.526Z" fill="#263238"/>
<path d="M450.17 238.602C449.386 239.848 446.32 241.024 443.086 237.664C439.852 234.304 439.964 228.2 444.612 226.786C449.26 225.372 451.486 230.762 451.486 230.762C455.854 222.264 452.774 208.53 452.774 208.53C452.774 208.53 442.638 198.1 426.174 203.084C417.34 205.758 412.804 214.984 411.824 221.858C410.844 228.732 408.198 241.01 411.628 245.462C415.058 249.914 428.302 256.802 440.202 256.228C452.102 255.654 452.13 253.302 452.13 253.302L450.31 238.28C450.31 238.28 450.282 238.406 450.17 238.602Z" fill="#263238"/>
<path d="M416.808 197.484C421.428 191.884 428.75 193.186 434.448 194.124C440.146 195.062 448.448 195.86 447.048 199.724C445.648 203.588 441.448 207.046 431.648 206.094C421.848 205.142 420.042 206.094 417.844 208.684C417.788 208.6 411.376 206.024 416.808 197.484Z" fill="#FFA8A7"/>
</svg>
