<svg width="20" height="17" viewBox="0 0 20 17" fill="none" xmlns="http://www.w3.org/2000/svg">
<path d="M7.75 8.5C7.75 7.17974 8.7574 6.10938 10 6.10938C11.2426 6.10938 12.25 7.17974 12.25 8.5C12.25 9.82026 11.2426 10.8906 10 10.8906C8.7574 10.8906 7.75 9.82026 7.75 8.5Z" fill="#001C2E"/>
<path fill-rule="evenodd" clip-rule="evenodd" d="M0 8.5C0 10.2419 0.42496 10.8285 1.27489 12.0017C2.97196 14.3442 5.81811 17 10 17C14.1819 17 17.028 14.3442 18.7251 12.0017C19.575 10.8285 20 10.2419 20 8.5C20 6.75814 19.575 6.17156 18.7251 4.99835C17.028 2.65578 14.1819 0 10 0C5.81811 0 2.97196 2.65578 1.27489 4.99835C0.42496 6.17156 0 6.75814 0 8.5ZM10 4.51562C7.92893 4.51562 6.25 6.29949 6.25 8.5C6.25 10.7005 7.92893 12.4844 10 12.4844C12.0711 12.4844 13.75 10.7005 13.75 8.5C13.75 6.29949 12.0711 4.51562 10 4.51562Z" fill="#001C2E"/>
</svg>
