<svg width="500" height="501" viewBox="0 0 500 501" fill="none" xmlns="http://www.w3.org/2000/svg">
<path d="M357.76 148.492V187.595L305.05 157.174L305.03 118.07L357.76 148.492Z" fill="#85CEC0"/>
<path d="M357.76 187.596L297.5 222.353L244.75 191.942L305.05 157.174L357.76 187.596Z" fill="#85CEC0"/>
<path opacity="0.3" d="M357.76 187.596L297.5 222.353L244.75 191.942L305.05 157.174L357.76 187.596Z" fill="white"/>
<path d="M244.75 191.941L244.77 231.045L297.5 261.467V222.353L244.75 191.941Z" fill="#85CEC0"/>
<path d="M297.5 261.467L237.24 296.225L184.5 265.813L244.77 231.045L297.5 261.467Z" fill="#85CEC0"/>
<path opacity="0.3" d="M297.5 261.467L237.24 296.225L184.5 265.813L244.77 231.045L297.5 261.467Z" fill="white"/>
<path d="M184.5 265.813V304.917L237.24 335.328V296.225L184.5 265.813Z" fill="#85CEC0"/>
<path d="M237.24 335.328L176.97 370.096L124.24 339.684L184.5 304.917L237.24 335.328Z" fill="#85CEC0"/>
<path opacity="0.3" d="M237.24 335.328L176.97 370.096L124.24 339.684L184.5 304.917L237.24 335.328Z" fill="white"/>
<path d="M124.24 339.684V378.788L176.97 409.2V370.096L124.24 339.684Z" fill="#85CEC0"/>
<path d="M357.76 148.492L414.26 115.902L433.1 126.762L425.56 78.9663L342.7 74.6204L361.53 85.4803L305.03 118.07L357.76 148.492Z" fill="#85CEC0"/>
<path opacity="0.3" d="M357.76 148.492L414.26 115.902L433.1 126.762L425.56 78.9663L342.7 74.6204L361.53 85.4803L305.03 118.07L357.76 148.492Z" fill="white"/>
<path d="M237.24 335.328V296.225L297.5 261.467V222.353L357.76 187.596V148.492L414.26 115.902L433.1 126.762V135.454L414.26 124.594L365.3 152.828V191.941L305.03 226.709V265.813L244.77 300.571V339.674L184.5 374.442V404.854L176.97 409.2V370.096L237.24 335.328Z" fill="#85CEC0"/>
<path opacity="0.3" d="M237.24 335.328V296.225L297.5 261.467V222.353L357.76 187.596V148.492L414.26 115.902L433.1 126.762V135.454L414.26 124.594L365.3 152.828V191.941L305.03 226.709V265.813L244.77 300.571V339.674L184.5 374.442V404.854L176.97 409.2V370.096L237.24 335.328Z" fill="black"/>
<path d="M342.7 74.6204V83.3123L354 89.8262L361.53 85.4803L342.7 74.6204Z" fill="#85CEC0"/>
<path opacity="0.3" d="M342.7 74.6204V83.3123L354 89.8262L361.53 85.4803L342.7 74.6204Z" fill="black"/>
<path opacity="0.8" d="M209.46 335.368C202.73 332.081 195.66 336.417 192.84 338.625C188.99 341.622 186.13 346.508 181.69 349.245C177.25 351.983 173.18 353.721 170.79 355.439C168.4 357.158 166.52 359.855 170.42 361.754C174.32 363.652 178.56 362.163 181.23 360.545C183.9 358.926 186.11 356.948 191.88 354.55C197.65 352.152 203.88 349.735 207.35 347.337C210.82 344.939 216.35 338.735 209.46 335.368Z" fill="#85CEC0"/>
<path d="M293.8 419.15L282.63 425.594L264.24 414.984V319.863L251.98 312.789L273.01 296.634L284.18 290.19L306.06 331.092L294.89 337.536L293.8 336.907V419.15Z" fill="#455A64"/>
<path d="M282.63 425.595L264.24 414.984V319.863L251.98 312.789L273.01 296.634L294.89 337.536L282.63 330.463V425.595Z" fill="#37474F"/>
<path d="M293.8 419.151L282.63 425.595V330.463L293.8 336.907V419.151Z" fill="#263238"/>
<path d="M334.25 417.002L325.88 421.828L312.1 413.875V360.775L302.91 355.479L318.68 343.371L327.05 338.545L343.44 369.197L335.07 374.022L334.25 373.553V417.002Z" fill="#85CEC0"/>
<path opacity="0.1" d="M335.07 374.022L318.68 343.371L327.05 338.545L343.44 369.197L335.07 374.022Z" fill="white"/>
<path d="M325.88 421.828L312.1 413.875V360.774L302.91 355.479L318.68 343.371L335.07 374.022L325.88 368.727V421.828Z" fill="#85CEC0"/>
<path opacity="0.1" d="M325.88 421.828L312.1 413.875V360.774L302.91 355.479L318.68 343.371L335.07 374.022L325.88 368.727V421.828Z" fill="black"/>
<path opacity="0.3" d="M334.25 417.002L325.88 421.828V368.727L334.25 373.553V417.002Z" fill="black"/>
<path d="M89.27 361.594C90.61 357.697 91.33 348.136 92.69 337.816L113.16 342.731C113.16 342.731 105.37 366.409 104.43 368.757C102.88 372.623 89.27 361.594 89.27 361.594Z" fill="#FFBDA7"/>
<path d="M84.51 366.589C84.8668 364.82 85.6417 363.162 86.77 361.753C87.2312 361.236 87.7185 360.743 88.23 360.275C88.7074 359.567 89.078 358.793 89.33 357.977C89.4482 357.675 89.61 357.393 89.81 357.138C90.1748 356.762 90.6459 356.508 91.16 356.408C93.4 355.809 95.77 356.408 97.92 357.278C100.889 358.335 103.573 360.065 105.76 362.333C106.121 362.684 106.371 363.134 106.48 363.625C106.588 364.117 106.55 364.63 106.37 365.1C105.95 366.869 104.37 373.902 104.44 375.591C104.347 377.863 104.708 380.132 105.5 382.264C105.743 382.952 106.037 383.62 106.38 384.263C106.596 384.671 106.918 385.013 107.312 385.254C107.706 385.495 108.158 385.625 108.62 385.631C111.135 385.678 113.607 386.282 115.86 387.4C116.974 387.877 117.889 388.725 118.448 389.799C119.008 390.874 119.178 392.109 118.93 393.294C118.93 393.294 118.49 396.102 114.28 398.599C111.87 400.028 106.18 401.706 102.63 400.597C102.38 400.498 102.15 400.418 101.92 400.308C98.03 398.479 88.41 393.724 88.32 393.014C88.32 393.014 88.32 392.935 88.32 392.895C88.14 390.597 87.91 388.309 87.68 386.021C87.5029 384.31 87.2393 382.61 86.89 380.926C86.73 380.196 86.6 379.467 86.49 378.708C86 375.651 84.47 366.969 84.51 366.589Z" fill="#455A64"/>
<path d="M83.2 368.137C81.51 368.967 82.85 374.342 84.32 378.128C86.1 382.704 86.84 383.423 86.59 387.43C86.34 391.436 86.24 393.954 87.9 395.282C89.56 396.611 101.48 402.406 101.48 402.406C99.4204 397.747 98.1012 392.795 97.57 387.729C96.57 378.967 95.57 373.353 91.34 369.666C87.11 365.979 83.2 368.137 83.2 368.137Z" fill="black"/>
<path d="M118.93 393.314C118.93 393.314 116.73 397.9 108.11 399.648C102.64 400.757 99.96 398.19 99.28 391.376C98.54 383.983 97.58 374.861 94.69 370.925C91.8 366.989 87.44 365.75 84.51 366.509C83.7294 366.908 83.1367 367.596 82.86 368.427C82.86 368.427 86.19 366.1 90.86 370.046C94.61 373.233 95.62 381.196 96.29 387.909C96.96 394.623 97.85 402.396 103.06 402.805C108.27 403.215 115.11 400.637 118.3 397.4C118.814 396.868 119.151 396.189 119.264 395.457C119.376 394.726 119.26 393.977 118.93 393.314Z" fill="#37474F"/>
<path d="M106 383.323C106.214 383.454 106.4 383.625 106.548 383.827C106.695 384.029 106.802 384.259 106.86 384.502C106.947 385.202 106.845 385.913 106.564 386.559C106.282 387.206 105.832 387.766 105.26 388.179C104.59 388.649 103.98 388.539 104.99 387.03C105.64 385.902 105.988 384.625 106 383.323Z" fill="#FAFAFA"/>
<path d="M104.71 379.327C105.005 379.585 105.2 379.939 105.26 380.326C105.34 380.946 104.44 383.553 103.26 384.213C102.08 384.872 102.64 383.433 103.15 382.734C103.753 381.638 104.275 380.5 104.71 379.327Z" fill="#FAFAFA"/>
<path d="M104.53 374.442C104.75 374.894 104.814 375.408 104.71 375.9C104.028 376.919 103.008 377.666 101.83 378.008C101.05 378.008 100.73 377.579 101.76 377.009C102.57 376.56 104.29 375.181 104.53 374.442Z" fill="#FAFAFA"/>
<path d="M94.17 190.073C92.71 199.444 92.05 206.488 93.71 229.916C94.45 240.226 97.55 284.625 97.55 284.625C94.8426 293.97 93.2416 303.601 92.78 313.319C92.18 329.513 90.97 349.405 90.97 349.405C90.97 349.405 94.38 347.117 101.08 349.035C104.525 350.162 107.545 352.308 109.74 355.19C109.74 355.19 118.2 330.553 123.06 312.809C126.45 300.401 128.78 296.314 130.66 279.29C132.97 258.37 136.74 228.987 136.74 228.987L148.32 190.093L94.17 190.073Z" fill="#37474F"/>
<path d="M123.36 239.207C129.73 244.822 131.1 249.508 131.44 252.875C131.78 256.242 129.79 286.124 129.79 286.244C130.08 284.196 130.37 281.908 130.66 279.25C132.97 258.35 136.73 228.987 136.74 228.947L148.32 190.053H111.65L114.75 212.372C113.82 221.983 117 233.593 123.36 239.207Z" fill="#263238"/>
<path d="M164.58 350.014C164.12 352.012 163.58 353.561 165.44 356.009C167.3 358.456 171.34 359.725 175.35 359.605C178.225 359.474 180.966 358.356 183.11 356.438C185.43 354.64 187.05 353.072 187.92 352.332C188.79 351.593 192.24 350.644 195.52 349.984C198.96 349.295 205.6 347.856 208.97 342.931C212.34 338.005 211.76 333.709 211.76 333.709L164.58 350.014Z" fill="#263238"/>
<path d="M189.92 330.553C182.87 332.98 172.15 334.459 165.76 336.147C163.84 337.936 164.25 346.028 164.23 351.483C166.68 357.098 174.51 358.537 179.7 356.289C182.39 354.81 184.19 352.722 186.83 351.103C188.947 349.928 191.251 349.124 193.64 348.726C196.405 348.094 199.125 347.276 201.78 346.278C208.71 343.101 212.16 337.206 211.78 332.421C211.42 328.225 208.65 325.257 201.78 326.297C198.66 326.756 194.77 328.894 189.92 330.553Z" fill="#455A64"/>
<path d="M182.71 332.371C183.96 330.742 186.37 331.702 188.25 333.999C190.13 336.297 190.63 339.994 190.4 340.683C190.17 341.373 189.27 341.922 189.01 340.973C188.75 340.024 188.3 336.787 186.81 334.819C185.903 333.611 184.646 332.711 183.21 332.241L182.71 332.371Z" fill="#E0E0E0"/>
<path d="M191.64 329.933C192.77 328.285 195.51 329.074 197.45 331.192C199.39 333.31 200.01 336.127 199.83 336.797C199.65 337.466 198.83 338.066 198.49 337.156C197.965 335.279 197.086 333.519 195.9 331.971C194.92 330.837 193.59 330.06 192.12 329.763L191.64 329.933Z" fill="#E0E0E0"/>
<path d="M187.61 331.282C188.74 329.633 191.12 330.443 193.07 332.561C194.579 334.338 195.439 336.575 195.51 338.905C195.33 339.574 194.51 340.174 194.18 339.254C193.85 338.335 193.26 335.258 191.72 333.43C190.775 332.31 189.507 331.507 188.09 331.132L187.61 331.282Z" fill="#E0E0E0"/>
<path d="M165.54 330.553C165.54 330.782 165.83 338.026 165.83 338.026C165.83 338.026 166.49 340.863 172.78 341.662C179.07 342.462 183.66 340.084 184.86 338.405C184.86 338.405 185.63 330.902 186 327.775L165.54 330.553Z" fill="#FFBDA7"/>
<path d="M111.65 207.087C112.34 217.877 116.92 231.834 132.5 242.364C139.6 247.859 144.76 253.354 150.64 259.199C157.93 266.412 163.06 270.788 163.06 270.788C161.931 279.277 161.576 287.851 162 296.404C162.69 311.051 165.32 330.463 165.32 330.463C168.717 332.861 172.857 333.973 177 333.6C183.83 332.94 186.29 330.383 186.29 330.383C186.29 330.383 193.05 285.195 193.97 276.263C194.89 267.331 196.62 262.276 188.97 247.839C182.97 236.66 156.65 190.093 156.65 190.093H111.65V207.087Z" fill="#37474F"/>
<path d="M112.41 109.288C114.77 107.29 116.09 101.016 114.9 97.5889C113.71 94.1621 108.9 86.0696 108.26 76.2687C107.62 66.4678 120.81 51.4517 132.18 52.6306C143.55 53.8095 149.6 60.0937 152.66 68.6158C154.52 73.791 153.1 74.5103 153.82 77.4776C155.23 83.3421 156.6 91.3547 154.07 99.1774C153.536 100.891 152.535 102.421 151.178 103.597C149.821 104.772 148.163 105.546 146.39 105.831C143.97 106.312 141.487 106.393 139.04 106.071C138.886 108.602 138.866 111.14 138.98 113.674C139.004 114.547 139.355 115.379 139.965 116.004C140.575 116.63 141.397 117.003 142.27 117.051C142.27 117.051 110 111.286 112.41 109.288Z" fill="#FFBDA7"/>
<path d="M139 106.041C139 106.041 132.85 105.122 131.11 104.133C126.38 101.435 124.66 99.3572 123.61 96.3999C123.926 98.4165 124.729 100.326 125.948 101.964C127.168 103.602 128.768 104.919 130.61 105.801C133.281 106.927 136.063 107.771 138.91 108.319L139 106.041Z" fill="#F0997A"/>
<path d="M105.46 71.2533C105.76 69.0679 106.823 67.0584 108.46 65.5786C108.716 65.3739 109.008 65.2181 109.32 65.119C107.86 56.0174 114.88 52.3109 118.51 51.7015C120.198 51.483 121.868 51.1492 123.51 50.7024C123.931 50.5555 124.331 50.354 124.7 50.1029C125.83 49.3237 126.44 48.1947 127.7 47.2656C130.55 45.1575 135.1 45.4173 136.6 49.004C138.55 46.796 140.98 47.0058 143.75 47.935C144.516 48.1572 145.213 48.5698 145.776 49.1341C146.339 49.6984 146.75 50.3961 146.97 51.162C147.184 51.9605 147.218 52.7964 147.07 53.6097C147.708 53.2708 148.41 53.0691 149.131 53.0176C149.852 52.9661 150.576 53.0658 151.256 53.3105C151.936 53.5552 152.557 53.9393 153.08 54.4382C153.602 54.9371 154.015 55.5397 154.29 56.2073C154.367 56.4268 154.418 56.6549 154.44 56.8866C154.455 57.1362 154.455 57.3864 154.44 57.6359C154.44 58.9647 154.27 60.1336 155.08 61.4224C155.25 61.6943 155.463 61.9372 155.71 62.1418C155.94 62.3823 156.219 62.5711 156.528 62.6958C156.837 62.8204 157.169 62.8781 157.502 62.8648C157.834 62.8516 158.161 62.7678 158.459 62.619C158.757 62.4703 159.02 62.2599 159.23 62.0019C159.46 64.3397 158.44 65.9982 155.93 65.7484C156.315 66.4208 156.546 67.17 156.606 67.9421C156.667 68.7143 156.555 69.4902 156.28 70.2143C156.041 70.8326 155.671 71.3925 155.197 71.8562C154.722 72.3198 154.154 72.6763 153.53 72.9018C153.409 71.4351 153.072 69.9943 152.53 68.6257C152.18 67.6267 151.78 66.7075 151.35 65.7784C149.702 66.4825 147.966 66.963 146.19 67.2071C139.726 68.2963 133.088 67.6445 126.96 65.3188C127.897 67.4352 128.591 69.6506 129.03 71.9227C129.186 72.9338 129.115 73.967 128.821 74.947C128.527 75.9271 128.017 76.8291 127.33 77.5874C126.67 78.1969 126.91 79.2958 127.08 80.0551C127.409 80.9776 127.598 81.9441 127.64 82.9225C127.634 83.0654 127.607 83.2068 127.56 83.3421C127.48 83.5727 127.348 83.7821 127.175 83.9543C127.001 84.1265 126.791 84.257 126.56 84.336C126.329 84.4149 126.082 84.4402 125.84 84.41C125.597 84.3797 125.365 84.2947 125.16 84.1613C124.475 83.4953 123.934 82.6963 123.57 81.8135C121.31 77.1378 116.44 77.0179 114.45 79.3558C112.46 81.6936 112.55 84.1114 114.45 88.3474C115.73 91.1648 118.66 92.5535 120.84 91.6444C121.237 91.4795 121.6 91.2423 121.91 90.945C121.97 92.7633 121.5 95.1711 119.63 96.5198C118.217 97.3925 116.552 97.7687 114.9 97.5888C114.33 95.9404 112.9 93.2329 111.56 89.7661C110.56 88.0377 109.56 86.3593 108.71 84.7707C108.44 84.2712 108.2 83.7717 107.99 83.2721C106 78.7563 104.93 75.3095 105.46 71.2533Z" fill="#263238"/>
<path d="M108.57 109.808C96.57 108.699 91.41 112.805 88.4 116.332C85.39 119.858 71.82 142.307 66.4 154.966C64.21 160.091 62.99 164.127 67.68 168.743C72.68 173.658 95.75 193.17 95.75 193.17L104.21 179.892L88.1 158.712L102.1 135.733L108.57 109.808Z" fill="#37474F"/>
<path d="M101.8 111.576C95.73 114.573 91.51 126.652 90.97 135.833C90.55 142.977 92.13 152.328 93.14 165.686C93.5963 171.766 93.6531 177.87 93.31 183.959C92.99 190.273 92.46 201.362 92.46 201.362C92.46 201.362 98.46 213.501 120.08 215.639C151.53 218.756 164.08 203.321 164.08 203.321C164.08 203.321 161.9 196.327 161.65 170.351C161.46 150.929 163.42 132.187 159.58 125.263C157.92 122.955 157.93 120.667 153.58 119.049C150.58 117.93 136.93 114.603 131.58 113.454C113.74 109.648 108.15 108.449 101.8 111.576Z" fill="#455A64"/>
<path d="M142 116.042C139.26 116.741 138 117.41 133.85 118.33C127.943 119.794 121.708 119.11 116.26 116.401C111.17 113.774 110.26 110.277 110.26 110.277C110.26 110.277 112.41 106.471 113.26 105.222C114.11 103.973 114.93 104.103 114.93 104.103L114.56 105.551C114.56 105.551 114.56 107.969 120.41 109.438C126.41 110.946 136.1 111.066 138.88 110.237V109.428C140.32 109.807 140.78 110.866 142.41 113.084C143.42 114.456 144.505 115.77 145.66 117.021L142 116.042Z" fill="#37474F"/>
<path d="M221.88 195.058C227.15 196.317 229.62 198.165 232.19 198.465C233.696 198.646 235.215 198.696 236.73 198.615L241.55 202.491C241.55 202.491 240.55 194.129 239.12 190.992C237.69 187.855 236.39 189.733 235.42 187.795C234.45 185.857 234.68 184.468 232.59 183.719C230.5 182.97 230.97 181.041 227.74 180.452C224.51 179.862 211.64 181.751 211.64 181.751L221.88 195.058Z" fill="#FFA8A7"/>
<path d="M152.87 118.809C166.27 121.806 169.63 125.213 175.98 137.212C183.12 150.699 191.89 167.913 191.89 167.913C191.89 167.913 210.11 175.247 220.96 179.123C224.47 180.382 231.13 196.887 225.33 197.276C225.33 197.276 195.57 192.091 186.76 190.383C176.17 188.325 174.49 186.187 168.76 177.465C163.03 168.743 150 143.916 150 143.916C150 143.916 143.84 125.763 152.87 118.809Z" fill="#37474F"/>
</svg>
