<svg width="21" height="9" viewBox="0 0 21 9" fill="none" xmlns="http://www.w3.org/2000/svg">
<path fill-rule="evenodd" clip-rule="evenodd" d="M0.555528 0.0574517C1.02086 -0.0966462 1.55975 0.0699187 1.75918 0.42949L0.916621 0.708517C1.75918 0.42949 1.7593 0.429724 1.75918 0.42949L1.7587 0.42864C1.75863 0.428512 1.75844 0.428179 1.7587 0.42864L1.76229 0.434916C1.76597 0.441305 1.77227 0.452156 1.78126 0.467173C1.79922 0.497221 1.82781 0.543886 1.86721 0.604795C1.9461 0.726714 2.06795 0.905043 2.23426 1.12095C2.56792 1.55411 3.07486 2.13102 3.76544 2.7057C3.92821 2.84112 4.10047 2.97598 4.28242 3.10837C4.29003 3.11375 4.29754 3.11921 4.30497 3.12473C5.66594 4.10953 7.56458 4.95854 10.0833 4.95854C11.1915 4.95854 12.1718 4.79505 13.0358 4.53226C14.1597 4.19042 15.1016 3.67582 15.8726 3.11666C16.7431 2.48529 17.3825 1.80646 17.8046 1.28297C18.0149 1.02224 18.169 0.802852 18.2691 0.651205C18.319 0.575456 18.3554 0.516856 18.3783 0.47874C18.3899 0.459686 18.398 0.445774 18.4028 0.437416L18.4074 0.42949C18.607 0.070117 19.1459 -0.0966108 19.6111 0.0574517C20.0764 0.211557 20.292 0.627972 20.0925 0.987543L19.25 0.708517C20.0925 0.987543 20.0926 0.98738 20.0925 0.987543L20.0905 0.991099L20.0873 0.996921L20.0767 1.01523C20.068 1.03033 20.0557 1.05119 20.04 1.07735C20.0084 1.12967 19.9626 1.20332 19.9022 1.29483C19.7816 1.47769 19.602 1.73282 19.3605 2.03216C18.9915 2.48985 18.4727 3.05751 17.7921 3.62992L18.5232 4.19474C18.8811 4.47135 18.8811 4.91986 18.5232 5.19647C18.1651 5.47307 17.5848 5.47307 17.2267 5.19647L16.4566 4.60132C15.9394 4.92418 15.3606 5.22862 14.7178 5.49135L15.4349 6.34305C15.711 6.67093 15.5909 7.10967 15.1665 7.3231C14.7422 7.53645 14.1744 7.44358 13.8983 7.1157L12.9949 6.04285C12.3725 6.19033 11.7077 6.29481 11 6.34375V7.4377C11 7.82892 10.5895 8.14604 10.0833 8.14604C9.57706 8.14604 9.16667 7.82892 9.16667 7.4377V6.3439C8.45652 6.29488 7.7918 6.19019 7.1714 6.04314L6.2683 7.1157C5.99219 7.44358 5.42436 7.53645 5.00002 7.3231C4.57568 7.10967 4.45551 6.67093 4.73162 6.34305L5.44882 5.49127C4.80705 5.22884 4.22808 4.92433 3.71017 4.60118L2.93981 5.19647C2.58183 5.47307 2.00142 5.47307 1.64345 5.19647C1.28546 4.91986 1.28546 4.47135 1.64345 4.19474L2.37443 3.62992C1.59985 2.97839 1.03374 2.33218 0.658891 1.84555C0.467134 1.59662 0.323996 1.38758 0.227425 1.23834C0.179108 1.16367 0.14235 1.10381 0.116894 1.06122C0.104161 1.03993 0.0942521 1.02294 0.0871296 1.01056L0.0785221 0.995484L0.0757812 0.990603L0.0748004 0.988847L0.0744062 0.988138C0.0742321 0.987826 0.0740763 0.987543 0.916621 0.708517L0.0744062 0.988138C-0.125021 0.628567 0.0902004 0.211557 0.555528 0.0574517Z" fill="#001C2E"/>
</svg>
